  0
SECTION
  2
HEADER
  9
$ACADVER
  1
AC1014
  9
$HANDSEED
  5
FFFF
  9
$MEASUREMENT
 70
     1
  0
ENDSEC
  0
SECTION
  2
TABLES
  0
TABLE
  2
VPORT
  5
8
330
0
100
AcDbSymbolTable
 70
     4
  0
VPORT
  5
2E
330
8
100
AcDbSymbolTableRecord
100
AcDbViewportTableRecord
  2
*ACTIVE
 70
     0
 10
0.0
 20
0.0
 11
1.0
 21
1.0
 12
210.0
 22
148.5
 13
0.0
 23
0.0
 14
10.0
 24
10.0
 15
10.0
 25
10.0
 16
0.0
 26
0.0
 36
1.0
 17
0.0
 27
0.0
 37
0.0
 40
341.0
 41
1.24
 42
50.0
 43
0.0
 44
0.0
 50
0.0
 51
0.0
 71
     0
 72
   100
 73
     1
 74
     3
 75
     0
 76
     0
 77
     0
 78
     0
  0
ENDTAB
  0
TABLE
  2
LTYPE
  5
5
330
0
100
AcDbSymbolTable
 70
     1
  0
LTYPE
  5
14
330
5
100
AcDbSymbolTableRecord
100
AcDbLinetypeTableRecord
  2
BYBLOCK
 70
     0
  3

 72
    65
 73
     0
 40
0.0
  0
LTYPE
  5
15
330
5
100
AcDbSymbolTableRecord
100
AcDbLinetypeTableRecord
  2
BYLAYER
 70
     0
  3

 72
    65
 73
     0
 40
0.0
  0
LTYPE
  5
16
330
5
100
AcDbSymbolTableRecord
100
AcDbLinetypeTableRecord
  2
CONTINUOUS
 70
     0
  3
Solid line
 72
    65
 73
     0
 40
0.0
  0
ENDTAB
  0
TABLE
  2
LAYER
  5
2
100
AcDbSymbolTable
 70
1
  0
LAYER
  5
50
100
AcDbSymbolTableRecord
100
AcDbLayerTableRecord
  2
0
 70
0
  6
CONTINUOUS
  0
ENDTAB
  0
TABLE
  2
STYLE
  5
3
330
0
100
AcDbSymbolTable
 70
     1
  0
STYLE
  5
11
330
3
100
AcDbSymbolTableRecord
100
AcDbTextStyleTableRecord
  2
STANDARD
 70
     0
 40
0.0
 41
1.0
 50
0.0
 71
     0
 42
2.5
  3
txt
  4

  0
ENDTAB
  0
TABLE
  2
VIEW
  5
6
330
0
100
AcDbSymbolTable
 70
     0
  0
ENDTAB
  0
TABLE
  2
UCS
  5
7
330
0
100
AcDbSymbolTable
 70
     0
  0
ENDTAB
  0
TABLE
  2
APPID
  5
9
330
0
100
AcDbSymbolTable
 70
     2
  0
APPID
  5
12
330
9
100
AcDbSymbolTableRecord
100
AcDbRegAppTableRecord
  2
ACAD
 70
     0
  0
ENDTAB
  0
TABLE
  2
DIMSTYLE
  5
A
330
0
100
AcDbSymbolTable
 70
     1
  0
DIMSTYLE
105
27
330
A
100
AcDbSymbolTableRecord
100
AcDbDimStyleTableRecord
  2
ISO-25
 70
     0
  3

  4

  5

  6

  7

 40
1.0
 41
2.5
 42
0.625
 43
3.75
 44
1.25
 45
0.0
 46
0.0
 47
0.0
 48
0.0
140
2.5
141
2.5
142
0.0
143
0.03937007874016
144
1.0
145
0.0
146
1.0
147
0.625
 71
     0
 72
     0
 73
     0
 74
     0
 75
     0
 76
     0
 77
     1
 78
     8
170
     0
171
     3
172
     1
173
     0
174
     0
175
     0
176
     0
177
     0
178
     0
270
     2
271
     2
272
     2
273
     2
274
     3
340
11
275
     0
280
     0
281
     0
282
     0
283
     0
284
     8
285
     0
286
     0
287
     3
288
     0
  0
ENDTAB
  0
TABLE
  2
BLOCK_RECORD
  5
1
330
0
100
AcDbSymbolTable
 70
     1
  0
BLOCK_RECORD
  5
1F
330
1
100
AcDbSymbolTableRecord
100
AcDbBlockTableRecord
  2
*MODEL_SPACE
  0
BLOCK_RECORD
  5
1B
330
1
100
AcDbSymbolTableRecord
100
AcDbBlockTableRecord
  2
*PAPER_SPACE
  0
ENDTAB
  0
ENDSEC
  0
SECTION
  2
BLOCKS
  0
BLOCK
  5
20
330
1F
100
AcDbEntity
  8
0
100
AcDbBlockBegin
  2
*MODEL_SPACE
 70
     0
 10
0.0
 20
0.0
 30
0.0
  3
*MODEL_SPACE
  1

  0
ENDBLK
  5
21
330
1F
100
AcDbEntity
  8
0
100
AcDbBlockEnd
  0
BLOCK
  5
1C
330
1B
100
AcDbEntity
 67
     1
  8
0
100
AcDbBlockBegin
  2
*PAPER_SPACE
  1

  0
ENDBLK
  5
1D
330
1B
100
AcDbEntity
 67
     1
  8
0
100
AcDbBlockEnd
  0
ENDSEC
  0
SECTION
  2
ENTITIES
  0
LINE
  5
100
100
AcDbEntity
  8
0
 62
7
100
AcDbLine
 10
327.304688
 20
528.371012
 30
0.0
 11
320.795312
 21
527.285076
 31
0.0
  0
LINE
  5
101
100
AcDbEntity
  8
0
 62
7
100
AcDbLine
 10
320.795312
 20
527.285076
 30
0.0
 11
314.746872
 21
524.696012
 31
0.0
  0
LINE
  5
102
100
AcDbEntity
  8
0
 62
7
100
AcDbLine
 10
314.746872
 20
524.696012
 30
0.0
 11
309.292184
 21
521.194452
 31
0.0
  0
LINE
  5
103
100
AcDbEntity
  8
0
 62
7
100
AcDbLine
 10
309.292184
 20
521.194452
 30
0.0
 11
301.778128
 21
518.580388
 31
0.0
  0
LINE
  5
104
100
AcDbEntity
  8
0
 62
7
100
AcDbLine
 10
301.778128
 20
518.580388
 30
0.0
 11
294.223440
 21
515.953828
 31
0.0
  0
LINE
  5
105
100
AcDbEntity
  8
0
 62
7
100
AcDbLine
 10
294.223440
 20
515.953828
 30
0.0
 11
286.668752
 21
513.325700
 31
0.0
  0
LINE
  5
106
100
AcDbEntity
  8
0
 62
7
100
AcDbLine
 10
286.668752
 20
513.325700
 30
0.0
 11
279.112496
 21
510.699140
 31
0.0
  0
LINE
  5
107
100
AcDbEntity
  8
0
 62
7
100
AcDbLine
 10
279.112496
 20
510.699140
 30
0.0
 11
271.557816
 21
508.071012
 31
0.0
  0
LINE
  5
108
100
AcDbEntity
  8
0
 62
7
100
AcDbLine
 10
271.557816
 20
508.071012
 30
0.0
 11
264.001560
 21
505.442892
 31
0.0
  0
LINE
  5
109
100
AcDbEntity
  8
0
 62
7
100
AcDbLine
 10
264.001560
 20
505.442892
 30
0.0
 11
256.446872
 21
502.816324
 31
0.0
  0
LINE
  5
10a
100
AcDbEntity
  8
0
 62
7
100
AcDbLine
 10
256.446872
 20
502.816324
 30
0.0
 11
248.892184
 21
500.189764
 31
0.0
  0
LINE
  5
10b
100
AcDbEntity
  8
0
 62
7
100
AcDbLine
 10
248.892184
 20
500.189764
 30
0.0
 11
241.225000
 21
497.561636
 31
0.0
  0
LINE
  5
10c
100
AcDbEntity
  8
0
 62
7
100
AcDbLine
 10
241.225000
 20
497.561636
 30
0.0
 11
233.781248
 21
494.935076
 31
0.0
  0
LINE
  5
10d
100
AcDbEntity
  8
0
 62
7
100
AcDbLine
 10
233.781248
 20
494.935076
 30
0.0
 11
226.226560
 21
492.306948
 31
0.0
  0
LINE
  5
10e
100
AcDbEntity
  8
0
 62
7
100
AcDbLine
 10
226.226560
 20
492.306948
 30
0.0
 11
218.671872
 21
489.680388
 31
0.0
  0
LINE
  5
10f
100
AcDbEntity
  8
0
 62
7
100
AcDbLine
 10
218.671872
 20
489.680388
 30
0.0
 11
211.115624
 21
487.052260
 31
0.0
  0
LINE
  5
110
100
AcDbEntity
  8
0
 62
7
100
AcDbLine
 10
211.115624
 20
487.052260
 30
0.0
 11
203.560936
 21
484.425700
 31
0.0
  0
LINE
  5
111
100
AcDbEntity
  8
0
 62
7
100
AcDbLine
 10
203.560936
 20
484.425700
 30
0.0
 11
196.004688
 21
481.797580
 31
0.0
  0
LINE
  5
112
100
AcDbEntity
  8
0
 62
7
100
AcDbLine
 10
196.004688
 20
481.797580
 30
0.0
 11
188.450000
 21
479.171012
 31
0.0
  0
LINE
  5
113
100
AcDbEntity
  8
0
 62
7
100
AcDbLine
 10
188.450000
 20
479.171012
 30
0.0
 11
180.893752
 21
476.542892
 31
0.0
  0
LINE
  5
114
100
AcDbEntity
  8
0
 62
7
100
AcDbLine
 10
180.893752
 20
476.542892
 30
0.0
 11
173.260936
 21
473.888204
 31
0.0
  0
LINE
  5
115
100
AcDbEntity
  8
0
 62
7
100
AcDbLine
 10
173.260936
 20
473.888204
 30
0.0
 11
167.451560
 21
468.627268
 31
0.0
  0
LINE
  5
116
100
AcDbEntity
  8
0
 62
7
100
AcDbLine
 10
167.451560
 20
468.627268
 30
0.0
 11
162.743752
 21
462.405388
 31
0.0
  0
LINE
  5
117
100
AcDbEntity
  8
0
 62
7
100
AcDbLine
 10
162.743752
 20
462.405388
 30
0.0
 11
158.542184
 21
455.861636
 31
0.0
  0
LINE
  5
118
100
AcDbEntity
  8
0
 62
7
100
AcDbLine
 10
158.542184
 20
455.861636
 30
0.0
 11
154.651560
 21
449.138204
 31
0.0
  0
LINE
  5
119
100
AcDbEntity
  8
0
 62
7
100
AcDbLine
 10
154.651560
 20
449.138204
 30
0.0
 11
150.982816
 21
442.296012
 31
0.0
  0
LINE
  5
11a
100
AcDbEntity
  8
0
 62
7
100
AcDbLine
 10
150.982816
 20
442.296012
 30
0.0
 11
147.489064
 21
435.363204
 31
0.0
  0
LINE
  5
11b
100
AcDbEntity
  8
0
 62
7
100
AcDbLine
 10
147.489064
 20
435.363204
 30
0.0
 11
144.145312
 21
428.360076
 31
0.0
  0
LINE
  5
11c
100
AcDbEntity
  8
0
 62
7
100
AcDbLine
 10
144.145312
 20
428.360076
 30
0.0
 11
140.931248
 21
421.296012
 31
0.0
  0
LINE
  5
11d
100
AcDbEntity
  8
0
 62
7
100
AcDbLine
 10
140.931248
 20
421.296012
 30
0.0
 11
137.840624
 21
414.178828
 31
0.0
  0
LINE
  5
11e
100
AcDbEntity
  8
0
 62
7
100
AcDbLine
 10
137.840624
 20
414.178828
 30
0.0
 11
134.867184
 21
407.011636
 31
0.0
  0
LINE
  5
11f
100
AcDbEntity
  8
0
 62
7
100
AcDbLine
 10
134.867184
 20
407.011636
 30
0.0
 11
132.010936
 21
399.797580
 31
0.0
  0
LINE
  5
120
100
AcDbEntity
  8
0
 62
7
100
AcDbLine
 10
132.010936
 20
399.797580
 30
0.0
 11
129.275000
 21
392.535076
 31
0.0
  0
LINE
  5
121
100
AcDbEntity
  8
0
 62
7
100
AcDbLine
 10
129.275000
 20
392.535076
 30
0.0
 11
126.670312
 21
385.224140
 31
0.0
  0
LINE
  5
122
100
AcDbEntity
  8
0
 62
7
100
AcDbLine
 10
126.670312
 20
385.224140
 30
0.0
 11
124.210936
 21
377.861636
 31
0.0
  0
LINE
  5
123
100
AcDbEntity
  8
0
 62
7
100
AcDbLine
 10
124.210936
 20
377.861636
 30
0.0
 11
121.921872
 21
370.444452
 31
0.0
  0
LINE
  5
124
100
AcDbEntity
  8
0
 62
7
100
AcDbLine
 10
121.921872
 20
370.444452
 30
0.0
 11
119.845312
 21
362.960076
 31
0.0
  0
LINE
  5
125
100
AcDbEntity
  8
0
 62
7
100
AcDbLine
 10
119.845312
 20
362.960076
 30
0.0
 11
118.054688
 21
355.397580
 31
0.0
  0
LINE
  5
126
100
AcDbEntity
  8
0
 62
7
100
AcDbLine
 10
118.054688
 20
355.397580
 30
0.0
 11
116.696872
 21
347.731948
 31
0.0
  0
LINE
  5
127
100
AcDbEntity
  8
0
 62
7
100
AcDbLine
 10
116.696872
 20
347.731948
 30
0.0
 11
116.153128
 21
339.914764
 31
0.0
  0
LINE
  5
128
100
AcDbEntity
  8
0
 62
7
100
AcDbLine
 10
116.153128
 20
339.914764
 30
0.0
 11
118.254688
 21
332.455388
 31
0.0
  0
LINE
  5
129
100
AcDbEntity
  8
0
 62
7
100
AcDbLine
 10
118.254688
 20
332.455388
 30
0.0
 11
123.668752
 21
326.456948
 31
0.0
  0
LINE
  5
12a
100
AcDbEntity
  8
0
 62
7
100
AcDbLine
 10
123.668752
 20
326.456948
 30
0.0
 11
128.953128
 21
320.460076
 31
0.0
  0
LINE
  5
12b
100
AcDbEntity
  8
0
 62
7
100
AcDbLine
 10
128.953128
 20
320.460076
 30
0.0
 11
134.357816
 21
314.561636
 31
0.0
  0
LINE
  5
12c
100
AcDbEntity
  8
0
 62
7
100
AcDbLine
 10
134.357816
 20
314.561636
 30
0.0
 11
139.920312
 21
308.808516
 31
0.0
  0
LINE
  5
12d
100
AcDbEntity
  8
0
 62
7
100
AcDbLine
 10
139.920312
 20
308.808516
 30
0.0
 11
145.654688
 21
303.225700
 31
0.0
  0
LINE
  5
12e
100
AcDbEntity
  8
0
 62
7
100
AcDbLine
 10
145.654688
 20
303.225700
 30
0.0
 11
151.568752
 21
297.833516
 31
0.0
  0
LINE
  5
12f
100
AcDbEntity
  8
0
 62
7
100
AcDbLine
 10
151.568752
 20
297.833516
 30
0.0
 11
157.667184
 21
292.647580
 31
0.0
  0
LINE
  5
130
100
AcDbEntity
  8
0
 62
7
100
AcDbLine
 10
157.667184
 20
292.647580
 30
0.0
 11
163.951560
 21
287.686636
 31
0.0
  0
LINE
  5
131
100
AcDbEntity
  8
0
 62
7
100
AcDbLine
 10
163.951560
 20
287.686636
 30
0.0
 11
170.418752
 21
282.967892
 31
0.0
  0
LINE
  5
132
100
AcDbEntity
  8
0
 62
7
100
AcDbLine
 10
170.418752
 20
282.967892
 30
0.0
 11
177.067184
 21
278.505388
 31
0.0
  0
LINE
  5
133
100
AcDbEntity
  8
0
 62
7
100
AcDbLine
 10
177.067184
 20
278.505388
 30
0.0
 11
183.890624
 21
274.317892
 31
0.0
  0
LINE
  5
134
100
AcDbEntity
  8
0
 62
7
100
AcDbLine
 10
183.890624
 20
274.317892
 30
0.0
 11
190.885936
 21
270.421012
 31
0.0
  0
LINE
  5
135
100
AcDbEntity
  8
0
 62
7
100
AcDbLine
 10
190.885936
 20
270.421012
 30
0.0
 11
198.045312
 21
266.830388
 31
0.0
  0
LINE
  5
136
100
AcDbEntity
  8
0
 62
7
100
AcDbLine
 10
198.045312
 20
266.830388
 30
0.0
 11
205.354688
 21
263.558516
 31
0.0
  0
LINE
  5
137
100
AcDbEntity
  8
0
 62
7
100
AcDbLine
 10
205.354688
 20
263.558516
 30
0.0
 11
212.806248
 21
260.621012
 31
0.0
  0
LINE
  5
138
100
AcDbEntity
  8
0
 62
7
100
AcDbLine
 10
212.806248
 20
260.621012
 30
0.0
 11
220.382816
 21
258.028828
 31
0.0
  0
LINE
  5
139
100
AcDbEntity
  8
0
 62
7
100
AcDbLine
 10
220.382816
 20
258.028828
 30
0.0
 11
228.073440
 21
255.789764
 31
0.0
  0
LINE
  5
13a
100
AcDbEntity
  8
0
 62
7
100
AcDbLine
 10
228.073440
 20
255.789764
 30
0.0
 11
235.859376
 21
253.910076
 31
0.0
  0
LINE
  5
13b
100
AcDbEntity
  8
0
 62
7
100
AcDbLine
 10
235.859376
 20
253.910076
 30
0.0
 11
243.723440
 21
252.394452
 31
0.0
  0
LINE
  5
13c
100
AcDbEntity
  8
0
 62
7
100
AcDbLine
 10
243.723440
 20
252.394452
 30
0.0
 11
251.648440
 21
251.242892
 31
0.0
  0
LINE
  5
13d
100
AcDbEntity
  8
0
 62
7
100
AcDbLine
 10
251.648440
 20
251.242892
 30
0.0
 11
259.617184
 21
250.455388
 31
0.0
  0
LINE
  5
13e
100
AcDbEntity
  8
0
 62
7
100
AcDbLine
 10
259.617184
 20
250.455388
 30
0.0
 11
267.612496
 21
250.024140
 31
0.0
  0
LINE
  5
13f
100
AcDbEntity
  8
0
 62
7
100
AcDbLine
 10
267.612496
 20
250.024140
 30
0.0
 11
275.620312
 21
249.944460
 31
0.0
  0
LINE
  5
140
100
AcDbEntity
  8
0
 62
7
100
AcDbLine
 10
275.620312
 20
249.944460
 30
0.0
 11
283.620312
 21
250.205396
 31
0.0
  0
LINE
  5
141
100
AcDbEntity
  8
0
 62
7
100
AcDbLine
 10
283.620312
 20
250.205396
 30
0.0
 11
291.456248
 21
250.667900
 31
0.0
  0
LINE
  5
142
100
AcDbEntity
  8
0
 62
7
100
AcDbLine
 10
291.456248
 20
250.667900
 30
0.0
 11
299.284376
 21
251.219460
 31
0.0
  0
LINE
  5
143
100
AcDbEntity
  8
0
 62
7
100
AcDbLine
 10
299.284376
 20
251.219460
 30
0.0
 11
307.106248
 21
251.867900
 31
0.0
  0
LINE
  5
144
100
AcDbEntity
  8
0
 62
7
100
AcDbLine
 10
307.106248
 20
251.867900
 30
0.0
 11
314.917184
 21
252.621020
 31
0.0
  0
LINE
  5
145
100
AcDbEntity
  8
0
 62
7
100
AcDbLine
 10
314.917184
 20
252.621020
 30
0.0
 11
322.718752
 21
253.489772
 31
0.0
  0
LINE
  5
146
100
AcDbEntity
  8
0
 62
7
100
AcDbLine
 10
322.718752
 20
253.489772
 30
0.0
 11
330.504688
 21
254.481956
 31
0.0
  0
LINE
  5
147
100
AcDbEntity
  8
0
 62
7
100
AcDbLine
 10
330.504688
 20
254.481956
 30
0.0
 11
338.273440
 21
255.613212
 31
0.0
  0
LINE
  5
148
100
AcDbEntity
  8
0
 62
7
100
AcDbLine
 10
338.273440
 20
255.613212
 30
0.0
 11
346.018752
 21
256.894460
 31
0.0
  0
LINE
  5
149
100
AcDbEntity
  8
0
 62
7
100
AcDbLine
 10
346.018752
 20
256.894460
 30
0.0
 11
353.734376
 21
258.341332
 31
0.0
  0
LINE
  5
14a
100
AcDbEntity
  8
0
 62
7
100
AcDbLine
 10
353.734376
 20
258.341332
 30
0.0
 11
361.415624
 21
259.974148
 31
0.0
  0
LINE
  5
14b
100
AcDbEntity
  8
0
 62
7
100
AcDbLine
 10
361.415624
 20
259.974148
 30
0.0
 11
369.051560
 21
261.811644
 31
0.0
  0
LINE
  5
14c
100
AcDbEntity
  8
0
 62
7
100
AcDbLine
 10
369.051560
 20
261.811644
 30
0.0
 11
376.629688
 21
263.878836
 31
0.0
  0
LINE
  5
14d
100
AcDbEntity
  8
0
 62
7
100
AcDbLine
 10
376.629688
 20
263.878836
 30
0.0
 11
384.134376
 21
266.203836
 31
0.0
  0
LINE
  5
14e
100
AcDbEntity
  8
0
 62
7
100
AcDbLine
 10
384.134376
 20
266.203836
 30
0.0
 11
391.546872
 21
268.814772
 31
0.0
  0
LINE
  5
14f
100
AcDbEntity
  8
0
 62
7
100
AcDbLine
 10
391.546872
 20
268.814772
 30
0.0
 11
398.839064
 21
271.752268
 31
0.0
  0
LINE
  5
150
100
AcDbEntity
  8
0
 62
7
100
AcDbLine
 10
398.839064
 20
271.752268
 30
0.0
 11
405.975000
 21
275.053836
 31
0.0
  0
LINE
  5
151
100
AcDbEntity
  8
0
 62
7
100
AcDbLine
 10
405.975000
 20
275.053836
 30
0.0
 11
412.910936
 21
278.766332
 31
0.0
  0
LINE
  5
152
100
AcDbEntity
  8
0
 62
7
100
AcDbLine
 10
412.910936
 20
278.766332
 30
0.0
 11
419.587504
 21
282.931956
 31
0.0
  0
LINE
  5
153
100
AcDbEntity
  8
0
 62
7
100
AcDbLine
 10
419.587504
 20
282.931956
 30
0.0
 11
425.929688
 21
287.597588
 31
0.0
  0
LINE
  5
154
100
AcDbEntity
  8
0
 62
7
100
AcDbLine
 10
425.929688
 20
287.597588
 30
0.0
 11
431.846872
 21
292.797588
 31
0.0
  0
LINE
  5
155
100
AcDbEntity
  8
0
 62
7
100
AcDbLine
 10
431.846872
 20
292.797588
 30
0.0
 11
437.234376
 21
298.546020
 31
0.0
  0
LINE
  5
156
100
AcDbEntity
  8
0
 62
7
100
AcDbLine
 10
437.234376
 20
298.546020
 30
0.0
 11
441.985936
 21
304.835084
 31
0.0
  0
LINE
  5
157
100
AcDbEntity
  8
0
 62
7
100
AcDbLine
 10
441.985936
 20
304.835084
 30
0.0
 11
446.009376
 21
311.614772
 31
0.0
  0
LINE
  5
158
100
AcDbEntity
  8
0
 62
7
100
AcDbLine
 10
446.009376
 20
311.614772
 30
0.0
 11
449.239064
 21
318.805396
 31
0.0
  0
LINE
  5
159
100
AcDbEntity
  8
0
 62
7
100
AcDbLine
 10
449.239064
 20
318.805396
 30
0.0
 11
451.651560
 21
326.300708
 31
0.0
  0
LINE
  5
15a
100
AcDbEntity
  8
0
 62
7
100
AcDbLine
 10
451.651560
 20
326.300708
 30
0.0
 11
453.515624
 21
333.761644
 31
0.0
  0
LINE
  5
15b
100
AcDbEntity
  8
0
 62
7
100
AcDbLine
 10
453.515624
 20
333.761644
 30
0.0
 11
455.195312
 21
341.256956
 31
0.0
  0
LINE
  5
15c
100
AcDbEntity
  8
0
 62
7
100
AcDbLine
 10
455.195312
 20
341.256956
 30
0.0
 11
456.715624
 21
348.785084
 31
0.0
  0
LINE
  5
15d
100
AcDbEntity
  8
0
 62
7
100
AcDbLine
 10
456.715624
 20
348.785084
 30
0.0
 11
458.085936
 21
356.342900
 31
0.0
  0
LINE
  5
15e
100
AcDbEntity
  8
0
 62
7
100
AcDbLine
 10
458.085936
 20
356.342900
 30
0.0
 11
459.310936
 21
363.922588
 31
0.0
  0
LINE
  5
15f
100
AcDbEntity
  8
0
 62
7
100
AcDbLine
 10
459.310936
 20
363.922588
 30
0.0
 11
460.392184
 21
371.525708
 31
0.0
  0
LINE
  5
160
100
AcDbEntity
  8
0
 62
7
100
AcDbLine
 10
460.392184
 20
371.525708
 30
0.0
 11
461.326560
 21
379.149148
 31
0.0
  0
LINE
  5
161
100
AcDbEntity
  8
0
 62
7
100
AcDbLine
 10
461.326560
 20
379.149148
 30
0.0
 11
462.109376
 21
386.788212
 31
0.0
  0
LINE
  5
162
100
AcDbEntity
  8
0
 62
7
100
AcDbLine
 10
462.109376
 20
386.788212
 30
0.0
 11
462.729688
 21
394.442900
 31
0.0
  0
LINE
  5
163
100
AcDbEntity
  8
0
 62
7
100
AcDbLine
 10
462.729688
 20
394.442900
 30
0.0
 11
463.176560
 21
402.113212
 31
0.0
  0
LINE
  5
164
100
AcDbEntity
  8
0
 62
7
100
AcDbLine
 10
463.176560
 20
402.113212
 30
0.0
 11
463.434376
 21
409.791332
 31
0.0
  0
LINE
  5
165
100
AcDbEntity
  8
0
 62
7
100
AcDbLine
 10
463.434376
 20
409.791332
 30
0.0
 11
463.481256
 21
417.474148
 31
0.0
  0
LINE
  5
166
100
AcDbEntity
  8
0
 62
7
100
AcDbLine
 10
463.481256
 20
417.474148
 30
0.0
 11
463.289072
 21
425.155396
 31
0.0
  0
LINE
  5
167
100
AcDbEntity
  8
0
 62
7
100
AcDbLine
 10
463.289072
 20
425.155396
 30
0.0
 11
462.826568
 21
432.828836
 31
0.0
  0
LINE
  5
168
100
AcDbEntity
  8
0
 62
7
100
AcDbLine
 10
462.826568
 20
432.828836
 30
0.0
 11
462.043760
 21
440.478836
 31
0.0
  0
LINE
  5
169
100
AcDbEntity
  8
0
 62
7
100
AcDbLine
 10
462.043760
 20
440.478836
 30
0.0
 11
460.879696
 21
448.083524
 31
0.0
  0
LINE
  5
16a
100
AcDbEntity
  8
0
 62
7
100
AcDbLine
 10
460.879696
 20
448.083524
 30
0.0
 11
459.253136
 21
455.606956
 31
0.0
  0
LINE
  5
16b
100
AcDbEntity
  8
0
 62
7
100
AcDbLine
 10
459.253136
 20
455.606956
 30
0.0
 11
457.048448
 21
462.991332
 31
0.0
  0
LINE
  5
16c
100
AcDbEntity
  8
0
 62
7
100
AcDbLine
 10
457.048448
 20
462.991332
 30
0.0
 11
454.110944
 21
470.125708
 31
0.0
  0
LINE
  5
16d
100
AcDbEntity
  8
0
 62
7
100
AcDbLine
 10
454.110944
 20
470.125708
 30
0.0
 11
450.240632
 21
476.813212
 31
0.0
  0
LINE
  5
16e
100
AcDbEntity
  8
0
 62
7
100
AcDbLine
 10
450.240632
 20
476.813212
 30
0.0
 11
445.223448
 21
482.708524
 31
0.0
  0
LINE
  5
16f
100
AcDbEntity
  8
0
 62
7
100
AcDbLine
 10
445.223448
 20
482.708524
 30
0.0
 11
438.993760
 21
487.280396
 31
0.0
  0
LINE
  5
170
100
AcDbEntity
  8
0
 62
7
100
AcDbLine
 10
438.993760
 20
487.280396
 30
0.0
 11
431.931256
 21
490.991332
 31
0.0
  0
LINE
  5
171
100
AcDbEntity
  8
0
 62
7
100
AcDbLine
 10
431.931256
 20
490.991332
 30
0.0
 11
424.778136
 21
494.467900
 31
0.0
  0
LINE
  5
172
100
AcDbEntity
  8
0
 62
7
100
AcDbLine
 10
424.778136
 20
494.467900
 30
0.0
 11
417.545320
 21
497.771020
 31
0.0
  0
LINE
  5
173
100
AcDbEntity
  8
0
 62
7
100
AcDbLine
 10
417.545320
 20
497.771020
 30
0.0
 11
410.251568
 21
500.933524
 31
0.0
  0
LINE
  5
174
100
AcDbEntity
  8
0
 62
7
100
AcDbLine
 10
410.251568
 20
500.933524
 30
0.0
 11
402.907824
 21
503.977276
 31
0.0
  0
LINE
  5
175
100
AcDbEntity
  8
0
 62
7
100
AcDbLine
 10
402.907824
 20
503.977276
 30
0.0
 11
395.523448
 21
506.914772
 31
0.0
  0
LINE
  5
176
100
AcDbEntity
  8
0
 62
7
100
AcDbLine
 10
395.523448
 20
506.914772
 30
0.0
 11
388.101568
 21
509.758524
 31
0.0
  0
LINE
  5
177
100
AcDbEntity
  8
0
 62
7
100
AcDbLine
 10
388.101568
 20
509.758524
 30
0.0
 11
380.646880
 21
512.513212
 31
0.0
  0
LINE
  5
178
100
AcDbEntity
  8
0
 62
7
100
AcDbLine
 10
380.646880
 20
512.513212
 30
0.0
 11
373.160944
 21
515.180396
 31
0.0
  0
LINE
  5
179
100
AcDbEntity
  8
0
 62
7
100
AcDbLine
 10
373.160944
 20
515.180396
 30
0.0
 11
365.645320
 21
517.763212
 31
0.0
  0
LINE
  5
17a
100
AcDbEntity
  8
0
 62
7
100
AcDbLine
 10
365.645320
 20
517.763212
 30
0.0
 11
358.096880
 21
520.253836
 31
0.0
  0
LINE
  5
17b
100
AcDbEntity
  8
0
 62
7
100
AcDbLine
 10
358.096880
 20
520.253836
 30
0.0
 11
350.514072
 21
522.639772
 31
0.0
  0
LINE
  5
17c
100
AcDbEntity
  8
0
 62
7
100
AcDbLine
 10
350.514072
 20
522.639772
 30
0.0
 11
342.889072
 21
524.894460
 31
0.0
  0
LINE
  5
17d
100
AcDbEntity
  8
0
 62
7
100
AcDbLine
 10
342.889072
 20
524.894460
 30
0.0
 11
335.193760
 21
526.946020
 31
0.0
  0
LINE
  5
17e
100
AcDbEntity
  8
0
 62
7
100
AcDbLine
 10
335.193760
 20
526.946020
 30
0.0
 11
327.304696
 21
528.371020
 31
0.0
  0
LINE
  5
17f
100
AcDbEntity
  8
0
 62
7
100
AcDbLine
 10
327.304696
 20
528.371020
 30
0.0
 11
327.304688
 21
528.371012
 31
0.0
  0
LINE
  5
180
100
AcDbEntity
  8
0
 62
7
100
AcDbLine
 10
327.299888
 20
527.558516
 30
0.0
 11
335.018640
 21
526.163204
 31
0.0
  0
LINE
  5
181
100
AcDbEntity
  8
0
 62
7
100
AcDbLine
 10
335.018640
 20
526.163204
 30
0.0
 11
342.671760
 21
524.124140
 31
0.0
  0
LINE
  5
182
100
AcDbEntity
  8
0
 62
7
100
AcDbLine
 10
342.671760
 20
524.124140
 30
0.0
 11
350.281136
 21
521.874140
 31
0.0
  0
LINE
  5
183
100
AcDbEntity
  8
0
 62
7
100
AcDbLine
 10
350.281136
 20
521.874140
 30
0.0
 11
357.851448
 21
519.491324
 31
0.0
  0
LINE
  5
184
100
AcDbEntity
  8
0
 62
7
100
AcDbLine
 10
357.851448
 20
519.491324
 30
0.0
 11
365.388952
 21
517.005388
 31
0.0
  0
LINE
  5
185
100
AcDbEntity
  8
0
 62
7
100
AcDbLine
 10
365.388952
 20
517.005388
 30
0.0
 11
372.896760
 21
514.425700
 31
0.0
  0
LINE
  5
186
100
AcDbEntity
  8
0
 62
7
100
AcDbLine
 10
372.896760
 20
514.425700
 30
0.0
 11
380.373328
 21
511.760076
 31
0.0
  0
LINE
  5
187
100
AcDbEntity
  8
0
 62
7
100
AcDbLine
 10
380.373328
 20
511.760076
 30
0.0
 11
387.818640
 21
509.010076
 31
0.0
  0
LINE
  5
188
100
AcDbEntity
  8
0
 62
7
100
AcDbLine
 10
387.818640
 20
509.010076
 30
0.0
 11
395.232704
 21
506.169452
 31
0.0
  0
LINE
  5
189
100
AcDbEntity
  8
0
 62
7
100
AcDbLine
 10
395.232704
 20
506.169452
 30
0.0
 11
402.607704
 21
503.235076
 31
0.0
  0
LINE
  5
18a
100
AcDbEntity
  8
0
 62
7
100
AcDbLine
 10
402.607704
 20
503.235076
 30
0.0
 11
409.940512
 21
500.197580
 31
0.0
  0
LINE
  5
18b
100
AcDbEntity
  8
0
 62
7
100
AcDbLine
 10
409.940512
 20
500.197580
 30
0.0
 11
417.220200
 21
497.039764
 31
0.0
  0
LINE
  5
18c
100
AcDbEntity
  8
0
 62
7
100
AcDbLine
 10
417.220200
 20
497.039764
 30
0.0
 11
424.437392
 21
493.742892
 31
0.0
  0
LINE
  5
18d
100
AcDbEntity
  8
0
 62
7
100
AcDbLine
 10
424.437392
 20
493.742892
 30
0.0
 11
431.570200
 21
490.277268
 31
0.0
  0
LINE
  5
18e
100
AcDbEntity
  8
0
 62
7
100
AcDbLine
 10
431.570200
 20
490.277268
 30
0.0
 11
438.568640
 21
486.600700
 31
0.0
  0
LINE
  5
18f
100
AcDbEntity
  8
0
 62
7
100
AcDbLine
 10
438.568640
 20
486.600700
 30
0.0
 11
444.674888
 21
482.117892
 31
0.0
  0
LINE
  5
190
100
AcDbEntity
  8
0
 62
7
100
AcDbLine
 10
444.674888
 20
482.117892
 30
0.0
 11
449.584264
 21
476.349140
 31
0.0
  0
LINE
  5
191
100
AcDbEntity
  8
0
 62
7
100
AcDbLine
 10
449.584264
 20
476.349140
 30
0.0
 11
453.392072
 21
469.771012
 31
0.0
  0
LINE
  5
192
100
AcDbEntity
  8
0
 62
7
100
AcDbLine
 10
453.392072
 20
469.771012
 30
0.0
 11
456.293640
 21
462.724140
 31
0.0
  0
LINE
  5
193
100
AcDbEntity
  8
0
 62
7
100
AcDbLine
 10
456.293640
 20
462.724140
 30
0.0
 11
458.478016
 21
455.408516
 31
0.0
  0
LINE
  5
194
100
AcDbEntity
  8
0
 62
7
100
AcDbLine
 10
458.478016
 20
455.408516
 30
0.0
 11
460.092072
 21
447.938204
 31
0.0
  0
LINE
  5
195
100
AcDbEntity
  8
0
 62
7
100
AcDbLine
 10
460.092072
 20
447.938204
 30
0.0
 11
461.249888
 21
440.377268
 31
0.0
  0
LINE
  5
196
100
AcDbEntity
  8
0
 62
7
100
AcDbLine
 10
461.249888
 20
440.377268
 30
0.0
 11
462.028016
 21
432.764764
 31
0.0
  0
LINE
  5
197
100
AcDbEntity
  8
0
 62
7
100
AcDbLine
 10
462.028016
 20
432.764764
 30
0.0
 11
462.490512
 21
425.122580
 31
0.0
  0
LINE
  5
198
100
AcDbEntity
  8
0
 62
7
100
AcDbLine
 10
462.490512
 20
425.122580
 30
0.0
 11
462.681136
 21
417.466324
 31
0.0
  0
LINE
  5
199
100
AcDbEntity
  8
0
 62
7
100
AcDbLine
 10
462.681136
 20
417.466324
 30
0.0
 11
462.634256
 21
409.806948
 31
0.0
  0
LINE
  5
19a
100
AcDbEntity
  8
0
 62
7
100
AcDbLine
 10
462.634256
 20
409.806948
 30
0.0
 11
462.378008
 21
402.149140
 31
0.0
  0
LINE
  5
19b
100
AcDbEntity
  8
0
 62
7
100
AcDbLine
 10
462.378008
 20
402.149140
 30
0.0
 11
461.931128
 21
394.499140
 31
0.0
  0
LINE
  5
19c
100
AcDbEntity
  8
0
 62
7
100
AcDbLine
 10
461.931128
 20
394.499140
 30
0.0
 11
461.312376
 21
386.861636
 31
0.0
  0
LINE
  5
19d
100
AcDbEntity
  8
0
 62
7
100
AcDbLine
 10
461.312376
 20
386.861636
 30
0.0
 11
460.531128
 21
379.238204
 31
0.0
  0
LINE
  5
19e
100
AcDbEntity
  8
0
 62
7
100
AcDbLine
 10
460.531128
 20
379.238204
 30
0.0
 11
459.598320
 21
371.630388
 31
0.0
  0
LINE
  5
19f
100
AcDbEntity
  8
0
 62
7
100
AcDbLine
 10
459.598320
 20
371.630388
 30
0.0
 11
458.520192
 21
364.042892
 31
0.0
  0
LINE
  5
1a0
100
AcDbEntity
  8
0
 62
7
100
AcDbLine
 10
458.520192
 20
364.042892
 30
0.0
 11
457.296752
 21
356.477268
 31
0.0
  0
LINE
  5
1a1
100
AcDbEntity
  8
0
 62
7
100
AcDbLine
 10
457.296752
 20
356.477268
 30
0.0
 11
455.929568
 21
348.936636
 31
0.0
  0
LINE
  5
1a2
100
AcDbEntity
  8
0
 62
7
100
AcDbLine
 10
455.929568
 20
348.936636
 30
0.0
 11
454.412376
 21
341.424140
 31
0.0
  0
LINE
  5
1a3
100
AcDbEntity
  8
0
 62
7
100
AcDbLine
 10
454.412376
 20
341.424140
 30
0.0
 11
452.735816
 21
333.946012
 31
0.0
  0
LINE
  5
1a4
100
AcDbEntity
  8
0
 62
7
100
AcDbLine
 10
452.735816
 20
333.946012
 30
0.0
 11
450.882696
 21
326.521012
 31
0.0
  0
LINE
  5
1a5
100
AcDbEntity
  8
0
 62
7
100
AcDbLine
 10
450.882696
 20
326.521012
 30
0.0
 11
448.490504
 21
319.092892
 31
0.0
  0
LINE
  5
1a6
100
AcDbEntity
  8
0
 62
7
100
AcDbLine
 10
448.490504
 20
319.092892
 30
0.0
 11
445.298320
 21
311.983516
 31
0.0
  0
LINE
  5
1a7
100
AcDbEntity
  8
0
 62
7
100
AcDbLine
 10
445.298320
 20
311.983516
 30
0.0
 11
441.321752
 21
305.281948
 31
0.0
  0
LINE
  5
1a8
100
AcDbEntity
  8
0
 62
7
100
AcDbLine
 10
441.321752
 20
305.281948
 30
0.0
 11
436.621752
 21
299.063204
 31
0.0
  0
LINE
  5
1a9
100
AcDbEntity
  8
0
 62
7
100
AcDbLine
 10
436.621752
 20
299.063204
 30
0.0
 11
431.288944
 21
293.372580
 31
0.0
  0
LINE
  5
1aa
100
AcDbEntity
  8
0
 62
7
100
AcDbLine
 10
431.288944
 20
293.372580
 30
0.0
 11
425.428008
 21
288.221012
 31
0.0
  0
LINE
  5
1ab
100
AcDbEntity
  8
0
 62
7
100
AcDbLine
 10
425.428008
 20
288.221012
 30
0.0
 11
419.137384
 21
283.594452
 31
0.0
  0
LINE
  5
1ac
100
AcDbEntity
  8
0
 62
7
100
AcDbLine
 10
419.137384
 20
283.594452
 30
0.0
 11
412.509256
 21
279.458516
 31
0.0
  0
LINE
  5
1ad
100
AcDbEntity
  8
0
 62
7
100
AcDbLine
 10
412.509256
 20
279.458516
 30
0.0
 11
405.617064
 21
275.771012
 31
0.0
  0
LINE
  5
1ae
100
AcDbEntity
  8
0
 62
7
100
AcDbLine
 10
405.617064
 20
275.771012
 30
0.0
 11
398.521752
 21
272.486636
 31
0.0
  0
LINE
  5
1af
100
AcDbEntity
  8
0
 62
7
100
AcDbLine
 10
398.521752
 20
272.486636
 30
0.0
 11
391.263944
 21
269.564764
 31
0.0
  0
LINE
  5
1b0
100
AcDbEntity
  8
0
 62
7
100
AcDbLine
 10
391.263944
 20
269.564764
 30
0.0
 11
383.884256
 21
266.963204
 31
0.0
  0
LINE
  5
1b1
100
AcDbEntity
  8
0
 62
7
100
AcDbLine
 10
383.884256
 20
266.963204
 30
0.0
 11
376.406128
 21
264.647580
 31
0.0
  0
LINE
  5
1b2
100
AcDbEntity
  8
0
 62
7
100
AcDbLine
 10
376.406128
 20
264.647580
 30
0.0
 11
368.853008
 21
262.586636
 31
0.0
  0
LINE
  5
1b3
100
AcDbEntity
  8
0
 62
7
100
AcDbLine
 10
368.853008
 20
262.586636
 30
0.0
 11
361.238944
 21
260.755388
 31
0.0
  0
LINE
  5
1b4
100
AcDbEntity
  8
0
 62
7
100
AcDbLine
 10
361.238944
 20
260.755388
 30
0.0
 11
353.578008
 21
259.125700
 31
0.0
  0
LINE
  5
1b5
100
AcDbEntity
  8
0
 62
7
100
AcDbLine
 10
353.578008
 20
259.125700
 30
0.0
 11
345.879568
 21
257.681948
 31
0.0
  0
LINE
  5
1b6
100
AcDbEntity
  8
0
 62
7
100
AcDbLine
 10
345.879568
 20
257.681948
 30
0.0
 11
338.149880
 21
256.403828
 31
0.0
  0
LINE
  5
1b7
100
AcDbEntity
  8
0
 62
7
100
AcDbLine
 10
338.149880
 20
256.403828
 30
0.0
 11
330.396752
 21
255.275700
 31
0.0
  0
LINE
  5
1b8
100
AcDbEntity
  8
0
 62
7
100
AcDbLine
 10
330.396752
 20
255.275700
 30
0.0
 11
322.623320
 21
254.283516
 31
0.0
  0
LINE
  5
1b9
100
AcDbEntity
  8
0
 62
7
100
AcDbLine
 10
322.623320
 20
254.283516
 30
0.0
 11
314.834256
 21
253.416324
 31
0.0
  0
LINE
  5
1ba
100
AcDbEntity
  8
0
 62
7
100
AcDbLine
 10
314.834256
 20
253.416324
 30
0.0
 11
307.034256
 21
252.664764
 31
0.0
  0
LINE
  5
1bb
100
AcDbEntity
  8
0
 62
7
100
AcDbLine
 10
307.034256
 20
252.664764
 30
0.0
 11
299.223320
 21
252.016324
 31
0.0
  0
LINE
  5
1bc
100
AcDbEntity
  8
0
 62
7
100
AcDbLine
 10
299.223320
 20
252.016324
 30
0.0
 11
291.404568
 21
251.466324
 31
0.0
  0
LINE
  5
1bd
100
AcDbEntity
  8
0
 62
7
100
AcDbLine
 10
291.404568
 20
251.466324
 30
0.0
 11
283.584256
 21
251.003828
 31
0.0
  0
LINE
  5
1be
100
AcDbEntity
  8
0
 62
7
100
AcDbLine
 10
283.584256
 20
251.003828
 30
0.0
 11
275.610816
 21
250.744452
 31
0.0
  0
LINE
  5
1bf
100
AcDbEntity
  8
0
 62
7
100
AcDbLine
 10
275.610816
 20
250.744452
 30
0.0
 11
267.638944
 21
250.824132
 31
0.0
  0
LINE
  5
1c0
100
AcDbEntity
  8
0
 62
7
100
AcDbLine
 10
267.638944
 20
250.824132
 30
0.0
 11
259.678008
 21
251.252252
 31
0.0
  0
LINE
  5
1c1
100
AcDbEntity
  8
0
 62
7
100
AcDbLine
 10
259.678008
 20
251.252252
 30
0.0
 11
251.745192
 21
252.038196
 31
0.0
  0
LINE
  5
1c2
100
AcDbEntity
  8
0
 62
7
100
AcDbLine
 10
251.745192
 20
252.038196
 30
0.0
 11
243.856128
 21
253.183508
 31
0.0
  0
LINE
  5
1c3
100
AcDbEntity
  8
0
 62
7
100
AcDbLine
 10
243.856128
 20
253.183508
 30
0.0
 11
236.028008
 21
254.692884
 31
0.0
  0
LINE
  5
1c4
100
AcDbEntity
  8
0
 62
7
100
AcDbLine
 10
236.028008
 20
254.692884
 30
0.0
 11
228.279568
 21
256.563196
 31
0.0
  0
LINE
  5
1c5
100
AcDbEntity
  8
0
 62
7
100
AcDbLine
 10
228.279568
 20
256.563196
 30
0.0
 11
220.624880
 21
258.791316
 31
0.0
  0
LINE
  5
1c6
100
AcDbEntity
  8
0
 62
7
100
AcDbLine
 10
220.624880
 20
258.791316
 30
0.0
 11
213.081128
 21
261.372572
 31
0.0
  0
LINE
  5
1c7
100
AcDbEntity
  8
0
 62
7
100
AcDbLine
 10
213.081128
 20
261.372572
 30
0.0
 11
205.665504
 21
264.296004
 31
0.0
  0
LINE
  5
1c8
100
AcDbEntity
  8
0
 62
7
100
AcDbLine
 10
205.665504
 20
264.296004
 30
0.0
 11
198.387384
 21
267.552252
 31
0.0
  0
LINE
  5
1c9
100
AcDbEntity
  8
0
 62
7
100
AcDbLine
 10
198.387384
 20
267.552252
 30
0.0
 11
191.260816
 21
271.128820
 31
0.0
  0
LINE
  5
1ca
100
AcDbEntity
  8
0
 62
7
100
AcDbLine
 10
191.260816
 20
271.128820
 30
0.0
 11
184.295192
 21
275.008508
 31
0.0
  0
LINE
  5
1cb
100
AcDbEntity
  8
0
 62
7
100
AcDbLine
 10
184.295192
 20
275.008508
 30
0.0
 11
177.498320
 21
279.178820
 31
0.0
  0
LINE
  5
1cc
100
AcDbEntity
  8
0
 62
7
100
AcDbLine
 10
177.498320
 20
279.178820
 30
0.0
 11
170.876440
 21
283.622572
 31
0.0
  0
LINE
  5
1cd
100
AcDbEntity
  8
0
 62
7
100
AcDbLine
 10
170.876440
 20
283.622572
 30
0.0
 11
164.434256
 21
288.324132
 31
0.0
  0
LINE
  5
1ce
100
AcDbEntity
  8
0
 62
7
100
AcDbLine
 10
164.434256
 20
288.324132
 30
0.0
 11
158.174880
 21
293.266316
 31
0.0
  0
LINE
  5
1cf
100
AcDbEntity
  8
0
 62
7
100
AcDbLine
 10
158.174880
 20
293.266316
 30
0.0
 11
152.096752
 21
298.433508
 31
0.0
  0
LINE
  5
1d0
100
AcDbEntity
  8
0
 62
7
100
AcDbLine
 10
152.096752
 20
298.433508
 30
0.0
 11
146.203008
 21
303.806940
 31
0.0
  0
LINE
  5
1d1
100
AcDbEntity
  8
0
 62
7
100
AcDbLine
 10
146.203008
 20
303.806940
 30
0.0
 11
140.485816
 21
309.372572
 31
0.0
  0
LINE
  5
1d2
100
AcDbEntity
  8
0
 62
7
100
AcDbLine
 10
140.485816
 20
309.372572
 30
0.0
 11
134.940504
 21
315.110068
 31
0.0
  0
LINE
  5
1d3
100
AcDbEntity
  8
0
 62
7
100
AcDbLine
 10
134.940504
 20
315.110068
 30
0.0
 11
129.548320
 21
320.996004
 31
0.0
  0
LINE
  5
1d4
100
AcDbEntity
  8
0
 62
7
100
AcDbLine
 10
129.548320
 20
320.996004
 30
0.0
 11
124.265504
 21
326.989756
 31
0.0
  0
LINE
  5
1d5
100
AcDbEntity
  8
0
 62
7
100
AcDbLine
 10
124.265504
 20
326.989756
 30
0.0
 11
118.973320
 21
332.852252
 31
0.0
  0
LINE
  5
1d6
100
AcDbEntity
  8
0
 62
7
100
AcDbLine
 10
118.973320
 20
332.852252
 30
0.0
 11
116.960816
 21
339.997572
 31
0.0
  0
LINE
  5
1d7
100
AcDbEntity
  8
0
 62
7
100
AcDbLine
 10
116.960816
 20
339.997572
 30
0.0
 11
117.492064
 21
347.635068
 31
0.0
  0
LINE
  5
1d8
100
AcDbEntity
  8
0
 62
7
100
AcDbLine
 10
117.492064
 20
347.635068
 30
0.0
 11
118.838944
 21
355.235068
 31
0.0
  0
LINE
  5
1d9
100
AcDbEntity
  8
0
 62
7
100
AcDbLine
 10
118.838944
 20
355.235068
 30
0.0
 11
120.620192
 21
362.760068
 31
0.0
  0
LINE
  5
1da
100
AcDbEntity
  8
0
 62
7
100
AcDbLine
 10
120.620192
 20
362.760068
 30
0.0
 11
122.688944
 21
370.219444
 31
0.0
  0
LINE
  5
1db
100
AcDbEntity
  8
0
 62
7
100
AcDbLine
 10
122.688944
 20
370.219444
 30
0.0
 11
124.971752
 21
377.617884
 31
0.0
  0
LINE
  5
1dc
100
AcDbEntity
  8
0
 62
7
100
AcDbLine
 10
124.971752
 20
377.617884
 30
0.0
 11
127.426440
 21
384.963196
 31
0.0
  0
LINE
  5
1dd
100
AcDbEntity
  8
0
 62
7
100
AcDbLine
 10
127.426440
 20
384.963196
 30
0.0
 11
130.026440
 21
392.258508
 31
0.0
  0
LINE
  5
1de
100
AcDbEntity
  8
0
 62
7
100
AcDbLine
 10
130.026440
 20
392.258508
 30
0.0
 11
132.756128
 21
399.508508
 31
0.0
  0
LINE
  5
1df
100
AcDbEntity
  8
0
 62
7
100
AcDbLine
 10
132.756128
 20
399.508508
 30
0.0
 11
135.607696
 21
406.711628
 31
0.0
  0
LINE
  5
1e0
100
AcDbEntity
  8
0
 62
7
100
AcDbLine
 10
135.607696
 20
406.711628
 30
0.0
 11
138.576440
 21
413.866316
 31
0.0
  0
LINE
  5
1e1
100
AcDbEntity
  8
0
 62
7
100
AcDbLine
 10
138.576440
 20
413.866316
 30
0.0
 11
141.662376
 21
420.971004
 31
0.0
  0
LINE
  5
1e2
100
AcDbEntity
  8
0
 62
7
100
AcDbLine
 10
141.662376
 20
420.971004
 30
0.0
 11
144.870192
 21
428.021004
 31
0.0
  0
LINE
  5
1e3
100
AcDbEntity
  8
0
 62
7
100
AcDbLine
 10
144.870192
 20
428.021004
 30
0.0
 11
148.207696
 21
435.010068
 31
0.0
  0
LINE
  5
1e4
100
AcDbEntity
  8
0
 62
7
100
AcDbLine
 10
148.207696
 20
435.010068
 30
0.0
 11
151.692064
 21
441.925692
 31
0.0
  0
LINE
  5
1e5
100
AcDbEntity
  8
0
 62
7
100
AcDbLine
 10
151.692064
 20
441.925692
 30
0.0
 11
155.349880
 21
448.749132
 31
0.0
  0
LINE
  5
1e6
100
AcDbEntity
  8
0
 62
7
100
AcDbLine
 10
155.349880
 20
448.749132
 30
0.0
 11
159.224880
 21
455.446004
 31
0.0
  0
LINE
  5
1e7
100
AcDbEntity
  8
0
 62
7
100
AcDbLine
 10
159.224880
 20
455.446004
 30
0.0
 11
163.399880
 21
461.947572
 31
0.0
  0
LINE
  5
1e8
100
AcDbEntity
  8
0
 62
7
100
AcDbLine
 10
163.399880
 20
461.947572
 30
0.0
 11
168.043632
 21
468.085068
 31
0.0
  0
LINE
  5
1e9
100
AcDbEntity
  8
0
 62
7
100
AcDbLine
 10
168.043632
 20
468.085068
 30
0.0
 11
173.678008
 21
473.186628
 31
0.0
  0
LINE
  5
1ea
100
AcDbEntity
  8
0
 62
7
100
AcDbLine
 10
173.678008
 20
473.186628
 30
0.0
 11
181.157696
 21
475.788196
 31
0.0
  0
LINE
  5
1eb
100
AcDbEntity
  8
0
 62
7
100
AcDbLine
 10
181.157696
 20
475.788196
 30
0.0
 11
188.712376
 21
478.414756
 31
0.0
  0
LINE
  5
1ec
100
AcDbEntity
  8
0
 62
7
100
AcDbLine
 10
188.712376
 20
478.414756
 30
0.0
 11
196.268632
 21
481.042884
 31
0.0
  0
LINE
  5
1ed
100
AcDbEntity
  8
0
 62
7
100
AcDbLine
 10
196.268632
 20
481.042884
 30
0.0
 11
203.823320
 21
483.669444
 31
0.0
  0
LINE
  5
1ee
100
AcDbEntity
  8
0
 62
7
100
AcDbLine
 10
203.823320
 20
483.669444
 30
0.0
 11
211.378008
 21
486.297572
 31
0.0
  0
LINE
  5
1ef
100
AcDbEntity
  8
0
 62
7
100
AcDbLine
 10
211.378008
 20
486.297572
 30
0.0
 11
218.934256
 21
488.924132
 31
0.0
  0
LINE
  5
1f0
100
AcDbEntity
  8
0
 62
7
100
AcDbLine
 10
218.934256
 20
488.924132
 30
0.0
 11
226.490504
 21
491.552252
 31
0.0
  0
LINE
  5
1f1
100
AcDbEntity
  8
0
 62
7
100
AcDbLine
 10
226.490504
 20
491.552252
 30
0.0
 11
234.045192
 21
494.178820
 31
0.0
  0
LINE
  5
1f2
100
AcDbEntity
  8
0
 62
7
100
AcDbLine
 10
234.045192
 20
494.178820
 30
0.0
 11
241.487384
 21
496.805380
 31
0.0
  0
LINE
  5
1f3
100
AcDbEntity
  8
0
 62
7
100
AcDbLine
 10
241.487384
 20
496.805380
 30
0.0
 11
249.153008
 21
499.433508
 31
0.0
  0
LINE
  5
1f4
100
AcDbEntity
  8
0
 62
7
100
AcDbLine
 10
249.153008
 20
499.433508
 30
0.0
 11
256.709256
 21
502.060068
 31
0.0
  0
LINE
  5
1f5
100
AcDbEntity
  8
0
 62
7
100
AcDbLine
 10
256.709256
 20
502.060068
 30
0.0
 11
264.263944
 21
504.688196
 31
0.0
  0
LINE
  5
1f6
100
AcDbEntity
  8
0
 62
7
100
AcDbLine
 10
264.263944
 20
504.688196
 30
0.0
 11
271.820192
 21
507.314756
 31
0.0
  0
LINE
  5
1f7
100
AcDbEntity
  8
0
 62
7
100
AcDbLine
 10
271.820192
 20
507.314756
 30
0.0
 11
279.374880
 21
509.942884
 31
0.0
  0
LINE
  5
1f8
100
AcDbEntity
  8
0
 62
7
100
AcDbLine
 10
279.374880
 20
509.942884
 30
0.0
 11
286.931128
 21
512.569444
 31
0.0
  0
LINE
  5
1f9
100
AcDbEntity
  8
0
 62
7
100
AcDbLine
 10
286.931128
 20
512.569444
 30
0.0
 11
294.485816
 21
515.197572
 31
0.0
  0
LINE
  5
1fa
100
AcDbEntity
  8
0
 62
7
100
AcDbLine
 10
294.485816
 20
515.197572
 30
0.0
 11
302.042064
 21
517.824132
 31
0.0
  0
LINE
  5
1fb
100
AcDbEntity
  8
0
 62
7
100
AcDbLine
 10
302.042064
 20
517.824132
 30
0.0
 11
309.596752
 21
520.452252
 31
0.0
  0
LINE
  5
1fc
100
AcDbEntity
  8
0
 62
7
100
AcDbLine
 10
309.596752
 20
520.452252
 30
0.0
 11
309.465504
 21
520.830380
 31
0.0
  0
LINE
  5
1fd
100
AcDbEntity
  8
0
 62
7
100
AcDbLine
 10
309.465504
 20
520.830380
 30
0.0
 11
309.465504
 21
521.230380
 31
0.0
  0
LINE
  5
1fe
100
AcDbEntity
  8
0
 62
7
100
AcDbLine
 10
309.465504
 20
521.230380
 30
0.0
 11
309.681128
 21
520.492884
 31
0.0
  0
LINE
  5
1ff
100
AcDbEntity
  8
0
 62
7
100
AcDbLine
 10
309.681128
 20
520.492884
 30
0.0
 11
315.123320
 21
523.986628
 31
0.0
  0
LINE
  5
200
100
AcDbEntity
  8
0
 62
7
100
AcDbLine
 10
315.123320
 20
523.986628
 30
0.0
 11
321.021752
 21
526.511628
 31
0.0
  0
LINE
  5
201
100
AcDbEntity
  8
0
 62
7
100
AcDbLine
 10
321.021752
 20
526.511628
 30
0.0
 11
327.299880
 21
527.558508
 31
0.0
  0
LINE
  5
202
100
AcDbEntity
  8
0
 62
7
100
AcDbLine
 10
327.299880
 20
527.558508
 30
0.0
 11
327.299888
 21
527.558516
 31
0.0
  0
ENDSEC
  0
SECTION
  2
OBJECTS
  0
DICTIONARY
  5
C
330
0
100
AcDbDictionary
  3
ACAD_GROUP
350
D
  3
ACAD_MLINESTYLE
350
17
  0
DICTIONARY
  5
D
330
C
100
AcDbDictionary
  0
DICTIONARY
  5
1A
330
C
100
AcDbDictionary
  0
DICTIONARY
  5
17
330
C
100
AcDbDictionary
  3
STANDARD
350
18
  0
DICTIONARY
  5
19
330
C
100
AcDbDictionary
  0
ENDSEC
  0
EOF
