  0
SECTION
  2
HEADER
  9
$ACADVER
  1
AC1014
  9
$HANDSEED
  5
FFFF
  9
$MEASUREMENT
 70
     1
  0
ENDSEC
  0
SECTION
  2
TABLES
  0
TABLE
  2
VPORT
  5
8
330
0
100
AcDbSymbolTable
 70
     4
  0
VPORT
  5
2E
330
8
100
AcDbSymbolTableRecord
100
AcDbViewportTableRecord
  2
*ACTIVE
 70
     0
 10
0.0
 20
0.0
 11
1.0
 21
1.0
 12
210.0
 22
148.5
 13
0.0
 23
0.0
 14
10.0
 24
10.0
 15
10.0
 25
10.0
 16
0.0
 26
0.0
 36
1.0
 17
0.0
 27
0.0
 37
0.0
 40
341.0
 41
1.24
 42
50.0
 43
0.0
 44
0.0
 50
0.0
 51
0.0
 71
     0
 72
   100
 73
     1
 74
     3
 75
     0
 76
     0
 77
     0
 78
     0
  0
ENDTAB
  0
TABLE
  2
LTYPE
  5
5
330
0
100
AcDbSymbolTable
 70
     1
  0
LTYPE
  5
14
330
5
100
AcDbSymbolTableRecord
100
AcDbLinetypeTableRecord
  2
BYBLOCK
 70
     0
  3

 72
    65
 73
     0
 40
0.0
  0
LTYPE
  5
15
330
5
100
AcDbSymbolTableRecord
100
AcDbLinetypeTableRecord
  2
BYLAYER
 70
     0
  3

 72
    65
 73
     0
 40
0.0
  0
LTYPE
  5
16
330
5
100
AcDbSymbolTableRecord
100
AcDbLinetypeTableRecord
  2
CONTINUOUS
 70
     0
  3
Solid line
 72
    65
 73
     0
 40
0.0
  0
ENDTAB
  0
TABLE
  2
LAYER
  5
2
100
AcDbSymbolTable
 70
1
  0
LAYER
  5
50
100
AcDbSymbolTableRecord
100
AcDbLayerTableRecord
  2
0
 70
0
  6
CONTINUOUS
  0
ENDTAB
  0
TABLE
  2
STYLE
  5
3
330
0
100
AcDbSymbolTable
 70
     1
  0
STYLE
  5
11
330
3
100
AcDbSymbolTableRecord
100
AcDbTextStyleTableRecord
  2
STANDARD
 70
     0
 40
0.0
 41
1.0
 50
0.0
 71
     0
 42
2.5
  3
txt
  4

  0
ENDTAB
  0
TABLE
  2
VIEW
  5
6
330
0
100
AcDbSymbolTable
 70
     0
  0
ENDTAB
  0
TABLE
  2
UCS
  5
7
330
0
100
AcDbSymbolTable
 70
     0
  0
ENDTAB
  0
TABLE
  2
APPID
  5
9
330
0
100
AcDbSymbolTable
 70
     2
  0
APPID
  5
12
330
9
100
AcDbSymbolTableRecord
100
AcDbRegAppTableRecord
  2
ACAD
 70
     0
  0
ENDTAB
  0
TABLE
  2
DIMSTYLE
  5
A
330
0
100
AcDbSymbolTable
 70
     1
  0
DIMSTYLE
105
27
330
A
100
AcDbSymbolTableRecord
100
AcDbDimStyleTableRecord
  2
ISO-25
 70
     0
  3

  4

  5

  6

  7

 40
1.0
 41
2.5
 42
0.625
 43
3.75
 44
1.25
 45
0.0
 46
0.0
 47
0.0
 48
0.0
140
2.5
141
2.5
142
0.0
143
0.03937007874016
144
1.0
145
0.0
146
1.0
147
0.625
 71
     0
 72
     0
 73
     0
 74
     0
 75
     0
 76
     0
 77
     1
 78
     8
170
     0
171
     3
172
     1
173
     0
174
     0
175
     0
176
     0
177
     0
178
     0
270
     2
271
     2
272
     2
273
     2
274
     3
340
11
275
     0
280
     0
281
     0
282
     0
283
     0
284
     8
285
     0
286
     0
287
     3
288
     0
  0
ENDTAB
  0
TABLE
  2
BLOCK_RECORD
  5
1
330
0
100
AcDbSymbolTable
 70
     1
  0
BLOCK_RECORD
  5
1F
330
1
100
AcDbSymbolTableRecord
100
AcDbBlockTableRecord
  2
*MODEL_SPACE
  0
BLOCK_RECORD
  5
1B
330
1
100
AcDbSymbolTableRecord
100
AcDbBlockTableRecord
  2
*PAPER_SPACE
  0
ENDTAB
  0
ENDSEC
  0
SECTION
  2
BLOCKS
  0
BLOCK
  5
20
330
1F
100
AcDbEntity
  8
0
100
AcDbBlockBegin
  2
*MODEL_SPACE
 70
     0
 10
0.0
 20
0.0
 30
0.0
  3
*MODEL_SPACE
  1

  0
ENDBLK
  5
21
330
1F
100
AcDbEntity
  8
0
100
AcDbBlockEnd
  0
BLOCK
  5
1C
330
1B
100
AcDbEntity
 67
     1
  8
0
100
AcDbBlockBegin
  2
*PAPER_SPACE
  1

  0
ENDBLK
  5
1D
330
1B
100
AcDbEntity
 67
     1
  8
0
100
AcDbBlockEnd
  0
ENDSEC
  0
SECTION
  2
ENTITIES
  0
LINE
  5
100
100
AcDbEntity
  8
0
 62
7
100
AcDbLine
 10
309.465832
 20
520.830108
 30
0.0
 11
301.910080
 21
518.202604
 31
0.0
  0
LINE
  5
101
100
AcDbEntity
  8
0
 62
7
100
AcDbLine
 10
301.910080
 20
518.202604
 30
0.0
 11
294.355088
 21
515.575364
 31
0.0
  0
LINE
  5
102
100
AcDbEntity
  8
0
 62
7
100
AcDbLine
 10
294.355088
 20
515.575364
 30
0.0
 11
286.799680
 21
512.947980
 31
0.0
  0
LINE
  5
103
100
AcDbEntity
  8
0
 62
7
100
AcDbLine
 10
286.799680
 20
512.947980
 30
0.0
 11
279.244376
 21
510.320636
 31
0.0
  0
LINE
  5
104
100
AcDbEntity
  8
0
 62
7
100
AcDbLine
 10
279.244376
 20
510.320636
 30
0.0
 11
271.688832
 21
507.693204
 31
0.0
  0
LINE
  5
105
100
AcDbEntity
  8
0
 62
7
100
AcDbLine
 10
271.688832
 20
507.693204
 30
0.0
 11
264.133144
 21
505.065724
 31
0.0
  0
LINE
  5
106
100
AcDbEntity
  8
0
 62
7
100
AcDbLine
 10
264.133144
 20
505.065724
 30
0.0
 11
256.577888
 21
502.438396
 31
0.0
  0
LINE
  5
107
100
AcDbEntity
  8
0
 62
7
100
AcDbLine
 10
256.577888
 20
502.438396
 30
0.0
 11
249.022568
 21
499.811044
 31
0.0
  0
LINE
  5
108
100
AcDbEntity
  8
0
 62
7
100
AcDbLine
 10
249.022568
 20
499.811044
 30
0.0
 11
241.356568
 21
497.183972
 31
0.0
  0
LINE
  5
109
100
AcDbEntity
  8
0
 62
7
100
AcDbLine
 10
241.356568
 20
497.183972
 30
0.0
 11
233.913392
 21
494.556852
 31
0.0
  0
LINE
  5
10a
100
AcDbEntity
  8
0
 62
7
100
AcDbLine
 10
233.913392
 20
494.556852
 30
0.0
 11
226.358640
 21
491.929692
 31
0.0
  0
LINE
  5
10b
100
AcDbEntity
  8
0
 62
7
100
AcDbLine
 10
226.358640
 20
491.929692
 30
0.0
 11
218.802536
 21
489.302068
 31
0.0
  0
LINE
  5
10c
100
AcDbEntity
  8
0
 62
7
100
AcDbLine
 10
218.802536
 20
489.302068
 30
0.0
 11
211.246976
 21
486.674628
 31
0.0
  0
LINE
  5
10d
100
AcDbEntity
  8
0
 62
7
100
AcDbLine
 10
211.246976
 20
486.674628
 30
0.0
 11
203.691808
 21
484.047332
 31
0.0
  0
LINE
  5
10e
100
AcDbEntity
  8
0
 62
7
100
AcDbLine
 10
203.691808
 20
484.047332
 30
0.0
 11
196.136824
 21
481.420092
 31
0.0
  0
LINE
  5
10f
100
AcDbEntity
  8
0
 62
7
100
AcDbLine
 10
196.136824
 20
481.420092
 30
0.0
 11
188.581200
 21
478.792636
 31
0.0
  0
LINE
  5
110
100
AcDbEntity
  8
0
 62
7
100
AcDbLine
 10
188.581200
 20
478.792636
 30
0.0
 11
181.025912
 21
476.165300
 31
0.0
  0
LINE
  5
111
100
AcDbEntity
  8
0
 62
7
100
AcDbLine
 10
181.025912
 20
476.165300
 30
0.0
 11
173.469888
 21
473.537700
 31
0.0
  0
LINE
  5
112
100
AcDbEntity
  8
0
 62
7
100
AcDbLine
 10
173.469888
 20
473.537700
 30
0.0
 11
167.747912
 21
468.356532
 31
0.0
  0
LINE
  5
113
100
AcDbEntity
  8
0
 62
7
100
AcDbLine
 10
167.747912
 20
468.356532
 30
0.0
 11
163.071736
 21
462.176700
 31
0.0
  0
LINE
  5
114
100
AcDbEntity
  8
0
 62
7
100
AcDbLine
 10
163.071736
 20
462.176700
 30
0.0
 11
158.883944
 21
455.653780
 31
0.0
  0
LINE
  5
115
100
AcDbEntity
  8
0
 62
7
100
AcDbLine
 10
158.883944
 20
455.653780
 30
0.0
 11
155.000392
 21
448.943660
 31
0.0
  0
LINE
  5
116
100
AcDbEntity
  8
0
 62
7
100
AcDbLine
 10
155.000392
 20
448.943660
 30
0.0
 11
151.337304
 21
442.110844
 31
0.0
  0
LINE
  5
117
100
AcDbEntity
  8
0
 62
7
100
AcDbLine
 10
151.337304
 20
442.110844
 30
0.0
 11
147.848272
 21
435.186316
 31
0.0
  0
LINE
  5
118
100
AcDbEntity
  8
0
 62
7
100
AcDbLine
 10
147.848272
 20
435.186316
 30
0.0
 11
144.507256
 21
428.190548
 31
0.0
  0
LINE
  5
119
100
AcDbEntity
  8
0
 62
7
100
AcDbLine
 10
144.507256
 20
428.190548
 30
0.0
 11
141.297240
 21
421.133500
 31
0.0
  0
LINE
  5
11a
100
AcDbEntity
  8
0
 62
7
100
AcDbLine
 10
141.297240
 20
421.133500
 30
0.0
 11
138.208896
 21
414.022540
 31
0.0
  0
LINE
  5
11b
100
AcDbEntity
  8
0
 62
7
100
AcDbLine
 10
138.208896
 20
414.022540
 30
0.0
 11
135.237680
 21
406.861652
 31
0.0
  0
LINE
  5
11c
100
AcDbEntity
  8
0
 62
7
100
AcDbLine
 10
135.237680
 20
406.861652
 30
0.0
 11
132.383384
 21
399.652724
 31
0.0
  0
LINE
  5
11d
100
AcDbEntity
  8
0
 62
7
100
AcDbLine
 10
132.383384
 20
399.652724
 30
0.0
 11
129.650304
 21
392.396724
 31
0.0
  0
LINE
  5
11e
100
AcDbEntity
  8
0
 62
7
100
AcDbLine
 10
129.650304
 20
392.396724
 30
0.0
 11
127.047880
 21
385.093732
 31
0.0
  0
LINE
  5
11f
100
AcDbEntity
  8
0
 62
7
100
AcDbLine
 10
127.047880
 20
385.093732
 30
0.0
 11
124.591184
 21
377.739860
 31
0.0
  0
LINE
  5
120
100
AcDbEntity
  8
0
 62
7
100
AcDbLine
 10
124.591184
 20
377.739860
 30
0.0
 11
122.305904
 21
370.331772
 31
0.0
  0
LINE
  5
121
100
AcDbEntity
  8
0
 62
7
100
AcDbLine
 10
122.305904
 20
370.331772
 30
0.0
 11
120.233152
 21
362.860156
 31
0.0
  0
LINE
  5
122
100
AcDbEntity
  8
0
 62
7
100
AcDbLine
 10
120.233152
 20
362.860156
 30
0.0
 11
118.447104
 21
355.316348
 31
0.0
  0
LINE
  5
123
100
AcDbEntity
  8
0
 62
7
100
AcDbLine
 10
118.447104
 20
355.316348
 30
0.0
 11
117.094824
 21
347.683468
 31
0.0
  0
LINE
  5
124
100
AcDbEntity
  8
0
 62
7
100
AcDbLine
 10
117.094824
 20
347.683468
 30
0.0
 11
116.557560
 21
339.956068
 31
0.0
  0
LINE
  5
125
100
AcDbEntity
  8
0
 62
7
100
AcDbLine
 10
116.557560
 20
339.956068
 30
0.0
 11
118.613704
 21
332.653476
 31
0.0
  0
LINE
  5
126
100
AcDbEntity
  8
0
 62
7
100
AcDbLine
 10
118.613704
 20
332.653476
 30
0.0
 11
123.967800
 21
326.723044
 31
0.0
  0
LINE
  5
127
100
AcDbEntity
  8
0
 62
7
100
AcDbLine
 10
123.967800
 20
326.723044
 30
0.0
 11
129.251384
 21
320.727940
 31
0.0
  0
LINE
  5
128
100
AcDbEntity
  8
0
 62
7
100
AcDbLine
 10
129.251384
 20
320.727940
 30
0.0
 11
134.648856
 21
314.836052
 31
0.0
  0
LINE
  5
129
100
AcDbEntity
  8
0
 62
7
100
AcDbLine
 10
134.648856
 20
314.836052
 30
0.0
 11
140.203080
 21
309.090116
 31
0.0
  0
LINE
  5
12a
100
AcDbEntity
  8
0
 62
7
100
AcDbLine
 10
140.203080
 20
309.090116
 30
0.0
 11
145.928352
 21
303.516500
 31
0.0
  0
LINE
  5
12b
100
AcDbEntity
  8
0
 62
7
100
AcDbLine
 10
145.928352
 20
303.516500
 30
0.0
 11
151.833000
 21
298.133332
 31
0.0
  0
LINE
  5
12c
100
AcDbEntity
  8
0
 62
7
100
AcDbLine
 10
151.833000
 20
298.133332
 30
0.0
 11
157.920992
 21
292.957412
 31
0.0
  0
LINE
  5
12d
100
AcDbEntity
  8
0
 62
7
100
AcDbLine
 10
157.920992
 20
292.957412
 30
0.0
 11
164.192760
 21
288.005964
 31
0.0
  0
LINE
  5
12e
100
AcDbEntity
  8
0
 62
7
100
AcDbLine
 10
164.192760
 20
288.005964
 30
0.0
 11
170.647640
 21
283.295380
 31
0.0
  0
LINE
  5
12f
100
AcDbEntity
  8
0
 62
7
100
AcDbLine
 10
170.647640
 20
283.295380
 30
0.0
 11
177.282544
 21
278.842532
 31
0.0
  0
LINE
  5
130
100
AcDbEntity
  8
0
 62
7
100
AcDbLine
 10
177.282544
 20
278.842532
 30
0.0
 11
184.093032
 21
274.663820
 31
0.0
  0
LINE
  5
131
100
AcDbEntity
  8
0
 62
7
100
AcDbLine
 10
184.093032
 20
274.663820
 30
0.0
 11
191.073784
 21
270.774812
 31
0.0
  0
LINE
  5
132
100
AcDbEntity
  8
0
 62
7
100
AcDbLine
 10
191.073784
 20
270.774812
 30
0.0
 11
198.216472
 21
267.191156
 31
0.0
  0
LINE
  5
133
100
AcDbEntity
  8
0
 62
7
100
AcDbLine
 10
198.216472
 20
267.191156
 30
0.0
 11
205.510312
 21
263.927644
 31
0.0
  0
LINE
  5
134
100
AcDbEntity
  8
0
 62
7
100
AcDbLine
 10
205.510312
 20
263.927644
 30
0.0
 11
212.943672
 21
260.997076
 31
0.0
  0
LINE
  5
135
100
AcDbEntity
  8
0
 62
7
100
AcDbLine
 10
212.943672
 20
260.997076
 30
0.0
 11
220.503760
 21
258.410292
 31
0.0
  0
LINE
  5
136
100
AcDbEntity
  8
0
 62
7
100
AcDbLine
 10
220.503760
 20
258.410292
 30
0.0
 11
228.176208
 21
256.176084
 31
0.0
  0
LINE
  5
137
100
AcDbEntity
  8
0
 62
7
100
AcDbLine
 10
228.176208
 20
256.176084
 30
0.0
 11
235.943632
 21
254.301220
 31
0.0
  0
LINE
  5
138
100
AcDbEntity
  8
0
 62
7
100
AcDbLine
 10
235.943632
 20
254.301220
 30
0.0
 11
243.789456
 21
252.789204
 31
0.0
  0
LINE
  5
139
100
AcDbEntity
  8
0
 62
7
100
AcDbLine
 10
243.789456
 20
252.789204
 30
0.0
 11
251.696544
 21
251.640812
 31
0.0
  0
LINE
  5
13a
100
AcDbEntity
  8
0
 62
7
100
AcDbLine
 10
251.696544
 20
251.640812
 30
0.0
 11
259.647224
 21
250.854068
 31
0.0
  0
LINE
  5
13b
100
AcDbEntity
  8
0
 62
7
100
AcDbLine
 10
259.647224
 20
250.854068
 30
0.0
 11
267.625904
 21
250.424204
 31
0.0
  0
LINE
  5
13c
100
AcDbEntity
  8
0
 62
7
100
AcDbLine
 10
267.625904
 20
250.424204
 30
0.0
 11
275.615832
 21
250.344204
 31
0.0
  0
LINE
  5
13d
100
AcDbEntity
  8
0
 62
7
100
AcDbLine
 10
275.615832
 20
250.344204
 30
0.0
 11
283.602696
 21
250.604900
 31
0.0
  0
LINE
  5
13e
100
AcDbEntity
  8
0
 62
7
100
AcDbLine
 10
283.602696
 20
250.604900
 30
0.0
 11
291.430896
 21
251.066788
 31
0.0
  0
LINE
  5
13f
100
AcDbEntity
  8
0
 62
7
100
AcDbLine
 10
291.430896
 20
251.066788
 30
0.0
 11
299.254456
 21
251.618060
 31
0.0
  0
LINE
  5
140
100
AcDbEntity
  8
0
 62
7
100
AcDbLine
 10
299.254456
 20
251.618060
 30
0.0
 11
307.070528
 21
252.266068
 31
0.0
  0
LINE
  5
141
100
AcDbEntity
  8
0
 62
7
100
AcDbLine
 10
307.070528
 20
252.266068
 30
0.0
 11
314.876336
 21
253.019020
 31
0.0
  0
LINE
  5
142
100
AcDbEntity
  8
0
 62
7
100
AcDbLine
 10
314.876336
 20
253.019020
 30
0.0
 11
322.671544
 21
253.886484
 31
0.0
  0
LINE
  5
143
100
AcDbEntity
  8
0
 62
7
100
AcDbLine
 10
322.671544
 20
253.886484
 30
0.0
 11
330.450968
 21
254.878820
 31
0.0
  0
LINE
  5
144
100
AcDbEntity
  8
0
 62
7
100
AcDbLine
 10
330.450968
 20
254.878820
 30
0.0
 11
338.211976
 21
256.008140
 31
0.0
  0
LINE
  5
145
100
AcDbEntity
  8
0
 62
7
100
AcDbLine
 10
338.211976
 20
256.008140
 30
0.0
 11
345.948584
 21
257.287932
 31
0.0
  0
LINE
  5
146
100
AcDbEntity
  8
0
 62
7
100
AcDbLine
 10
345.948584
 20
257.287932
 30
0.0
 11
353.656488
 21
258.734084
 31
0.0
  0
LINE
  5
147
100
AcDbEntity
  8
0
 62
7
100
AcDbLine
 10
353.656488
 20
258.734084
 30
0.0
 11
361.327800
 21
260.364492
 31
0.0
  0
LINE
  5
148
100
AcDbEntity
  8
0
 62
7
100
AcDbLine
 10
361.327800
 20
260.364492
 30
0.0
 11
368.952528
 21
262.199700
 31
0.0
  0
LINE
  5
149
100
AcDbEntity
  8
0
 62
7
100
AcDbLine
 10
368.952528
 20
262.199700
 30
0.0
 11
376.518136
 21
264.263372
 31
0.0
  0
LINE
  5
14a
100
AcDbEntity
  8
0
 62
7
100
AcDbLine
 10
376.518136
 20
264.263372
 30
0.0
 11
384.009304
 21
266.582972
 31
0.0
  0
LINE
  5
14b
100
AcDbEntity
  8
0
 62
7
100
AcDbLine
 10
384.009304
 20
266.582972
 30
0.0
 11
391.405312
 21
269.189852
 31
0.0
  0
LINE
  5
14c
100
AcDbEntity
  8
0
 62
7
100
AcDbLine
 10
391.405312
 20
269.189852
 30
0.0
 11
398.680000
 21
272.119988
 31
0.0
  0
LINE
  5
14d
100
AcDbEntity
  8
0
 62
7
100
AcDbLine
 10
398.680000
 20
272.119988
 30
0.0
 11
405.796216
 21
275.412540
 31
0.0
  0
LINE
  5
14e
100
AcDbEntity
  8
0
 62
7
100
AcDbLine
 10
405.796216
 20
275.412540
 30
0.0
 11
412.710520
 21
279.112140
 31
0.0
  0
LINE
  5
14f
100
AcDbEntity
  8
0
 62
7
100
AcDbLine
 10
412.710520
 20
279.112140
 30
0.0
 11
419.362880
 21
283.263612
 31
0.0
  0
LINE
  5
150
100
AcDbEntity
  8
0
 62
7
100
AcDbLine
 10
419.362880
 20
283.263612
 30
0.0
 11
425.678416
 21
287.909556
 31
0.0
  0
LINE
  5
151
100
AcDbEntity
  8
0
 62
7
100
AcDbLine
 10
425.678416
 20
287.909556
 30
0.0
 11
431.567952
 21
293.084892
 31
0.0
  0
LINE
  5
152
100
AcDbEntity
  8
0
 62
7
100
AcDbLine
 10
431.567952
 20
293.084892
 30
0.0
 11
436.927888
 21
298.804724
 31
0.0
  0
LINE
  5
153
100
AcDbEntity
  8
0
 62
7
100
AcDbLine
 10
436.927888
 20
298.804724
 30
0.0
 11
441.654112
 21
305.058460
 31
0.0
  0
LINE
  5
154
100
AcDbEntity
  8
0
 62
7
100
AcDbLine
 10
441.654112
 20
305.058460
 30
0.0
 11
445.653352
 21
311.798876
 31
0.0
  0
LINE
  5
155
100
AcDbEntity
  8
0
 62
7
100
AcDbLine
 10
445.653352
 20
311.798876
 30
0.0
 11
448.864456
 21
318.949244
 31
0.0
  0
LINE
  5
156
100
AcDbEntity
  8
0
 62
7
100
AcDbLine
 10
448.864456
 20
318.949244
 30
0.0
 11
451.267184
 21
326.410652
 31
0.0
  0
LINE
  5
157
100
AcDbEntity
  8
0
 62
7
100
AcDbLine
 10
451.267184
 20
326.410652
 30
0.0
 11
453.125936
 21
333.854036
 31
0.0
  0
LINE
  5
158
100
AcDbEntity
  8
0
 62
7
100
AcDbLine
 10
453.125936
 20
333.854036
 30
0.0
 11
454.804320
 21
341.340324
 31
0.0
  0
LINE
  5
159
100
AcDbEntity
  8
0
 62
7
100
AcDbLine
 10
454.804320
 20
341.340324
 30
0.0
 11
456.322536
 21
348.860788
 31
0.0
  0
LINE
  5
15a
100
AcDbEntity
  8
0
 62
7
100
AcDbLine
 10
456.322536
 20
348.860788
 30
0.0
 11
457.691360
 21
356.410044
 31
0.0
  0
LINE
  5
15b
100
AcDbEntity
  8
0
 62
7
100
AcDbLine
 10
457.691360
 20
356.410044
 30
0.0
 11
458.915504
 21
363.983356
 31
0.0
  0
LINE
  5
15c
100
AcDbEntity
  8
0
 62
7
100
AcDbLine
 10
458.915504
 20
363.983356
 30
0.0
 11
459.995744
 21
371.578484
 31
0.0
  0
LINE
  5
15d
100
AcDbEntity
  8
0
 62
7
100
AcDbLine
 10
459.995744
 20
371.578484
 30
0.0
 11
460.929432
 21
379.193676
 31
0.0
  0
LINE
  5
15e
100
AcDbEntity
  8
0
 62
7
100
AcDbLine
 10
460.929432
 20
379.193676
 30
0.0
 11
461.710576
 21
386.824828
 31
0.0
  0
LINE
  5
15f
100
AcDbEntity
  8
0
 62
7
100
AcDbLine
 10
461.710576
 20
386.824828
 30
0.0
 11
462.330504
 21
394.471300
 31
0.0
  0
LINE
  5
160
100
AcDbEntity
  8
0
 62
7
100
AcDbLine
 10
462.330504
 20
394.471300
 30
0.0
 11
462.777040
 21
402.130828
 31
0.0
  0
LINE
  5
161
100
AcDbEntity
  8
0
 62
7
100
AcDbLine
 10
462.777040
 20
402.130828
 30
0.0
 11
463.034008
 21
409.798756
 31
0.0
  0
LINE
  5
162
100
AcDbEntity
  8
0
 62
7
100
AcDbLine
 10
463.034008
 20
409.798756
 30
0.0
 11
463.080568
 21
417.469948
 31
0.0
  0
LINE
  5
163
100
AcDbEntity
  8
0
 62
7
100
AcDbLine
 10
463.080568
 20
417.469948
 30
0.0
 11
462.889912
 21
425.139028
 31
0.0
  0
LINE
  5
164
100
AcDbEntity
  8
0
 62
7
100
AcDbLine
 10
462.889912
 20
425.139028
 30
0.0
 11
462.427040
 21
432.796780
 31
0.0
  0
LINE
  5
165
100
AcDbEntity
  8
0
 62
7
100
AcDbLine
 10
462.427040
 20
432.796780
 30
0.0
 11
461.646224
 21
440.427764
 31
0.0
  0
LINE
  5
166
100
AcDbEntity
  8
0
 62
7
100
AcDbLine
 10
461.646224
 20
440.427764
 30
0.0
 11
460.486464
 21
448.010340
 31
0.0
  0
LINE
  5
167
100
AcDbEntity
  8
0
 62
7
100
AcDbLine
 10
460.486464
 20
448.010340
 30
0.0
 11
458.865400
 21
455.508084
 31
0.0
  0
LINE
  5
168
100
AcDbEntity
  8
0
 62
7
100
AcDbLine
 10
458.865400
 20
455.508084
 30
0.0
 11
456.671008
 21
462.857492
 31
0.0
  0
LINE
  5
169
100
AcDbEntity
  8
0
 62
7
100
AcDbLine
 10
456.671008
 20
462.857492
 30
0.0
 11
453.751336
 21
469.948180
 31
0.0
  0
LINE
  5
16a
100
AcDbEntity
  8
0
 62
7
100
AcDbLine
 10
453.751336
 20
469.948180
 30
0.0
 11
449.911880
 21
476.581156
 31
0.0
  0
LINE
  5
16b
100
AcDbEntity
  8
0
 62
7
100
AcDbLine
 10
449.911880
 20
476.581156
 30
0.0
 11
444.948920
 21
482.412972
 31
0.0
  0
LINE
  5
16c
100
AcDbEntity
  8
0
 62
7
100
AcDbLine
 10
444.948920
 20
482.412972
 30
0.0
 11
438.781496
 21
486.940476
 31
0.0
  0
LINE
  5
16d
100
AcDbEntity
  8
0
 62
7
100
AcDbLine
 10
438.781496
 20
486.940476
 30
0.0
 11
431.750528
 21
490.633620
 31
0.0
  0
LINE
  5
16e
100
AcDbEntity
  8
0
 62
7
100
AcDbLine
 10
431.750528
 20
490.633620
 30
0.0
 11
424.607272
 21
494.105460
 31
0.0
  0
LINE
  5
16f
100
AcDbEntity
  8
0
 62
7
100
AcDbLine
 10
424.607272
 20
494.105460
 30
0.0
 11
417.383312
 21
497.405252
 31
0.0
  0
LINE
  5
170
100
AcDbEntity
  8
0
 62
7
100
AcDbLine
 10
417.383312
 20
497.405252
 30
0.0
 11
410.096168
 21
500.565100
 31
0.0
  0
LINE
  5
171
100
AcDbEntity
  8
0
 62
7
100
AcDbLine
 10
410.096168
 20
500.565100
 30
0.0
 11
402.757816
 21
503.606164
 31
0.0
  0
LINE
  5
172
100
AcDbEntity
  8
0
 62
7
100
AcDbLine
 10
402.757816
 20
503.606164
 30
0.0
 11
395.377760
 21
506.542316
 31
0.0
  0
LINE
  5
173
100
AcDbEntity
  8
0
 62
7
100
AcDbLine
 10
395.377760
 20
506.542316
 30
0.0
 11
387.960112
 21
509.383900
 31
0.0
  0
LINE
  5
174
100
AcDbEntity
  8
0
 62
7
100
AcDbLine
 10
387.960112
 20
509.383900
 30
0.0
 11
380.510120
 21
512.136444
 31
0.0
  0
LINE
  5
175
100
AcDbEntity
  8
0
 62
7
100
AcDbLine
 10
380.510120
 20
512.136444
 30
0.0
 11
373.028416
 21
514.803388
 31
0.0
  0
LINE
  5
176
100
AcDbEntity
  8
0
 62
7
100
AcDbLine
 10
373.028416
 20
514.803388
 30
0.0
 11
365.516960
 21
517.383724
 31
0.0
  0
LINE
  5
177
100
AcDbEntity
  8
0
 62
7
100
AcDbLine
 10
365.516960
 20
517.383724
 30
0.0
 11
357.974880
 21
519.872364
 31
0.0
  0
LINE
  5
178
100
AcDbEntity
  8
0
 62
7
100
AcDbLine
 10
357.974880
 20
519.872364
 30
0.0
 11
350.397928
 21
522.257148
 31
0.0
  0
LINE
  5
179
100
AcDbEntity
  8
0
 62
7
100
AcDbLine
 10
350.397928
 20
522.257148
 30
0.0
 11
342.780744
 21
524.509388
 31
0.0
  0
LINE
  5
17a
100
AcDbEntity
  8
0
 62
7
100
AcDbLine
 10
342.780744
 20
524.509388
 30
0.0
 11
335.106688
 21
526.554660
 31
0.0
  0
LINE
  5
17b
100
AcDbEntity
  8
0
 62
7
100
AcDbLine
 10
335.106688
 20
526.554660
 30
0.0
 11
327.302448
 21
527.964764
 31
0.0
  0
LINE
  5
17c
100
AcDbEntity
  8
0
 62
7
100
AcDbLine
 10
327.302448
 20
527.964764
 30
0.0
 11
320.907928
 21
526.899044
 31
0.0
  0
LINE
  5
17d
100
AcDbEntity
  8
0
 62
7
100
AcDbLine
 10
320.907928
 20
526.899044
 30
0.0
 11
314.934896
 21
524.341316
 31
0.0
  0
LINE
  5
17e
100
AcDbEntity
  8
0
 62
7
100
AcDbLine
 10
314.934896
 20
524.341316
 30
0.0
 11
309.465800
 21
520.830108
 31
0.0
  0
LINE
  5
17f
100
AcDbEntity
  8
0
 62
7
100
AcDbLine
 10
309.465800
 20
520.830108
 30
0.0
 11
309.465800
 21
520.830108
 31
0.0
  0
ENDSEC
  0
SECTION
  2
OBJECTS
  0
DICTIONARY
  5
C
330
0
100
AcDbDictionary
  3
ACAD_GROUP
350
D
  3
ACAD_MLINESTYLE
350
17
  0
DICTIONARY
  5
D
330
C
100
AcDbDictionary
  0
DICTIONARY
  5
1A
330
C
100
AcDbDictionary
  0
DICTIONARY
  5
17
330
C
100
AcDbDictionary
  3
STANDARD
350
18
  0
DICTIONARY
  5
19
330
C
100
AcDbDictionary
  0
ENDSEC
  0
EOF
