<?xml version="1.0" encoding="UTF-8" standalone="no"?>
<svg
   xmlns:dc="http://purl.org/dc/elements/1.1/"
   xmlns:cc="http://creativecommons.org/ns#"
   xmlns:rdf="http://www.w3.org/1999/02/22-rdf-syntax-ns#"
   xmlns:svg="http://www.w3.org/2000/svg"
   xmlns="http://www.w3.org/2000/svg"
   xmlns:sodipodi="http://sodipodi.sourceforge.net/DTD/sodipodi-0.dtd"
   xmlns:inkscape="http://www.inkscape.org/namespaces/inkscape"
   id="svg4208"
   width="588.42px"
   height="568.88px"
   version="1.1"
   inkscape:version="0.91 r13725"
   sodipodi:docname="Phi-symbol.svg">
  <sodipodi:namedview
     pagecolor="#ffffff"
     bordercolor="#666666"
     borderopacity="1"
     objecttolerance="10"
     gridtolerance="10"
     guidetolerance="10"
     inkscape:pageopacity="0"
     inkscape:pageshadow="2"
     inkscape:window-width="1366"
     inkscape:window-height="716"
     id="namedview8"
     showgrid="false"
     inkscape:zoom="0.58668682"
     inkscape:cx="70.822699"
     inkscape:cy="148.14914"
     inkscape:window-x="0"
     inkscape:window-y="25"
     inkscape:window-maximized="1"
     inkscape:current-layer="svg4208" />
  <metadata
     id="metadata4216">
    <rdf:RDF>
      <cc:Work
         rdf:about="">
        <dc:format>image/svg+xml</dc:format>
        <dc:type
           rdf:resource="http://purl.org/dc/dcmitype/StillImage" />
        <dc:title></dc:title>
      </cc:Work>
    </rdf:RDF>
  </metadata>
  <defs
     id="defs4214" />
  <path
     style="fill:#000000;fill-opacity:1;fill-rule:evenodd;stroke:#000000;stroke-width:2;stroke-linecap:butt;stroke-linejoin:miter;stroke-miterlimit:4;stroke-dasharray:none;stroke-opacity:1"
     d="m 230.20312,136.19336 -79.54687,1.20508 -92.804688,-61.466799 0,210.917969 0,518.25977 142.220708,231.41012 62.67382,0 L 403.75977,805.10938 402.55469,272.38672 401.34961,57.851562 C 333.73659,128.10004 285.23805,125.72156 230.20312,136.19336 Z m -119.14062,108.0625 30,0 0,535.15039 L 231.72461,927 l 87.35547,-144.13672 0,-532.72266 30,0 0,541.10352 L 231.89648,984.59766 111.0625,787.88477 Z"
     id="path4758"
     inkscape:connector-curvature="0"
     sodipodi:nodetypes="cccccccccccccccccccccc" />
  <g
     id="g4200"
     transform="translate(814.75187,-214.53526)"
     style="fill:#ff0000;fill-opacity:1">
    <path
       style="fill:#ff0000;fill-opacity:1"
       d="m -579.28618,613.8985 c -6.66698,-1.06056 -11.07287,-2.48658 -17.58838,-5.69268 -13.20994,-6.50028 -19.4712,-13.7376 -23.46096,-27.11826 -1.3798,-4.62756 -1.61187,-6.66444 -1.86673,-16.3845 -0.35733,-13.6278 0.83508,-26.17812 5.58661,-58.8 6.46589,-44.39189 7.92855,-55.65283 10.40404,-80.10001 1.51685,-14.98001 3.02722,-34.30755 3.03281,-38.80956 0.005,-3.95282 0.22808,-3.81121 -6.89577,-4.37566 -10.9189,-0.86515 -28.03804,-3.49896 -39.37776,-6.05835 -39.42775,-8.89892 -71.79272,-25.38144 -96.37972,-49.08335 -36.4709,-35.15801 -60.31453,-85.39181 -69.09671,-145.57308 -2.82958,-19.39017 -3.32684,-27.79566 -3.33655,-56.4 -0.01,-29.337838 0.49717,-37.150541 3.61111,-55.632935 5.02507,-29.825587 14.6217,-51.718802 29.63471,-67.6069759 13.25602,-14.0287501 30.76247,-21.2377871 48.26192,-19.8739211 17.86666,1.392485 27.39993,9.4611848 30.14492,25.5138252 3.29044,19.2425108 -5.39066,36.1788188 -38.13548,74.4000018 -15.68323,18.306165 -24.83182,31.631025 -32.7499,47.700005 -10.03768,20.37053 -13.81349,38.5259 -12.29477,59.11745 2.31095,31.33306 12.68149,57.15074 33.25241,82.78255 5.48924,6.83971 19.81348,20.91953 25.76659,25.32693 17.03603,12.61264 37.20263,21.04528 59.79923,25.00497 14.50675,2.54208 18.13808,2.76988 43.21559,2.71115 16.46592,-0.0386 24.71461,-0.27051 25.55163,-0.71846 1.23591,-0.66144 1.23607,-0.66929 1.64618,-84.24305 0.39297,-80.07863 0.63436,-101.94508 1.30022,-117.78154 1.53768,-36.571205 12.7456,-76.73181 27.21005,-97.500006 16.14034,-23.174467 38.56439,-36.664585 68.47634,-41.194795 9.35866,-1.417383 29.40327,-1.426027 39,-0.01682 30.49005,4.477241 53.52341,17.48087342 70.87266,40.011612 17.37806,22.568155 29.49032,54.190669 33.78296,88.200009 3.11376,24.66943 2.88796,55.90888 -0.57576,79.65707 -4.6575,31.93316 -15.40532,63.5238 -30.77062,90.44293 -3.91308,6.85549 -9.1403,21.0311 -13.49387,26.78128 -4.95573,6.54552 -18.59216,20.1449 -25.66968,25.60131 -21.31302,16.43125 -47.21265,28.71857 -78.9,37.43179 -14.78892,4.06658 -16.66747,5.93915 -32.5056,7.89219 -6.24041,0.76952 -10.37245,1.39537 -11.92588,3.00873 -3.15797,3.27979 -4.41501,9.68459 -3.88628,13.47959 4.75128,34.10279 5.71498,69.12664 18.94279,105.01023 16.05181,43.54431 20.05579,62.45714 18.27389,75.63218 -0.77643,5.7408 -6.8758,11.97475 -9.20374,15.94711 -5.67412,9.68214 -15.86321,17.23422 -27.22353,20.17782 -5.30616,1.3749 -17.14846,1.97322 -22.42897,1.13322 z m 63.43499,-299.35206 c 27.75589,-7.75461 22.43246,-4.87056 42.34363,-18.45631 25.5118,-17.40717 41.81241,-31.31011 59.11001,-54.50022 23.47793,-31.4758 27.39106,-41.10404 32.0846,-71.5984 1.50537,-9.78057 0.63735,-45.18637 -0.58143,-53.18846 -3.52114,-23.118616 -12.26317,-41.663129 -27.09935,-57.485969 -7.96262,-8.492167 -16.02527,-14.331643 -26.98082,-19.541197 -12.44011,-5.915496 -26.07983,-8.905128 -43.31331,-9.493674 -28.49541,-0.973152 -32.58652,5.924848 -50.12274,21.443332 -16.43568,14.544571 -12.2399,39.491228 -14.80598,87.271988 -0.79144,14.73683 -6.9882,177.67492 -6.9882,177.67492 5.99748,7.14487 29.4997,-0.21113 36.35359,-2.12601 z"
       id="path4202"
       inkscape:connector-curvature="0"
       sodipodi:nodetypes="sssssscsssssssssssssssssssssssssssssssssssssssssssssssss" />
  </g>
</svg>
