<?xml version="1.0" encoding="UTF-8" standalone="no"?>
<svg
   xmlns:dc="http://purl.org/dc/elements/1.1/"
   xmlns:cc="http://creativecommons.org/ns#"
   xmlns:rdf="http://www.w3.org/1999/02/22-rdf-syntax-ns#"
   xmlns:svg="http://www.w3.org/2000/svg"
   xmlns="http://www.w3.org/2000/svg"
   xmlns:sodipodi="http://sodipodi.sourceforge.net/DTD/sodipodi-0.dtd"
   xmlns:inkscape="http://www.inkscape.org/namespaces/inkscape"
   id="svg4208"
   width="588.42px"
   height="568.88px"
   version="1.1"
   inkscape:version="0.91 r13725"
   sodipodi:docname="Pi-symbol.svg">
  <sodipodi:namedview
     pagecolor="#ffffff"
     bordercolor="#666666"
     borderopacity="1"
     objecttolerance="10"
     gridtolerance="10"
     guidetolerance="10"
     inkscape:pageopacity="0"
     inkscape:pageshadow="2"
     inkscape:window-width="1366"
     inkscape:window-height="716"
     id="namedview8"
     showgrid="false"
     inkscape:zoom="0.41485023"
     inkscape:cx="294.20999"
     inkscape:cy="188.01966"
     inkscape:window-x="0"
     inkscape:window-y="25"
     inkscape:window-maximized="1"
     inkscape:current-layer="svg4208" />
  <metadata
     id="metadata4216">
    <rdf:RDF>
      <cc:Work
         rdf:about="">
        <dc:format>image/svg+xml</dc:format>
        <dc:type
           rdf:resource="http://purl.org/dc/dcmitype/StillImage" />
        <dc:title />
      </cc:Work>
    </rdf:RDF>
  </metadata>
  <defs
     id="defs4214" />
  <path
     id="path4210"
     d="m -44.942009,-42.317873 20.675245,1.5315 C -2.8257704,-65.035113 5.5974756,-136.76035 131.94619,-122.7216 127.35169,184.59933 -7.4202694,217.01607 1.0029796,280.0628 4.0659786,315.79779 32.398722,337.74929 63.028715,339.02554 159.76844,335.70729 155.42919,205.27457 185.54868,-123.48735 l 124.81722,0 c -6.6365,115.8834669 -24.75924,231.76694 -26.80124,345.35316 1.5315,75.55398 47.47649,115.88348 107.97072,116.39398 99.54748,3.31825 130.94322,-112.82048 130.94322,-162.33897 l -21.44099,1e-5 c -2.042,40.83999 -21.69625,70.19373 -63.55724,71.98048 -114.09672,1.5315 -51.30524,-200.626453 -50.53949,-369.85716 l 135.53772,0.76575 -0.76575,-86.52974 C -41.634204,-210.44869 29.870589,-221.49289 -44.942009,-42.317873 Z"
     style="fill:#000000;stroke:#000000;stroke-opacity:1;stroke-width:2;stroke-miterlimit:4;stroke-dasharray:none;fill-opacity:0.47488585" />
  <path
     id="path4758"
     d="m 139.80949,31.33661 -81.957286,255.5139 0,518.25933 142.220006,231.40886 62.67322,0 141.01474,-231.40886 -1.20525,-532.72238 -74.72576,-163.91458 0,-265.15593 -172.35136,0 z"
     style="fill:none;fill-rule:evenodd;stroke:#000000;stroke-width:2;stroke-linecap:butt;stroke-linejoin:miter;stroke-miterlimit:4;stroke-dasharray:none;stroke-opacity:1" />
  <path
     id="path4762"
     d="m 111.0625,244.25586 0,543.62891 120.83398,196.71289 117.1836,-193.35352 0,-541.10352 -30,0 0,532.72266 L 231.72461,927 141.0625,779.40625 l 0,-535.15039 -30,0 z"
     style="color:#000000;font-style:normal;font-variant:normal;font-weight:normal;font-stretch:normal;font-size:medium;line-height:normal;font-family:sans-serif;text-indent:0;text-align:start;text-decoration:none;text-decoration-line:none;text-decoration-style:solid;text-decoration-color:#000000;letter-spacing:normal;word-spacing:normal;text-transform:none;direction:ltr;block-progression:tb;writing-mode:lr-tb;baseline-shift:baseline;text-anchor:start;white-space:normal;clip-rule:nonzero;display:inline;overflow:visible;visibility:visible;opacity:1;isolation:auto;mix-blend-mode:normal;color-interpolation:sRGB;color-interpolation-filters:linearRGB;solid-color:#000000;solid-opacity:1;fill:none;fill-opacity:1;fill-rule:evenodd;stroke:#000000;stroke-width:2;stroke-linecap:butt;stroke-linejoin:miter;stroke-miterlimit:4;stroke-dasharray:none;stroke-dashoffset:0;stroke-opacity:1;color-rendering:auto;image-rendering:auto;shape-rendering:auto;text-rendering:auto;enable-background:accumulate" />
</svg>
