999
dxfrw 0.6.3
  0
SECTION
  2
HEADER
  9
$ACADVER
  1
AC1009
  9
$DWGCODEPAGE
  3
ANSI_1252
  9
$INSBASE
 10
0
 20
0
 30
0
  9
$EXTMIN
 10
-2.926654094722342
 20
-0.6938666659680504
 30
0
  9
$EXTMAX
 10
0.9888430701356583
 20
2.850199809678998
 30
0
  9
$LIMMIN
 10
0
 20
0
  9
$LIMMAX
 10
420
 20
297
  9
$ORTHOMODE
 70
    0
  9
$REGENMODE
 70
    1
  9
$FILLMODE
 70
    1
  9
$QTEXTMODE
 70
    0
  9
$MIRRTEXT
 70
    0
  9
$DRAGMODE
 70
    2
  9
$LTSCALE
 40
1
  9
$OSMODE
 70
    0
  9
$ATTMODE
 70
    1
  9
$TEXTSIZE
 40
2.5
  9
$TRACEWID
 40
1
  9
$TEXTSTYLE
  7
STANDARD
  9
$CLAYER
  8
0
  9
$CELTYPE
  6
BYLAYER
  9
$CECOLOR
 62
  178
  9
$DIMSCALE
 40
1
  9
$DIMASZ
 40
2.5
  9
$DIMEXO
 40
0.625
  9
$DIMDLI
 40
3.75
  9
$DIMRND
 40
0
  9
$DIMDLE
 40
0
  9
$DIMEXE
 40
1.25
  9
$DIMTP
 40
0
  9
$DIMTM
 40
0
  9
$DIMTXT
 40
2.5
  9
$DIMCEN
 40
2.5
  9
$DIMTSZ
 40
0
  9
$DIMTOL
 70
    0
  9
$DIMLIM
 70
    0
  9
$DIMTIH
 70
    0
  9
$DIMTOH
 70
    0
  9
$DIMSE1
 70
    0
  9
$DIMSE2
 70
    0
  9
$DIMTAD
 70
    1
  9
$DIMZIN
 70
    8
  9
$DIMBLK
  1

  9
$DIMASO
 70
    1
  9
$DIMSHO
 70
    1
  9
$DIMPOST
  1

  9
$DIMAPOST
  1

  9
$DIMALT
 70
    0
  9
$DIMALTD
 70
    3
  9
$DIMALTF
 40
0.03937007874016
  9
$DIMLFAC
 40
1
  9
$DIMTOFL
 70
    1
  9
$DIMTVP
 40
0
  9
$DIMTIX
 70
    0
  9
$DIMSOXD
 70
    0
  9
$DIMSAH
 70
    0
  9
$DIMBLK1
  1

  9
$DIMBLK2
  1

  9
$DIMSTYLE
  2
STANDARD
  9
$DIMCLRD
 70
  178
  9
$DIMCLRE
 70
  178
  9
$DIMCLRT
 70
  178
  9
$DIMTFAC
 40
1
  9
$DIMGAP
 40
0.625
  9
$LUNITS
 70
    2
  9
$LUPREC
 70
    4
  9
$SKETCHINC
 40
1
  9
$FILLETRAD
 40
0
  9
$AUNITS
 70
    0
  9
$AUPREC
 70
    0
  9
$MENU
  1
.
  9
$ELEVATION
 40
0
  9
$PELEVATION
 40
0
  9
$THICKNESS
 40
0
  9
$LIMCHECK
 70
    0
  9
$BLIPMODE
 70
    0
  9
$CHAMFERA
 40
0
  9
$CHAMFERB
 40
0
  9
$SKPOLY
 70
    0
  9
$USRTIMER
 70
    1
  9
$ANGBASE
 50
0
  9
$ANGDIR
 70
    0
  9
$PDMODE
 70
    0
  9
$PDSIZE
 40
0
  9
$PLINEWID
 40
0
  9
$COORDS
 70
    2
  9
$SPLFRAME
 70
    0
  9
$SPLINETYPE
 70
    6
  9
$SPLINESEGS
 70
    8
  9
$ATTDIA
 70
    1
  9
$ATTREQ
 70
    1
  9
$HANDLING
 70
    1
  9
$HANDSEED
  5
20000
  9
$SURFTAB1
 70
    6
  9
$SURFTAB2
 70
    6
  9
$SURFTYPE
 70
    6
  9
$SURFU
 70
    6
  9
$SURFV
 70
    6
  9
$UCSNAME
  2

  9
$UCSORG
 10
0
 20
0
 30
0
  9
$UCSXDIR
 10
1
 20
0
 30
0
  9
$UCSYDIR
 10
0
 20
1
 30
0
  9
$PUCSNAME
  2

  9
$PUCSORG
 10
0
 20
0
 30
0
  9
$PUCSXDIR
 10
1
 20
0
 30
0
  9
$PUCSYDIR
 10
0
 20
1
 30
0
  9
$USERI1
 70
    0
  9
$USERI2
 70
    0
  9
$USERI3
 70
    0
  9
$USERI4
 70
    0
  9
$USERI5
 70
    0
  9
$USERR1
 40
0
  9
$USERR2
 40
0
  9
$USERR3
 40
0
  9
$USERR4
 40
0
  9
$USERR5
 40
0
  9
$WORLDVIEW
 70
    1
  9
$SHADEDGE
 70
    3
  9
$SHADEDIF
 70
   70
  9
$TILEMODE
 70
    1
  9
$MAXACTVP
 70
   64
  9
$PLIMCHECK
 70
    0
  9
$PEXTMIN
 10
0
 20
0
 30
0
  9
$PEXTMAX
 10
0
 20
0
 30
0
  9
$GRIDMODE
 70
    1
  9
$SNAPSTYLE
 70
    0
  9
$PLIMMIN
 10
-0.25
 20
-0.25
  9
$PLIMMAX
 10
10.75
 20
8.25
  9
$UNITMODE
 70
    0
  9
$VISRETAIN
 70
    1
  9
$PLINEGEN
 70
    0
  9
$PSLTSCALE
 70
    1
  0
ENDSEC
  0
SECTION
  2
TABLES
  0
TABLE
  2
VPORT
 70
    1
  0
VPORT
  2
*ACTIVE
 70
    0
 10
0
 20
0
 11
1
 21
1
 12
3.132929631860052
 22
2.114283324336557
 13
0
 23
0
 14
10
 24
10
 15
10
 25
10
 16
0
 26
0
 36
1
 17
0
 27
0
 37
0
 40
5.709157211934007
 41
2.257261410788382
 42
50
 43
0
 44
0
 50
0
 51
0
 71
    0
 72
  100
 73
    1
 74
    3
 75
    0
 76
    1
 77
    0
 78
    0
  0
ENDTAB
  0
TABLE
  2
LTYPE
 70
    4
  0
LTYPE
  2
BYBLOCK
 70
    0
  3

 72
   65
 73
    0
 40
0
  0
LTYPE
  2
BYLAYER
 70
    0
  3

 72
   65
 73
    0
 40
0
  0
LTYPE
  2
CONTINUOUS
 70
    0
  3
Solid line
 72
   65
 73
    0
 40
0
  0
LTYPE
  2
DOT
 70
    0
  3
Dot . . . . . . . . . . . . . . . . . . . . . .
 72
   65
 73
    2
 40
6.35
 49
0
 49
-6.35
  0
LTYPE
  2
DOTTINY
 70
    0
  3
Dot (.15x) .....................................
 72
   65
 73
    2
 40
0.9525
 49
0
 49
-0.9525
  0
LTYPE
  2
DOT2
 70
    0
  3
Dot (.5x) .....................................
 72
   65
 73
    2
 40
3.175
 49
0
 49
-3.175
  0
LTYPE
  2
DOTX2
 70
    0
  3
Dot (2x) .  .  .  .  .  .  .  .  .  .  .  .  .
 72
   65
 73
    2
 40
12.7
 49
0
 49
-12.7
  0
LTYPE
  2
DASHED
 70
    0
  3
Dashed _ _ _ _ _ _ _ _ _ _ _ _ _ _ _ _ _
 72
   65
 73
    2
 40
19.05
 49
12.7
 49
-6.35
  0
LTYPE
  2
DASHEDTINY
 70
    0
  3
Dashed (.15x) _ _ _ _ _ _ _ _ _ _ _ _ _ _ _ _ _
 72
   65
 73
    2
 40
2.8575
 49
1.905
 49
-0.9525
  0
LTYPE
  2
DASHED2
 70
    0
  3
Dashed (.5x) _ _ _ _ _ _ _ _ _ _ _ _ _ _ _ _ _
 72
   65
 73
    2
 40
9.524999999999999
 49
6.35
 49
-3.175
  0
LTYPE
  2
DASHEDX2
 70
    0
  3
Dashed (2x) ____  ____  ____  ____  ____  ___
 72
   65
 73
    2
 40
38.09999999999999
 49
25.4
 49
-12.7
  0
LTYPE
  2
DASHDOT
 70
    0
  3
Dash dot __ . __ . __ . __ . __ . __ . __ . __
 72
   65
 73
    4
 40
25.4
 49
12.7
 49
-6.35
 49
0
 49
-6.35
  0
LTYPE
  2
DASHDOTTINY
 70
    0
  3
Dash dot (.15x) _._._._._._._._._._._._._._._.
 72
   65
 73
    4
 40
3.81
 49
1.905
 49
-0.9525
 49
0
 49
-0.9525
  0
LTYPE
  2
DASHDOT2
 70
    0
  3
Dash dot (.5x) _._._._._._._._._._._._._._._.
 72
   65
 73
    4
 40
12.7
 49
6.35
 49
-3.175
 49
0
 49
-3.175
  0
LTYPE
  2
DASHDOTX2
 70
    0
  3
Dash dot (2x) ____  .  ____  .  ____  .  ___
 72
   65
 73
    4
 40
50.8
 49
25.4
 49
-12.7
 49
0
 49
-12.7
  0
LTYPE
  2
DIVIDE
 70
    0
  3
Divide ____ . . ____ . . ____ . . ____ . . ____
 72
   65
 73
    6
 40
31.75
 49
12.7
 49
-6.35
 49
0
 49
-6.35
 49
0
 49
-6.35
  0
LTYPE
  2
DIVIDETINY
 70
    0
  3
Divide (.15x) __..__..__..__..__..__..__..__.._
 72
   65
 73
    6
 40
4.7625
 49
1.905
 49
-0.9525
 49
0
 49
-0.9525
 49
0
 49
-0.9525
  0
LTYPE
  2
DIVIDE2
 70
    0
  3
Divide (.5x) __..__..__..__..__..__..__..__.._
 72
   65
 73
    6
 40
15.875
 49
6.35
 49
-3.175
 49
0
 49
-3.175
 49
0
 49
-3.175
  0
LTYPE
  2
DIVIDEX2
 70
    0
  3
Divide (2x) ________  .  .  ________  .  .  _
 72
   65
 73
    6
 40
63.5
 49
25.4
 49
-12.7
 49
0
 49
-12.7
 49
0
 49
-12.7
  0
LTYPE
  2
BORDER
 70
    0
  3
Border __ __ . __ __ . __ __ . __ __ . __ __ .
 72
   65
 73
    6
 40
44.45
 49
12.7
 49
-6.35
 49
12.7
 49
-6.35
 49
0
 49
-6.35
  0
LTYPE
  2
BORDERTINY
 70
    0
  3
Border (.15x) __.__.__.__.__.__.__.__.__.__.__.
 72
   65
 73
    6
 40
6.6675
 49
1.905
 49
-0.9525
 49
1.905
 49
-0.9525
 49
0
 49
-0.9525
  0
LTYPE
  2
BORDER2
 70
    0
  3
Border (.5x) __.__.__.__.__.__.__.__.__.__.__.
 72
   65
 73
    6
 40
22.225
 49
6.35
 49
-3.175
 49
6.35
 49
-3.175
 49
0
 49
-3.175
  0
LTYPE
  2
BORDERX2
 70
    0
  3
Border (2x) ____  ____  .  ____  ____  .  ___
 72
   65
 73
    6
 40
88.89999999999999
 49
25.4
 49
-12.7
 49
25.4
 49
-12.7
 49
0
 49
-12.7
  0
LTYPE
  2
CENTER
 70
    0
  3
Center ____ _ ____ _ ____ _ ____ _ ____ _ ____
 72
   65
 73
    4
 40
50.8
 49
31.75
 49
-6.35
 49
6.35
 49
-6.35
  0
LTYPE
  2
CENTERTINY
 70
    0
  3
Center (.15x) ___ _ ___ _ ___ _ ___ _ ___ _ ___
 72
   65
 73
    4
 40
7.619999999999999
 49
4.7625
 49
-0.9525
 49
0.9525
 49
-0.9525
  0
LTYPE
  2
CENTER2
 70
    0
  3
Center (.5x) ___ _ ___ _ ___ _ ___ _ ___ _ ___
 72
   65
 73
    4
 40
28.575
 49
19.05
 49
-3.175
 49
3.175
 49
-3.175
  0
LTYPE
  2
CENTERX2
 70
    0
  3
Center (2x) ________  __  ________  __  _____
 72
   65
 73
    4
 40
101.6
 49
63.5
 49
-12.7
 49
12.7
 49
-12.7
  0
ENDTAB
  0
TABLE
  2
LAYER
 70
    1
  0
LAYER
  2
0
 70
    0
 62
  255
  6
CONTINUOUS
  0
ENDTAB
  0
TABLE
  2
STYLE
 70
    3
  0
STYLE
  2
STANDARD
 70
    0
 40
0
 41
1
 50
0
 71
    0
 42
1
  3
TXT
  4

  0
ENDTAB
  0
TABLE
  2
VIEW
 70
    0
  0
ENDTAB
  0
TABLE
  2
UCS
 70
    0
  0
ENDTAB
  0
TABLE
  2
APPID
 70
    1
  0
APPID
  2
ACAD
 70
    0
  0
APPID
  2
LIBRECAD
 70
    0
  0
ENDTAB
  0
TABLE
  2
DIMSTYLE
 70
    1
  0
DIMSTYLE
  2
STANDARD
 70
    0
  3

  4

  5

  6

  7

 40
1
 41
2.5
 42
0.625
 43
0.38
 44
1.25
 45
0
 46
0
 47
0
 48
0
 49
1
140
2.5
141
0.09
142
0
143
25.4
144
1
145
0
146
1
147
0.625
 71
    0
 72
    0
 73
    0
 74
    1
 75
    0
 76
    0
 77
    0
 78
    8
170
    0
171
    2
172
    0
173
    0
174
    0
175
    0
176
  178
177
  178
178
  178
  0
ENDTAB
  0
ENDSEC
  0
SECTION
  2
BLOCKS
  0
BLOCK
  8
0
  2
$MODEL_SPACE
 70
    0
 10
0
 20
0
 30
0
  3
$MODEL_SPACE
  1

  0
ENDBLK
  8
0
  0
BLOCK
  8
0
  2
$PAPER_SPACE
 70
    0
 10
0
 20
0
 30
0
  3
$PAPER_SPACE
  1

  0
ENDBLK
  8
0
  0
ENDSEC
  0
SECTION
  2
ENTITIES
  0
ARC
  5
31
  8
0
  6
BYLAYER
 62
  256
 10
0
 20
0
 40
0.3
 50
109.4712206344975
 51
70.52877936550249
  0
ARC
  5
32
  8
0
  6
BYLAYER
 62
  256
 10
-1.13686837721616e-13
 20
1.853844173127527
 40
0.4525533721705415
 50
360
 51
180
  0
ARC
  5
33
  8
0
  6
BYLAYER
 62
  256
 10
-1.13686837721616e-13
 20
0.5799887535797552
 40
1.273855419547806
 50
241.9084932539736
 51
298.0915067460077
  0
LINE
  5
34
  8
0
  6
BYLAYER
 62
  256
 10
0.4525533721704278
 20
1.853844173127527
 11
0.4567147964276046
 21
1.838942763959722
  0
LINE
  5
35
  8
0
  6
BYLAYER
 62
  256
 10
0.4567147964276046
 20
1.838942763959722
 11
0.4608955301463311
 21
1.82410314724325
  0
LINE
  5
36
  8
0
  6
BYLAYER
 62
  256
 10
0.4608955301463311
 20
1.82410314724325
 11
0.4650950130607043
 21
1.809325105939251
  0
LINE
  5
37
  8
0
  6
BYLAYER
 62
  256
 10
0.4650950130607043
 20
1.809325105939251
 11
0.4693126849057307
 21
1.794608423009095
  0
LINE
  5
38
  8
0
  6
BYLAYER
 62
  256
 10
0.4693126849057307
 20
1.794608423009095
 11
0.4735479854160758
 21
1.779952881414147
  0
LINE
  5
39
  8
0
  6
BYLAYER
 62
  256
 10
0.4735479854160758
 20
1.779952881414147
 11
0.4778003543266323
 21
1.765358264114639
  0
LINE
  5
3A
  8
0
  6
BYLAYER
 62
  256
 10
0.4778003543266323
 20
1.765358264114639
 11
0.4820692313717245
 21
1.750824354072165
  0
LINE
  5
3B
  8
0
  6
BYLAYER
 62
  256
 10
0.4820692313717245
 20
1.750824354072165
 11
0.4863540562863591
 21
1.736350934247866
  0
LINE
  5
3C
  8
0
  6
BYLAYER
 62
  256
 10
0.4863540562863591
 20
1.736350934247866
 11
0.4906542688047466
 21
1.72193778760311
  0
LINE
  5
3D
  8
0
  6
BYLAYER
 62
  256
 10
0.4906542688047466
 20
1.72193778760311
 11
0.494969308662462
 21
1.707584697098582
  0
LINE
  5
3E
  8
0
  6
BYLAYER
 62
  256
 10
0.494969308662462
 20
1.707584697098582
 11
0.4992986155934886
 21
1.693291445695422
  0
LINE
  5
3F
  8
0
  6
BYLAYER
 62
  256
 10
0.4992986155934886
 20
1.693291445695422
 11
0.5036416293330603
 21
1.679057816355225
  0
LINE
  5
40
  8
0
  6
BYLAYER
 62
  256
 10
0.5036416293330603
 20
1.679057816355225
 11
0.5079977896156151
 21
1.664883592038677
  0
LINE
  5
41
  8
0
  6
BYLAYER
 62
  256
 10
0.5079977896156151
 20
1.664883592038677
 11
0.5123665361755911
 21
1.650768555706918
  0
LINE
  5
42
  8
0
  6
BYLAYER
 62
  256
 10
0.5123665361755911
 20
1.650768555706918
 11
0.5167473087481085
 21
1.636712490321315
  0
LINE
  5
43
  8
0
  6
BYLAYER
 62
  256
 10
0.5167473087481085
 20
1.636712490321315
 11
0.5211395470677189
 21
1.622715178841872
  0
LINE
  5
44
  8
0
  6
BYLAYER
 62
  256
 10
0.5211395470677189
 20
1.622715178841872
 11
0.5255426908690879
 21
1.608776404231548
  0
LINE
  5
45
  8
0
  6
BYLAYER
 62
  256
 10
0.5255426908690879
 20
1.608776404231548
 11
0.5299561798872219
 21
1.594895949450347
  0
LINE
  5
46
  8
0
  6
BYLAYER
 62
  256
 10
0.5299561798872219
 20
1.594895949450347
 11
0.5343794538564453
 21
1.581073597459408
  0
LINE
  5
47
  8
0
  6
BYLAYER
 62
  256
 10
0.5343794538564453
 20
1.581073597459408
 11
0.5388119525116508
 21
1.5673091312201
  0
LINE
  5
48
  8
0
  6
BYLAYER
 62
  256
 10
0.5388119525116508
 20
1.5673091312201
 11
0.543253115587504
 21
1.553602333693334
  0
LINE
  5
49
  8
0
  6
BYLAYER
 62
  256
 10
0.543253115587504
 20
1.553602333693334
 11
0.5477023828186702
 21
1.539952987840479
  0
LINE
  5
4A
  8
0
  6
BYLAYER
 62
  256
 10
0.5477023828186702
 20
1.539952987840479
 11
0.5521591939399286
 21
1.526360876622221
  0
LINE
  5
4B
  8
0
  6
BYLAYER
 62
  256
 10
0.5521591939399286
 20
1.526360876622221
 11
0.5566229886860583
 21
1.512825782999926
  0
LINE
  5
4C
  8
0
  6
BYLAYER
 62
  256
 10
0.5566229886860583
 20
1.512825782999926
 11
0.561093206791611
 21
1.499347489934962
  0
LINE
  5
4D
  8
0
  6
BYLAYER
 62
  256
 10
0.561093206791611
 20
1.499347489934962
 11
0.5655692879913659
 21
1.485925780388015
  0
LINE
  5
4E
  8
0
  6
BYLAYER
 62
  256
 10
0.5655692879913659
 20
1.485925780388015
 11
0.570050672020102
 21
1.472560437319999
  0
LINE
  5
4F
  8
0
  6
BYLAYER
 62
  256
 10
0.570050672020102
 20
1.472560437319999
 11
0.5745367986123711
 21
1.459251243692961
  0
LINE
  5
50
  8
0
  6
BYLAYER
 62
  256
 10
0.5745367986123711
 20
1.459251243692961
 11
0.5790271075031796
 21
1.445997982466906
  0
LINE
  5
51
  8
0
  6
BYLAYER
 62
  256
 10
0.5790271075031796
 20
1.445997982466906
 11
0.5835210384268521
 21
1.432800436604111
  0
LINE
  5
52
  8
0
  6
BYLAYER
 62
  256
 10
0.5835210384268521
 20
1.432800436604111
 11
0.5880180311182812
 21
1.419658389064807
  0
LINE
  5
53
  8
0
  6
BYLAYER
 62
  256
 10
0.5880180311182812
 20
1.419658389064807
 11
0.5925175253122461
 21
1.406571622810361
  0
LINE
  5
54
  8
0
  6
BYLAYER
 62
  256
 10
0.5925175253122461
 20
1.406571622810361
 11
0.5970189607434122
 21
1.393539920801913
  0
LINE
  5
55
  8
0
  6
BYLAYER
 62
  256
 10
0.5970189607434122
 20
1.393539920801913
 11
0.6015217771463313
 21
1.380563066000377
  0
LINE
  5
56
  8
0
  6
BYLAYER
 62
  256
 10
0.6015217771463313
 20
1.380563066000377
 11
0.6060254142560098
 21
1.36764084136712
  0
LINE
  5
57
  8
0
  6
BYLAYER
 62
  256
 10
0.6060254142560098
 20
1.36764084136712
 11
0.6105293118067721
 21
1.354773029863054
  0
LINE
  5
58
  8
0
  6
BYLAYER
 62
  256
 10
0.6105293118067721
 20
1.354773029863054
 11
0.6150329095337383
 21
1.341959414450002
  0
LINE
  5
59
  8
0
  6
BYLAYER
 62
  256
 10
0.6150329095337383
 20
1.341959414450002
 11
0.619535647171233
 21
1.329199778087741
  0
LINE
  5
5A
  8
0
  6
BYLAYER
 62
  256
 10
0.619535647171233
 20
1.329199778087741
 11
0.6240369644544899
 21
1.316493903738319
  0
LINE
  5
5B
  8
0
  6
BYLAYER
 62
  256
 10
0.6240369644544899
 20
1.316493903738319
 11
0.6285363011176059
 21
1.303841574362878
  0
LINE
  5
5C
  8
0
  6
BYLAYER
 62
  256
 10
0.6285363011176059
 20
1.303841574362878
 11
0.6330330968957014
 21
1.291242572922329
  0
LINE
  5
5D
  8
0
  6
BYLAYER
 62
  256
 10
0.6330330968957014
 20
1.291242572922329
 11
0.6375267915232143
 21
1.278696682377358
  0
LINE
  5
5E
  8
0
  6
BYLAYER
 62
  256
 10
0.6375267915232143
 20
1.278696682377358
 11
0.6420168247350375
 21
1.266203685689788
  0
LINE
  5
5F
  8
0
  6
BYLAYER
 62
  256
 10
0.6420168247350375
 20
1.266203685689788
 11
0.6465026362657227
 21
1.253763365820305
  0
LINE
  5
60
  8
0
  6
BYLAYER
 62
  256
 10
0.6465026362657227
 20
1.253763365820305
 11
0.65098366585039
 21
1.241375505730502
  0
LINE
  5
61
  8
0
  6
BYLAYER
 62
  256
 10
0.65098366585039
 20
1.241375505730502
 11
0.6554593532231365
 21
1.229039888380612
  0
LINE
  5
62
  8
0
  6
BYLAYER
 62
  256
 10
0.6554593532231365
 20
1.229039888380612
 11
0.6599291381193098
 21
1.216756296732683
  0
LINE
  5
63
  8
0
  6
BYLAYER
 62
  256
 10
0.6599291381193098
 20
1.216756296732683
 11
0.664392460272893
 21
1.204524513747174
  0
LINE
  5
64
  8
0
  6
BYLAYER
 62
  256
 10
0.664392460272893
 20
1.204524513747174
 11
0.6688487594192338
 21
1.192344322385452
  0
LINE
  5
65
  8
0
  6
BYLAYER
 62
  256
 10
0.6688487594192338
 20
1.192344322385452
 11
0.673297475292884
 21
1.180215505608885
  0
LINE
  5
66
  8
0
  6
BYLAYER
 62
  256
 10
0.673297475292884
 20
1.180215505608885
 11
0.6777380476283952
 21
1.168137846377704
  0
LINE
  5
67
  8
0
  6
BYLAYER
 62
  256
 10
0.6777380476283952
 20
1.168137846377704
 11
0.6821699161605466
 21
1.156111127653958
  0
LINE
  5
68
  8
0
  6
BYLAYER
 62
  256
 10
0.6821699161605466
 20
1.156111127653958
 11
0.6865925206238899
 21
1.144135132398333
  0
LINE
  5
69
  8
0
  6
BYLAYER
 62
  256
 10
0.6865925206238899
 20
1.144135132398333
 11
0.6910053007534316
 21
1.132209643572423
  0
LINE
  5
6A
  8
0
  6
BYLAYER
 62
  256
 10
0.6910053007534316
 20
1.132209643572423
 11
0.6954076962836098
 21
1.120334444136915
  0
LINE
  5
6B
  8
0
  6
BYLAYER
 62
  256
 10
0.6954076962836098
 20
1.120334444136915
 11
0.6997991469496583
 21
1.108509317052722
  0
LINE
  5
6C
  8
0
  6
BYLAYER
 62
  256
 10
0.6997991469496583
 20
1.108509317052722
 11
0.7041790924855604
 21
1.096734045280755
  0
LINE
  5
6D
  8
0
  6
BYLAYER
 62
  256
 10
0.7041790924855604
 20
1.096734045280755
 11
0.7085469726264364
 21
1.085008411783292
  0
LINE
  5
6E
  8
0
  6
BYLAYER
 62
  256
 10
0.7085469726264364
 20
1.085008411783292
 11
0.7129022271069516
 21
1.073332199520337
  0
LINE
  5
6F
  8
0
  6
BYLAYER
 62
  256
 10
0.7129022271069516
 20
1.073332199520337
 11
0.7172442956616578
 21
1.061705191453257
  0
LINE
  5
70
  8
0
  6
BYLAYER
 62
  256
 10
0.7172442956616578
 20
1.061705191453257
 11
0.7215726180255615
 21
1.050127170543647
  0
LINE
  5
71
  8
0
  6
BYLAYER
 62
  256
 10
0.7215726180255615
 20
1.050127170543647
 11
0.7258866339333281
 21
1.038597919752192
  0
LINE
  5
72
  8
0
  6
BYLAYER
 62
  256
 10
0.7258866339333281
 20
1.038597919752192
 11
0.730185783119282
 21
1.027117222040033
  0
LINE
  5
73
  8
0
  6
BYLAYER
 62
  256
 10
0.730185783119282
 20
1.027117222040033
 11
0.7344695053185433
 21
1.01568486036831
  0
LINE
  5
74
  8
0
  6
BYLAYER
 62
  256
 10
0.7344695053185433
 20
1.01568486036831
 11
0.7387372402655501
 21
1.004300617698163
  0
LINE
  5
75
  8
0
  6
BYLAYER
 62
  256
 10
0.7387372402655501
 20
1.004300617698163
 11
0.7429884276953089
 21
0.9929642769902784
  0
LINE
  5
76
  8
0
  6
BYLAYER
 62
  256
 10
0.7429884276953089
 20
0.9929642769902784
 11
0.7472225073421441
 21
0.9816756212067048
  0
LINE
  5
77
  8
0
  6
BYLAYER
 62
  256
 10
0.7472225073421441
 20
0.9816756212067048
 11
0.7514389189410622
 21
0.9704344333081281
  0
LINE
  5
78
  8
0
  6
BYLAYER
 62
  256
 10
0.7514389189410622
 20
0.9704344333081281
 11
0.7556371022267285
 21
0.9592404962552337
  0
LINE
  5
79
  8
0
  6
BYLAYER
 62
  256
 10
0.7556371022267285
 20
0.9592404962552337
 11
0.7598164969336949
 21
0.9480935930093892
  0
LINE
  5
7A
  8
0
  6
BYLAYER
 62
  256
 10
0.7598164969336949
 20
0.9480935930093892
 11
0.7639765427969678
 21
0.9369935065319623
  0
LINE
  5
7B
  8
0
  6
BYLAYER
 62
  256
 10
0.7639765427969678
 20
0.9369935065319623
 11
0.7681166795508716
 21
0.9259400197838659
  0
LINE
  5
7C
  8
0
  6
BYLAYER
 62
  256
 10
0.7681166795508716
 20
0.9259400197838659
 11
0.7722363469304128
 21
0.91493291572624
  0
LINE
  5
7D
  8
0
  6
BYLAYER
 62
  256
 10
0.7722363469304128
 20
0.91493291572624
 11
0.7763349846701431
 21
0.9039719773202251
  0
LINE
  5
7E
  8
0
  6
BYLAYER
 62
  256
 10
0.7763349846701431
 20
0.9039719773202251
 11
0.7804120325049553
 21
0.8930569875269612
  0
LINE
  5
7F
  8
0
  6
BYLAYER
 62
  256
 10
0.7804120325049553
 20
0.8930569875269612
 11
0.7844669301691738
 21
0.8821877293071338
  0
LINE
  5
80
  8
0
  6
BYLAYER
 62
  256
 10
0.7844669301691738
 20
0.8821877293071338
 11
0.7884991173980325
 21
0.8713639856223381
  0
LINE
  5
81
  8
0
  6
BYLAYER
 62
  256
 10
0.7884991173980325
 20
0.8713639856223381
 11
0.7925080339259694
 21
0.8605855394337141
  0
LINE
  5
82
  8
0
  6
BYLAYER
 62
  256
 10
0.7925080339259694
 20
0.8605855394337141
 11
0.7964931194875362
 21
0.8498521737024021
  0
LINE
  5
83
  8
0
  6
BYLAYER
 62
  256
 10
0.7964931194875362
 20
0.8498521737024021
 11
0.8004538138177395
 21
0.8391636713888602
  0
LINE
  5
84
  8
0
  6
BYLAYER
 62
  256
 10
0.8004538138177395
 20
0.8391636713888602
 11
0.8043895566510173
 21
0.8285198154549107
  0
LINE
  5
85
  8
0
  6
BYLAYER
 62
  256
 10
0.8043895566510173
 20
0.8285198154549107
 11
0.8082997877223761
 21
0.8179203888614666
  0
LINE
  5
86
  8
0
  6
BYLAYER
 62
  256
 10
0.8082997877223761
 20
0.8179203888614666
 11
0.8121839467662539
 21
0.8073651745698953
  0
LINE
  5
87
  8
0
  6
BYLAYER
 62
  256
 10
0.8121839467662539
 20
0.8073651745698953
 11
0.8160414735174299
 21
0.7968539555404277
  0
LINE
  5
88
  8
0
  6
BYLAYER
 62
  256
 10
0.8160414735174299
 20
0.7968539555404277
 11
0.8198718077110243
 21
0.7863865147351135
  0
LINE
  5
89
  8
0
  6
BYLAYER
 62
  256
 10
0.8198718077110243
 20
0.7863865147351135
 11
0.8236743890809066
 21
0.775962635114638
  0
LINE
  5
8A
  8
0
  6
BYLAYER
 62
  256
 10
0.8236743890809066
 20
0.775962635114638
 11
0.8274486573624245
 21
0.7655820996401417
  0
LINE
  5
8B
  8
0
  6
BYLAYER
 62
  256
 10
0.8274486573624245
 20
0.7655820996401417
 11
0.8311940522902432
 21
0.7552446912727646
  0
LINE
  5
8C
  8
0
  6
BYLAYER
 62
  256
 10
0.8311940522902432
 20
0.7552446912727646
 11
0.834910013598801
 21
0.7449501929736471
  0
LINE
  5
8D
  8
0
  6
BYLAYER
 62
  256
 10
0.834910013598801
 20
0.7449501929736471
 11
0.8385959810229906
 21
0.7346983877039293
  0
LINE
  5
8E
  8
0
  6
BYLAYER
 62
  256
 10
0.8385959810229906
 20
0.7346983877039293
 11
0.8422513942973637
 21
0.7244890584247514
  0
LINE
  5
8F
  8
0
  6
BYLAYER
 62
  256
 10
0.8422513942973637
 20
0.7244890584247514
 11
0.8458756931568132
 21
0.7143219880972538
  0
LINE
  5
90
  8
0
  6
BYLAYER
 62
  256
 10
0.8458756931568132
 20
0.7143219880972538
 11
0.8494683173362318
 21
0.7041969596823492
  0
LINE
  5
91
  8
0
  6
BYLAYER
 62
  256
 10
0.8494683173362318
 20
0.7041969596823492
 11
0.8530287065698303
 21
0.6941137561411779
  0
LINE
  5
92
  8
0
  6
BYLAYER
 62
  256
 10
0.8530287065698303
 20
0.6941137561411779
 11
0.8565563005927288
 21
0.6840721604348801
  0
LINE
  5
93
  8
0
  6
BYLAYER
 62
  256
 10
0.8565563005927288
 20
0.6840721604348801
 11
0.8600505391393654
 21
0.6740719555248234
  0
LINE
  5
94
  8
0
  6
BYLAYER
 62
  256
 10
0.8600505391393654
 20
0.6740719555248234
 11
0.8635108619444054
 21
0.6641129243716932
  0
LINE
  5
95
  8
0
  6
BYLAYER
 62
  256
 10
0.8635108619444054
 20
0.6641129243716932
 11
0.8669367087429691
 21
0.654194849937312
  0
LINE
  5
96
  8
0
  6
BYLAYER
 62
  256
 10
0.8669367087429691
 20
0.654194849937312
 11
0.8703275192693809
 21
0.6443175151816831
  0
LINE
  5
97
  8
0
  6
BYLAYER
 62
  256
 10
0.8703275192693809
 20
0.6443175151816831
 11
0.8736827332586472
 21
0.6344807030668562
  0
LINE
  5
98
  8
0
  6
BYLAYER
 62
  256
 10
0.8736827332586472
 20
0.6344807030668562
 11
0.8770017904452061
 21
0.6246841965537442
  0
LINE
  5
99
  8
0
  6
BYLAYER
 62
  256
 10
0.8770017904452061
 20
0.6246841965537442
 11
0.880284130563723
 21
0.6149277786030325
  0
LINE
  5
9A
  8
0
  6
BYLAYER
 62
  256
 10
0.880284130563723
 20
0.6149277786030325
 11
0.8835291933492044
 21
0.6052112321763161
  0
LINE
  5
9B
  8
0
  6
BYLAYER
 62
  256
 10
0.8835291933492044
 20
0.6052112321763161
 11
0.8867364185362021
 21
0.5955343402345079
  0
LINE
  5
9C
  8
0
  6
BYLAYER
 62
  256
 10
0.8867364185362021
 20
0.5955343402345079
 11
0.8899052458593815
 21
0.5858968857389755
  0
LINE
  5
9D
  8
0
  6
BYLAYER
 62
  256
 10
0.8899052458593815
 20
0.5858968857389755
 11
0.8930351150536353
 21
0.5762986516501769
  0
LINE
  5
9E
  8
0
  6
BYLAYER
 62
  256
 10
0.8930351150536353
 20
0.5762986516501769
 11
0.8961254658534017
 21
0.5667394209299346
  0
LINE
  5
9F
  8
0
  6
BYLAYER
 62
  256
 10
0.8961254658534017
 20
0.5667394209299346
 11
0.8991757379935734
 21
0.5572189765389339
  0
LINE
  5
A0
  8
0
  6
BYLAYER
 62
  256
 10
0.8991757379935734
 20
0.5572189765389339
 11
0.9021853712089296
 21
0.5477371014385426
  0
LINE
  5
A1
  8
0
  6
BYLAYER
 62
  256
 10
0.9021853712089296
 20
0.5477371014385426
 11
0.9051538052337946
 21
0.5382935785899008
  0
LINE
  5
A2
  8
0
  6
BYLAYER
 62
  256
 10
0.9051538052337946
 20
0.5382935785899008
 11
0.9080804798034023
 21
0.528888190953694
  0
LINE
  5
A3
  8
0
  6
BYLAYER
 62
  256
 10
0.9080804798034023
 20
0.528888190953694
 11
0.9109648346520771
 21
0.5195207214912898
  0
LINE
  5
A4
  8
0
  6
BYLAYER
 62
  256
 10
0.9109648346520771
 20
0.5195207214912898
 11
0.9138063095147118
 21
0.5101909531640558
  0
LINE
  5
A5
  8
0
  6
BYLAYER
 62
  256
 10
0.9138063095147118
 20
0.5101909531640558
 11
0.9166043441259717
 21
0.5008986689326775
  0
LINE
  5
A6
  8
0
  6
BYLAYER
 62
  256
 10
0.9166043441259717
 20
0.5008986689326775
 11
0.9193583782205224
 21
0.4916436517587499
  0
LINE
  5
A7
  8
0
  6
BYLAYER
 62
  256
 10
0.9193583782205224
 20
0.4916436517587499
 11
0.9220678515330292
 21
0.4824256846031858
  0
LINE
  5
A8
  8
0
  6
BYLAYER
 62
  256
 10
0.9220678515330292
 20
0.4824256846031858
 11
0.9247322037983849
 21
0.4732445504264433
  0
LINE
  5
A9
  8
0
  6
BYLAYER
 62
  256
 10
0.9247322037983849
 20
0.4732445504264433
 11
0.9273508747510277
 21
0.4641000321905722
  0
LINE
  5
AA
  8
0
  6
BYLAYER
 62
  256
 10
0.9273508747510277
 20
0.4641000321905722
 11
0.929923304125964
 21
0.4549919128562578
  0
LINE
  5
AB
  8
0
  6
BYLAYER
 62
  256
 10
0.929923304125964
 20
0.4549919128562578
 11
0.9324489316578592
 21
0.4459199753848679
  0
LINE
  5
AC
  8
0
  6
BYLAYER
 62
  256
 10
0.9324489316578592
 20
0.4459199753848679
 11
0.9349271970812651
 21
0.4368840027370879
  0
LINE
  5
AD
  8
0
  6
BYLAYER
 62
  256
 10
0.9349271970812651
 20
0.4368840027370879
 11
0.9373575401309608
 21
0.4278837778742854
  0
LINE
  5
AE
  8
0
  6
BYLAYER
 62
  256
 10
0.9373575401309608
 20
0.4278837778742854
 11
0.9397394005416118
 21
0.4189190837573733
  0
LINE
  5
AF
  8
0
  6
BYLAYER
 62
  256
 10
0.9397394005416118
 20
0.4189190837573733
 11
0.942072218047997
 21
0.4099897033479465
  0
LINE
  5
B0
  8
0
  6
BYLAYER
 62
  256
 10
0.942072218047997
 20
0.4099897033479465
 11
0.944355432384782
 21
0.4010954196069179
  0
LINE
  5
B1
  8
0
  6
BYLAYER
 62
  256
 10
0.944355432384782
 20
0.4010954196069179
 11
0.9465884832866323
 21
0.3922360154949729
  0
LINE
  5
B2
  8
0
  6
BYLAYER
 62
  256
 10
0.9465884832866323
 20
0.3922360154949729
 11
0.9487708104884405
 21
0.3834112739737066
  0
LINE
  5
B3
  8
0
  6
BYLAYER
 62
  256
 10
0.9487708104884405
 20
0.3834112739737066
 11
0.9509018537246448
 21
0.3746209780040317
  0
LINE
  5
B4
  8
0
  6
BYLAYER
 62
  256
 10
0.9509018537246448
 20
0.3746209780040317
 11
0.9529810527302516
 21
0.365864910547316
  0
LINE
  5
B5
  8
0
  6
BYLAYER
 62
  256
 10
0.9529810527302516
 20
0.365864910547316
 11
0.955007847239699
 21
0.3571428545642448
  0
LINE
  5
B6
  8
0
  6
BYLAYER
 62
  256
 10
0.955007847239699
 20
0.3571428545642448
 11
0.9569816769878798
 21
0.348454593015731
  0
LINE
  5
B7
  8
0
  6
BYLAYER
 62
  256
 10
0.9569816769878798
 20
0.348454593015731
 11
0.9589019817095732
 21
0.3397999088638244
  0
LINE
  5
B8
  8
0
  6
BYLAYER
 62
  256
 10
0.9589019817095732
 20
0.3397999088638244
 11
0.9607682011392171
 21
0.3311785850692104
  0
LINE
  5
B9
  8
0
  6
BYLAYER
 62
  256
 10
0.9607682011392171
 20
0.3311785850692104
 11
0.9625797750115908
 21
0.3225904045925745
  0
LINE
  5
BA
  8
0
  6
BYLAYER
 62
  256
 10
0.9625797750115908
 20
0.3225904045925745
 11
0.9643361430615869
 21
0.3140351503952843
  0
LINE
  5
BB
  8
0
  6
BYLAYER
 62
  256
 10
0.9643361430615869
 20
0.3140351503952843
 11
0.9660367450237572
 21
0.3055126054387074
  0
LINE
  5
BC
  8
0
  6
BYLAYER
 62
  256
 10
0.9660367450237572
 20
0.3055126054387074
 11
0.967681020632881
 21
0.2970225526837567
  0
LINE
  5
BD
  8
0
  6
BYLAYER
 62
  256
 10
0.967681020632881
 20
0.2970225526837567
 11
0.9692684096236235
 21
0.2885647750915723
  0
LINE
  5
BE
  8
0
  6
BYLAYER
 62
  256
 10
0.9692684096236235
 20
0.2885647750915723
 11
0.9707983517307639
 21
0.2801390556232946
  0
LINE
  5
BF
  8
0
  6
BYLAYER
 62
  256
 10
0.9707983517307639
 20
0.2801390556232946
 11
0.972270286688854
 21
0.2717451772400636
  0
LINE
  5
C0
  8
0
  6
BYLAYER
 62
  256
 10
0.972270286688854
 20
0.2717451772400636
 11
0.9736836542326728
 21
0.263382922902565
  0
LINE
  5
C1
  8
0
  6
BYLAYER
 62
  256
 10
0.9736836542326728
 20
0.263382922902565
 11
0.9750378940971132
 21
0.2550520755721664
  0
LINE
  5
C2
  8
0
  6
BYLAYER
 62
  256
 10
0.9750378940971132
 20
0.2550520755721664
 11
0.9763324460166132
 21
0.2467524182106899
  0
LINE
  5
C3
  8
0
  6
BYLAYER
 62
  256
 10
0.9763324460166132
 20
0.2467524182106899
 11
0.9775667497260656
 21
0.2384837337781391
  0
LINE
  5
C4
  8
0
  6
BYLAYER
 62
  256
 10
0.9775667497260656
 20
0.2384837337781391
 11
0.9787402449601359
 21
0.2302458052363363
  0
LINE
  5
C5
  8
0
  6
BYLAYER
 62
  256
 10
0.9787402449601359
 20
0.2302458052363363
 11
0.9798523714534895
 21
0.2220384155461943
  0
LINE
  5
C6
  8
0
  6
BYLAYER
 62
  256
 10
0.9798523714534895
 20
0.2220384155461943
 11
0.9809025689407918
 21
0.213861347668626
  0
LINE
  5
C7
  8
0
  6
BYLAYER
 62
  256
 10
0.9809025689407918
 20
0.213861347668626
 11
0.9818902771569356
 21
0.2057143845654537
  0
LINE
  5
C8
  8
0
  6
BYLAYER
 62
  256
 10
0.9818902771569356
 20
0.2057143845654537
 11
0.9828149358363589
 21
0.1975973091966807
  0
LINE
  5
C9
  8
0
  6
BYLAYER
 62
  256
 10
0.9828149358363589
 20
0.1975973091966807
 11
0.9836759847141821
 21
0.1895099045241295
  0
LINE
  5
CA
  8
0
  6
BYLAYER
 62
  256
 10
0.9836759847141821
 20
0.1895099045241295
 11
0.9844728635246156
 21
0.1814519535087129
  0
LINE
  5
CB
  8
0
  6
BYLAYER
 62
  256
 10
0.9844728635246156
 20
0.1814519535087129
 11
0.9852050120027798
 21
0.1734232391117985
  0
LINE
  5
CC
  8
0
  6
BYLAYER
 62
  256
 10
0.9852050120027798
 20
0.1734232391117985
 11
0.9858718698831126
 21
0.1654235442945264
  0
LINE
  5
CD
  8
0
  6
BYLAYER
 62
  256
 10
0.9858718698831126
 20
0.1654235442945264
 11
0.9864728769005069
 21
0.1574526520173549
  0
LINE
  5
CE
  8
0
  6
BYLAYER
 62
  256
 10
0.9864728769005069
 20
0.1574526520173549
 11
0.9870074727896281
 21
0.1495103452421063
  0
LINE
  5
CF
  8
0
  6
BYLAYER
 62
  256
 10
0.9870074727896281
 20
0.1495103452421063
 11
0.9874750972849142
 21
0.1415964069296933
  0
LINE
  5
D0
  8
0
  6
BYLAYER
 62
  256
 10
0.9874750972849142
 20
0.1415964069296933
 11
0.9878751901214855
 21
0.133710620041029
  0
LINE
  5
D1
  8
0
  6
BYLAYER
 62
  256
 10
0.9878751901214855
 20
0.133710620041029
 11
0.9882071910340073
 21
0.1258527675372534
  0
LINE
  5
D2
  8
0
  6
BYLAYER
 62
  256
 10
0.9882071910340073
 20
0.1258527675372534
 11
0.9884705397566904
 21
0.1180226323797342
  0
LINE
  5
D3
  8
0
  6
BYLAYER
 62
  256
 10
0.9884705397566904
 20
0.1180226323797342
 11
0.988664676024996
 21
0.1102199975293843
  0
LINE
  5
D4
  8
0
  6
BYLAYER
 62
  256
 10
0.988664676024996
 20
0.1102199975293843
 11
0.988789039573021
 21
0.1024446459471164
  0
LINE
  5
D5
  8
0
  6
BYLAYER
 62
  256
 10
0.988789039573021
 20
0.1024446459471164
 11
0.9888430701356583
 21
0.09469636059475306
  0
LINE
  5
D6
  8
0
  6
BYLAYER
 62
  256
 10
0.9888430701356583
 20
0.09469636059475306
 11
0.9888262074479144
 21
0.08697492443275223
  0
LINE
  5
D7
  8
0
  6
BYLAYER
 62
  256
 10
0.9888262074479144
 20
0.08697492443275223
 11
0.9887378912439999
 21
0.07928012042225419
  0
LINE
  5
D8
  8
0
  6
BYLAYER
 62
  256
 10
0.9887378912439999
 20
0.07928012042225419
 11
0.9885775612590351
 21
0.07161173152485389
  0
LINE
  5
D9
  8
0
  6
BYLAYER
 62
  256
 10
0.9885775612590351
 20
0.07161173152485389
 11
0.9883446572273442
 21
0.06396954070123684
  0
LINE
  5
DA
  8
0
  6
BYLAYER
 62
  256
 10
0.9883446572273442
 20
0.06396954070123684
 11
0.9880386188840475
 21
0.05635333091254324
  0
LINE
  5
DB
  8
0
  6
BYLAYER
 62
  256
 10
0.9880386188840475
 20
0.05635333091254324
 11
0.9876588859635831
 21
0.04876288512014071
  0
LINE
  5
DC
  8
0
  6
BYLAYER
 62
  256
 10
0.9876588859635831
 20
0.04876288512014071
 11
0.98720489820073
 21
0.04119798628448734
  0
LINE
  5
DD
  8
0
  6
BYLAYER
 62
  256
 10
0.98720489820073
 20
0.04119798628448734
 11
0.986676095330381
 21
0.03365841736740549
  0
LINE
  5
DE
  8
0
  6
BYLAYER
 62
  256
 10
0.986676095330381
 20
0.03365841736740549
 11
0.9860719170868606
 21
0.02614396133003538
  0
LINE
  5
DF
  8
0
  6
BYLAYER
 62
  256
 10
0.9860719170868606
 20
0.02614396133003538
 11
0.9853918032051752
 21
0.01865440113306249
  0
LINE
  5
E0
  8
0
  6
BYLAYER
 62
  256
 10
0.9853918032051752
 20
0.01865440113306249
 11
0.9846351934198765
 21
0.01118951973785443
  0
LINE
  5
E1
  8
0
  6
BYLAYER
 62
  256
 10
0.9846351934198765
 20
0.01118951973785443
 11
0.9838015274658574
 21
0.003749100105324032
  0
LINE
  5
E2
  8
0
  6
BYLAYER
 62
  256
 10
0.9838015274658574
 20
0.003749100105324032
 11
0.9828902450775558
 21
-0.003667074803615833
  0
LINE
  5
E3
  8
0
  6
BYLAYER
 62
  256
 10
0.9828902450775558
 20
-0.003667074803615833
 11
0.9819007859900921
 21
-0.01105922202714282
  0
LINE
  5
E4
  8
0
  6
BYLAYER
 62
  256
 10
0.9819007859900921
 20
-0.01105922202714282
 11
0.9808325899375632
 21
-0.01842755860457146
  0
LINE
  5
E5
  8
0
  6
BYLAYER
 62
  256
 10
0.9808325899375632
 20
-0.01842755860457146
 11
0.9796850966553166
 21
-0.02577230157476151
  0
LINE
  5
E6
  8
0
  6
BYLAYER
 62
  256
 10
0.9796850966553166
 20
-0.02577230157476151
 11
0.9784577458776766
 21
-0.03309366797657276
  0
LINE
  5
E7
  8
0
  6
BYLAYER
 62
  256
 10
0.9784577458776766
 20
-0.03309366797657276
 11
0.9771499773394225
 21
-0.04039187484886497
  0
LINE
  5
E8
  8
0
  6
BYLAYER
 62
  256
 10
0.9771499773394225
 20
-0.04039187484886497
 11
0.9757612307755608
 21
-0.04766713923095267
  0
LINE
  5
E9
  8
0
  6
BYLAYER
 62
  256
 10
0.9757612307755608
 20
-0.04766713923095267
 11
0.974290945920302
 21
-0.05491967816101356
  0
LINE
  5
EA
  8
0
  6
BYLAYER
 62
  256
 10
0.974290945920302
 20
-0.05491967816101356
 11
0.972738562508539
 21
-0.06214970867836206
  0
LINE
  5
EB
  8
0
  6
BYLAYER
 62
  256
 10
0.972738562508539
 20
-0.06214970867836206
 11
0.9711035202751646
 21
-0.06935744782185793
  0
LINE
  5
EC
  8
0
  6
BYLAYER
 62
  256
 10
0.9711035202751646
 20
-0.06935744782185793
 11
0.9693852589546168
 21
-0.07654311263036107
  0
LINE
  5
ED
  8
0
  6
BYLAYER
 62
  256
 10
0.9693852589546168
 20
-0.07654311263036107
 11
0.9675832182819022
 21
-0.08370692014273112
  0
LINE
  5
EE
  8
0
  6
BYLAYER
 62
  256
 10
0.9675832182819022
 20
-0.08370692014273112
 11
0.9656968379915725
 21
-0.09084908739760067
  0
LINE
  5
EF
  8
0
  6
BYLAYER
 62
  256
 10
0.9656968379915725
 20
-0.09084908739760067
 11
0.9637255578181794
 21
-0.09796983143428406
  0
LINE
  5
F0
  8
0
  6
BYLAYER
 62
  256
 10
0.9637255578181794
 20
-0.09796983143428406
 11
0.9616688174967294
 21
-0.1050693692916411
  0
LINE
  5
F1
  8
0
  6
BYLAYER
 62
  256
 10
0.9616688174967294
 20
-0.1050693692916411
 11
0.9595260567616606
 21
-0.1121479180083043
  0
LINE
  5
F2
  8
0
  6
BYLAYER
 62
  256
 10
0.9595260567616606
 20
-0.1121479180083043
 11
0.9572967153478658
 21
-0.1192056946233607
  0
LINE
  5
F3
  8
0
  6
BYLAYER
 62
  256
 10
0.9572967153478658
 20
-0.1192056946233607
 11
0.954980232990124
 21
-0.1262429161754425
  0
LINE
  5
F4
  8
0
  6
BYLAYER
 62
  256
 10
0.954980232990124
 20
-0.1262429161754425
 11
0.9525760494228734
 21
-0.1332597997036373
  0
LINE
  5
F5
  8
0
  6
BYLAYER
 62
  256
 10
0.9525760494228734
 20
-0.1332597997036373
 11
0.9500836043810068
 21
-0.1402565622465772
  0
LINE
  5
F6
  8
0
  6
BYLAYER
 62
  256
 10
0.9500836043810068
 20
-0.1402565622465772
 11
0.9475023375993032
 21
-0.1472334208438043
  0
LINE
  5
F7
  8
0
  6
BYLAYER
 62
  256
 10
0.9475023375993032
 20
-0.1472334208438043
 11
0.9448316888122008
 21
-0.1541905925337232
  0
LINE
  5
F8
  8
0
  6
BYLAYER
 62
  256
 10
0.9448316888122008
 20
-0.1541905925337232
 11
0.942071097754706
 21
-0.1611282943551942
  0
LINE
  5
F9
  8
0
  6
BYLAYER
 62
  256
 10
0.942071097754706
 20
-0.1611282943551942
 11
0.9392200041611432
 21
-0.1680467433470768
  0
LINE
  5
FA
  8
0
  6
BYLAYER
 62
  256
 10
0.9392200041611432
 20
-0.1680467433470768
 11
0.9362778477667462
 21
-0.1749461565486853
  0
LINE
  5
FB
  8
0
  6
BYLAYER
 62
  256
 10
0.9362778477667462
 20
-0.1749461565486853
 11
0.9332440683059531
 21
-0.1818267509979705
  0
LINE
  5
FC
  8
0
  6
BYLAYER
 62
  256
 10
0.9332440683059531
 20
-0.1818267509979705
 11
0.9301181055134293
 21
-0.1886887437349287
  0
LINE
  5
FD
  8
0
  6
BYLAYER
 62
  256
 10
0.9301181055134293
 20
-0.1886887437349287
 11
0.9268993991238403
 21
-0.195532351797965
  0
LINE
  5
FE
  8
0
  6
BYLAYER
 62
  256
 10
0.9268993991238403
 20
-0.195532351797965
 11
0.9235873888719652
 21
-0.2023577922257118
  0
LINE
  5
FF
  8
0
  6
BYLAYER
 62
  256
 10
0.9235873888719652
 20
-0.2023577922257118
 11
0.9201815144926968
 21
-0.2091652820574836
  0
LINE
  5
100
  8
0
  6
BYLAYER
 62
  256
 10
0.9201815144926968
 20
-0.2091652820574836
 11
0.9166812157204731
 21
-0.2159550383321402
  0
LINE
  5
101
  8
0
  6
BYLAYER
 62
  256
 10
0.9166812157204731
 20
-0.2159550383321402
 11
0.913085932290187
 21
-0.2227272780878594
  0
LINE
  5
102
  8
0
  6
BYLAYER
 62
  256
 10
0.913085932290187
 20
-0.2227272780878594
 11
0.9093951039362764
 21
-0.2294822183644101
  0
LINE
  5
103
  8
0
  6
BYLAYER
 62
  256
 10
0.9093951039362764
 20
-0.2294822183644101
 11
0.9056081703939753
 21
-0.2362200762006523
  0
LINE
  5
104
  8
0
  6
BYLAYER
 62
  256
 10
0.9056081703939753
 20
-0.2362200762006523
 11
0.9017245713973807
 21
-0.2429410686345364
  0
LINE
  5
105
  8
0
  6
BYLAYER
 62
  256
 10
0.9017245713973807
 20
-0.2429410686345364
 11
0.8977437466816127
 21
-0.2496454127060587
  0
LINE
  5
106
  8
0
  6
BYLAYER
 62
  256
 10
0.8977437466816127
 20
-0.2496454127060587
 11
0.8936651359813368
 21
-0.2563333254536246
  0
LINE
  5
107
  8
0
  6
BYLAYER
 62
  256
 10
0.8936651359813368
 20
-0.2563333254536246
 11
0.8894881790307636
 21
-0.2630050239160938
  0
LINE
  5
108
  8
0
  6
BYLAYER
 62
  256
 10
0.8894881790307636
 20
-0.2630050239160938
 11
0.8852123155653544
 21
-0.2696607251323258
  0
LINE
  5
109
  8
0
  6
BYLAYER
 62
  256
 10
0.8852123155653544
 20
-0.2696607251323258
 11
0.8808369853194336
 21
-0.2763006461414079
  0
LINE
  5
10A
  8
0
  6
BYLAYER
 62
  256
 10
0.8808369853194336
 20
-0.2763006461414079
 11
0.8763616280275528
 21
-0.2829250039822001
  0
LINE
  5
10B
  8
0
  6
BYLAYER
 62
  256
 10
0.8763616280275528
 20
-0.2829250039822001
 11
0.871785683424946
 21
-0.2895340156933344
  0
LINE
  5
10C
  8
0
  6
BYLAYER
 62
  256
 10
0.871785683424946
 20
-0.2895340156933344
 11
0.8671085912458238
 21
-0.2961278983138982
  0
LINE
  5
10D
  8
0
  6
BYLAYER
 62
  256
 10
0.8671085912458238
 20
-0.2961278983138982
 11
0.8623297912250791
 21
-0.3027068688825238
  0
LINE
  5
10E
  8
0
  6
BYLAYER
 62
  256
 10
0.8623297912250791
 20
-0.3027068688825238
 11
0.857448723097491
 21
-0.3092711444385259
  0
LINE
  5
10F
  8
0
  6
BYLAYER
 62
  256
 10
0.857448723097491
 20
-0.3092711444385259
 11
0.8524648265976111
 21
-0.3158209420205367
  0
LINE
  5
110
  8
0
  6
BYLAYER
 62
  256
 10
0.8524648265976111
 20
-0.3158209420205367
 11
0.8473775414602187
 21
-0.322356478667416
  0
LINE
  5
111
  8
0
  6
BYLAYER
 62
  256
 10
0.8473775414602187
 20
-0.322356478667416
 11
0.8421863074200928
 21
-0.3288779714180237
  0
LINE
  5
112
  8
0
  6
BYLAYER
 62
  256
 10
0.8421863074200928
 20
-0.3288779714180237
 11
0.8368905642117852
 21
-0.3353856373116741
  0
LINE
  5
113
  8
0
  6
BYLAYER
 62
  256
 10
0.8368905642117852
 20
-0.3353856373116741
 11
0.8314897515703024
 21
-0.3418796933867724
  0
LINE
  5
114
  8
0
  6
BYLAYER
 62
  256
 10
0.8314897515703024
 20
-0.3418796933867724
 11
0.8259833092299687
 21
-0.3483603566824058
  0
LINE
  5
115
  8
0
  6
BYLAYER
 62
  256
 10
0.8259833092299687
 20
-0.3483603566824058
 11
0.8203706769257906
 21
-0.3548278442372065
  0
LINE
  5
116
  8
0
  6
BYLAYER
 62
  256
 10
0.8203706769257906
 20
-0.3548278442372065
 11
0.8146512943922062
 21
-0.3612823730904893
  0
LINE
  5
117
  8
0
  6
BYLAYER
 62
  256
 10
0.8146512943922062
 20
-0.3612823730904893
 11
0.8088246013643356
 21
-0.3677241602806589
  0
LINE
  5
118
  8
0
  6
BYLAYER
 62
  256
 10
0.8088246013643356
 20
-0.3677241602806589
 11
0.802890037576276
 21
-0.3741534228472573
  0
LINE
  5
119
  8
0
  6
BYLAYER
 62
  256
 10
0.802890037576276
 20
-0.3741534228472573
 11
0.7968470427633747
 21
-0.3805703778286897
  0
LINE
  5
11A
  8
0
  6
BYLAYER
 62
  256
 10
0.7968470427633747
 20
-0.3805703778286897
 11
0.7906950566600699
 21
-0.3869752422635884
  0
LINE
  5
11B
  8
0
  6
BYLAYER
 62
  256
 10
0.7906950566600699
 20
-0.3869752422635884
 11
0.7844335190009133
 21
-0.3933682331917225
  0
LINE
  5
11C
  8
0
  6
BYLAYER
 62
  256
 10
0.7844335190009133
 20
-0.3933682331917225
 11
0.7780618695207977
 21
-0.3997495676510425
  0
LINE
  5
11D
  8
0
  6
BYLAYER
 62
  256
 10
0.7780618695207977
 20
-0.3997495676510425
 11
0.7715795479543885
 21
-0.4061194626810902
  0
LINE
  5
11E
  8
0
  6
BYLAYER
 62
  256
 10
0.7715795479543885
 20
-0.4061194626810902
 11
0.7649859940364649
 21
-0.4124781353202707
  0
LINE
  5
11F
  8
0
  6
BYLAYER
 62
  256
 10
0.7649859940364649
 20
-0.4124781353202707
 11
0.7582806475016923
 21
-0.4188258026078984
  0
LINE
  5
120
  8
0
  6
BYLAYER
 62
  256
 10
0.7582806475016923
 20
-0.4188258026078984
 11
0.7514629480846224
 21
-0.4251626815823784
  0
LINE
  5
121
  8
0
  6
BYLAYER
 62
  256
 10
0.7514629480846224
 20
-0.4251626815823784
 11
0.7445323355202618
 21
-0.4314889892832525
  0
LINE
  5
122
  8
0
  6
BYLAYER
 62
  256
 10
0.7445323355202618
 20
-0.4314889892832525
 11
0.7374882495432757
 21
-0.4378049427491533
  0
LINE
  5
123
  8
0
  6
BYLAYER
 62
  256
 10
0.7374882495432757
 20
-0.4378049427491533
 11
0.7303301298879887
 21
-0.4441107590187131
  0
LINE
  5
124
  8
0
  6
BYLAYER
 62
  256
 10
0.7303301298879887
 20
-0.4441107590187131
 11
0.7230574162894072
 21
-0.4504066551307915
  0
LINE
  5
125
  8
0
  6
BYLAYER
 62
  256
 10
0.7230574162894072
 20
-0.4504066551307915
 11
0.7156695484823103
 21
-0.4566928481247032
  0
LINE
  5
126
  8
0
  6
BYLAYER
 62
  256
 10
0.7156695484823103
 20
-0.4566928481247032
 11
0.7081659662013635
 21
-0.4629695550388532
  0
LINE
  5
127
  8
0
  6
BYLAYER
 62
  256
 10
0.7081659662013635
 20
-0.4629695550388532
 11
0.7005461091811185
 21
-0.4692369929123287
  0
LINE
  5
128
  8
0
  6
BYLAYER
 62
  256
 10
0.7005461091811185
 20
-0.4692369929123287
 11
0.692809417156468
 21
-0.4754953787839896
  0
LINE
  5
129
  8
0
  6
BYLAYER
 62
  256
 10
0.692809417156468
 20
-0.4754953787839896
 11
0.6849553298618503
 21
-0.48174492969315
  0
LINE
  5
12A
  8
0
  6
BYLAYER
 62
  256
 10
0.6849553298618503
 20
-0.48174492969315
 11
0.6769832870323853
 21
-0.4879858626782153
  0
LINE
  5
12B
  8
0
  6
BYLAYER
 62
  256
 10
0.6769832870323853
 20
-0.4879858626782153
 11
0.6688927284025112
 21
-0.4942183947782723
  0
LINE
  5
12C
  8
0
  6
BYLAYER
 62
  256
 10
0.6688927284025112
 20
-0.4942183947782723
 11
0.6606830937070072
 21
-0.5004427430319538
  0
LINE
  5
12D
  8
0
  6
BYLAYER
 62
  256
 10
0.6606830937070072
 20
-0.5004427430319538
 11
0.6523538226806522
 21
-0.5066591244781193
  0
LINE
  5
12E
  8
0
  6
BYLAYER
 62
  256
 10
0.6523538226806522
 20
-0.5066591244781193
 11
0.6439043550577708
 21
-0.5128677561560835
  0
LINE
  5
12F
  8
0
  6
BYLAYER
 62
  256
 10
0.6439043550577708
 20
-0.5128677561560835
 11
0.6353341305735967
 21
-0.519068855104706
  0
LINE
  5
130
  8
0
  6
BYLAYER
 62
  256
 10
0.6353341305735967
 20
-0.519068855104706
 11
0.626642588962568
 21
-0.525262638362392
  0
LINE
  5
131
  8
0
  6
BYLAYER
 62
  256
 10
0.626642588962568
 20
-0.525262638362392
 11
0.6178291699593501
 21
-0.5314493229682284
  0
LINE
  5
132
  8
0
  6
BYLAYER
 62
  256
 10
0.6178291699593501
 20
-0.5314493229682284
 11
0.6088933132988359
 21
-0.53762912596153
  0
LINE
  5
133
  8
0
  6
BYLAYER
 62
  256
 10
0.6088933132988359
 20
-0.53762912596153
 11
0.5998344587156907
 21
-0.5438022643807017
  0
LINE
  5
134
  8
0
  6
BYLAYER
 62
  256
 10
-0.4525533721706552
 20
1.853844173127527
 11
-0.4567147964280593
 21
1.838942763959722
  0
LINE
  5
135
  8
0
  6
BYLAYER
 62
  256
 10
-0.4567147964280593
 20
1.838942763959722
 11
-0.4608955301465585
 21
1.82410314724325
  0
LINE
  5
136
  8
0
  6
BYLAYER
 62
  256
 10
-0.4608955301465585
 20
1.82410314724325
 11
-0.4650950130610454
 21
1.809325105939251
  0
LINE
  5
137
  8
0
  6
BYLAYER
 62
  256
 10
-0.4650950130610454
 20
1.809325105939251
 11
-0.4693126849059581
 21
1.794608423009095
  0
LINE
  5
138
  8
0
  6
BYLAYER
 62
  256
 10
-0.4693126849059581
 20
1.794608423009095
 11
-0.4735479854163032
 21
1.779952881414147
  0
LINE
  5
139
  8
0
  6
BYLAYER
 62
  256
 10
-0.4735479854163032
 20
1.779952881414147
 11
-0.4778003543267459
 21
1.765358264114639
  0
LINE
  5
13A
  8
0
  6
BYLAYER
 62
  256
 10
-0.4778003543267459
 20
1.765358264114639
 11
-0.4820692313718382
 21
1.750824354072165
  0
LINE
  5
13B
  8
0
  6
BYLAYER
 62
  256
 10
-0.4820692313718382
 20
1.750824354072165
 11
-0.4863540562864728
 21
1.736350934247866
  0
LINE
  5
13C
  8
0
  6
BYLAYER
 62
  256
 10
-0.4863540562864728
 20
1.736350934247866
 11
-0.4906542688052014
 21
1.72193778760311
  0
LINE
  5
13D
  8
0
  6
BYLAYER
 62
  256
 10
-0.4906542688052014
 20
1.72193778760311
 11
-0.4949693086626894
 21
1.707584697098582
  0
LINE
  5
13E
  8
0
  6
BYLAYER
 62
  256
 10
-0.4949693086626894
 20
1.707584697098582
 11
-0.4992986155938297
 21
1.693291445695422
  0
LINE
  5
13F
  8
0
  6
BYLAYER
 62
  256
 10
-0.4992986155938297
 20
1.693291445695422
 11
-0.503641629333174
 21
1.679057816355225
  0
LINE
  5
140
  8
0
  6
BYLAYER
 62
  256
 10
-0.503641629333174
 20
1.679057816355225
 11
-0.5079977896156151
 21
1.664883592038677
  0
LINE
  5
141
  8
0
  6
BYLAYER
 62
  256
 10
-0.5079977896156151
 20
1.664883592038677
 11
-0.5123665361759322
 21
1.650768555706918
  0
LINE
  5
142
  8
0
  6
BYLAYER
 62
  256
 10
-0.5123665361759322
 20
1.650768555706918
 11
-0.5167473087483359
 21
1.636712490321315
  0
LINE
  5
143
  8
0
  6
BYLAYER
 62
  256
 10
-0.5167473087483359
 20
1.636712490321315
 11
-0.5211395470679463
 21
1.622715178841872
  0
LINE
  5
144
  8
0
  6
BYLAYER
 62
  256
 10
-0.5211395470679463
 20
1.622715178841872
 11
-0.525542690869429
 21
1.608776404231548
  0
LINE
  5
145
  8
0
  6
BYLAYER
 62
  256
 10
-0.525542690869429
 20
1.608776404231548
 11
-0.5299561798873356
 21
1.594895949450347
  0
LINE
  5
146
  8
0
  6
BYLAYER
 62
  256
 10
-0.5299561798873356
 20
1.594895949450347
 11
-0.5343794538566726
 21
1.581073597459408
  0
LINE
  5
147
  8
0
  6
BYLAYER
 62
  256
 10
-0.5343794538566726
 20
1.581073597459408
 11
-0.5388119525117645
 21
1.5673091312201
  0
LINE
  5
148
  8
0
  6
BYLAYER
 62
  256
 10
-0.5388119525117645
 20
1.5673091312201
 11
-0.5432531155876177
 21
1.553602333693334
  0
LINE
  5
149
  8
0
  6
BYLAYER
 62
  256
 10
-0.5432531155876177
 20
1.553602333693334
 11
-0.5477023828188976
 21
1.539952987840479
  0
LINE
  5
14A
  8
0
  6
BYLAYER
 62
  256
 10
-0.5477023828188976
 20
1.539952987840479
 11
-0.5521591939400423
 21
1.526360876622221
  0
LINE
  5
14B
  8
0
  6
BYLAYER
 62
  256
 10
-0.5521591939400423
 20
1.526360876622221
 11
-0.5566229886862857
 21
1.512825782999926
  0
LINE
  5
14C
  8
0
  6
BYLAYER
 62
  256
 10
-0.5566229886862857
 20
1.512825782999926
 11
-0.5610932067918384
 21
1.499347489934962
  0
LINE
  5
14D
  8
0
  6
BYLAYER
 62
  256
 10
-0.5610932067918384
 20
1.499347489934962
 11
-0.5655692879915932
 21
1.485925780388015
  0
LINE
  5
14E
  8
0
  6
BYLAYER
 62
  256
 10
-0.5655692879915932
 20
1.485925780388015
 11
-0.5700506720203293
 21
1.472560437319999
  0
LINE
  5
14F
  8
0
  6
BYLAYER
 62
  256
 10
-0.5700506720203293
 20
1.472560437319999
 11
-0.5745367986125984
 21
1.459251243692961
  0
LINE
  5
150
  8
0
  6
BYLAYER
 62
  256
 10
-0.5745367986125984
 20
1.459251243692961
 11
-0.579027107503407
 21
1.445997982466906
  0
LINE
  5
151
  8
0
  6
BYLAYER
 62
  256
 10
-0.579027107503407
 20
1.445997982466906
 11
-0.5835210384270795
 21
1.432800436604111
  0
LINE
  5
152
  8
0
  6
BYLAYER
 62
  256
 10
-0.5835210384270795
 20
1.432800436604111
 11
-0.5880180311186223
 21
1.419658389064807
  0
LINE
  5
153
  8
0
  6
BYLAYER
 62
  256
 10
-0.5880180311186223
 20
1.419658389064807
 11
-0.5925175253125872
 21
1.406571622810361
  0
LINE
  5
154
  8
0
  6
BYLAYER
 62
  256
 10
-0.5925175253125872
 20
1.406571622810361
 11
-0.5970189607436396
 21
1.393539920801913
  0
LINE
  5
155
  8
0
  6
BYLAYER
 62
  256
 10
-0.5970189607436396
 20
1.393539920801913
 11
-0.6015217771465586
 21
1.380563066000377
  0
LINE
  5
156
  8
0
  6
BYLAYER
 62
  256
 10
-0.6015217771465586
 20
1.380563066000377
 11
-0.6060254142562371
 21
1.36764084136712
  0
LINE
  5
157
  8
0
  6
BYLAYER
 62
  256
 10
-0.6060254142562371
 20
1.36764084136712
 11
-0.6105293118071131
 21
1.354773029863054
  0
LINE
  5
158
  8
0
  6
BYLAYER
 62
  256
 10
-0.6105293118071131
 20
1.354773029863054
 11
-0.6150329095339657
 21
1.341959414450002
  0
LINE
  5
159
  8
0
  6
BYLAYER
 62
  256
 10
-0.6150329095339657
 20
1.341959414450002
 11
-0.6195356471714604
 21
1.329199778087514
  0
LINE
  5
15A
  8
0
  6
BYLAYER
 62
  256
 10
-0.6195356471714604
 20
1.329199778087514
 11
-0.6240369644546035
 21
1.316493903738319
  0
LINE
  5
15B
  8
0
  6
BYLAYER
 62
  256
 10
-0.6240369644546035
 20
1.316493903738319
 11
-0.6285363011177196
 21
1.303841574362878
  0
LINE
  5
15C
  8
0
  6
BYLAYER
 62
  256
 10
-0.6285363011177196
 20
1.303841574362878
 11
-0.6330330968958151
 21
1.291242572922329
  0
LINE
  5
15D
  8
0
  6
BYLAYER
 62
  256
 10
-0.6330330968958151
 20
1.291242572922329
 11
-0.637526791523328
 21
1.278696682377358
  0
LINE
  5
15E
  8
0
  6
BYLAYER
 62
  256
 10
-0.637526791523328
 20
1.278696682377358
 11
-0.6420168247350375
 21
1.266203685689788
  0
LINE
  5
15F
  8
0
  6
BYLAYER
 62
  256
 10
-0.6420168247350375
 20
1.266203685689788
 11
-0.6465026362660637
 21
1.253763365820305
  0
LINE
  5
160
  8
0
  6
BYLAYER
 62
  256
 10
-0.6465026362660637
 20
1.253763365820305
 11
-0.6509836658505037
 21
1.241375505730502
  0
LINE
  5
161
  8
0
  6
BYLAYER
 62
  256
 10
-0.6509836658505037
 20
1.241375505730502
 11
-0.6554593532233639
 21
1.229039888380612
  0
LINE
  5
162
  8
0
  6
BYLAYER
 62
  256
 10
-0.6554593532233639
 20
1.229039888380612
 11
-0.6599291381193098
 21
1.216756296732456
  0
LINE
  5
163
  8
0
  6
BYLAYER
 62
  256
 10
-0.6599291381193098
 20
1.216756296732456
 11
-0.6643924602731204
 21
1.204524513747174
  0
LINE
  5
164
  8
0
  6
BYLAYER
 62
  256
 10
-0.6643924602731204
 20
1.204524513747174
 11
-0.6688487594193475
 21
1.192344322385452
  0
LINE
  5
165
  8
0
  6
BYLAYER
 62
  256
 10
-0.6688487594193475
 20
1.192344322385452
 11
-0.6732974752929977
 21
1.180215505608885
  0
LINE
  5
166
  8
0
  6
BYLAYER
 62
  256
 10
-0.6732974752929977
 20
1.180215505608885
 11
-0.6777380476285089
 21
1.168137846377704
  0
LINE
  5
167
  8
0
  6
BYLAYER
 62
  256
 10
-0.6777380476285089
 20
1.168137846377704
 11
-0.6821699161605466
 21
1.156111127653958
  0
LINE
  5
168
  8
0
  6
BYLAYER
 62
  256
 10
-0.6821699161605466
 20
1.156111127653958
 11
-0.6865925206241172
 21
1.144135132398333
  0
LINE
  5
169
  8
0
  6
BYLAYER
 62
  256
 10
-0.6865925206241172
 20
1.144135132398333
 11
-0.6910053007535453
 21
1.132209643572423
  0
LINE
  5
16A
  8
0
  6
BYLAYER
 62
  256
 10
-0.6910053007535453
 20
1.132209643572423
 11
-0.6954076962839508
 21
1.120334444136915
  0
LINE
  5
16B
  8
0
  6
BYLAYER
 62
  256
 10
-0.6954076962839508
 20
1.120334444136915
 11
-0.699799146949772
 21
1.108509317052494
  0
LINE
  5
16C
  8
0
  6
BYLAYER
 62
  256
 10
-0.699799146949772
 20
1.108509317052494
 11
-0.7041790924857878
 21
1.096734045280755
  0
LINE
  5
16D
  8
0
  6
BYLAYER
 62
  256
 10
-0.7041790924857878
 20
1.096734045280755
 11
-0.7085469726266638
 21
1.085008411783292
  0
LINE
  5
16E
  8
0
  6
BYLAYER
 62
  256
 10
-0.7085469726266638
 20
1.085008411783292
 11
-0.712902227107179
 21
1.073332199520337
  0
LINE
  5
16F
  8
0
  6
BYLAYER
 62
  256
 10
-0.712902227107179
 20
1.073332199520337
 11
-0.7172442956618852
 21
1.061705191453257
  0
LINE
  5
170
  8
0
  6
BYLAYER
 62
  256
 10
-0.7172442956618852
 20
1.061705191453257
 11
-0.7215726180259026
 21
1.050127170543647
  0
LINE
  5
171
  8
0
  6
BYLAYER
 62
  256
 10
-0.7215726180259026
 20
1.050127170543647
 11
-0.7258866339334418
 21
1.038597919752192
  0
LINE
  5
172
  8
0
  6
BYLAYER
 62
  256
 10
-0.7258866339334418
 20
1.038597919752192
 11
-0.7301857831195093
 21
1.027117222040033
  0
LINE
  5
173
  8
0
  6
BYLAYER
 62
  256
 10
-0.7301857831195093
 20
1.027117222040033
 11
-0.7344695053187706
 21
1.01568486036831
  0
LINE
  5
174
  8
0
  6
BYLAYER
 62
  256
 10
-0.7344695053187706
 20
1.01568486036831
 11
-0.7387372402657775
 21
1.004300617697936
  0
LINE
  5
175
  8
0
  6
BYLAYER
 62
  256
 10
-0.7387372402657775
 20
1.004300617697936
 11
-0.7429884276954226
 21
0.9929642769902784
  0
LINE
  5
176
  8
0
  6
BYLAYER
 62
  256
 10
-0.7429884276954226
 20
0.9929642769902784
 11
-0.7472225073423715
 21
0.9816756212067048
  0
LINE
  5
177
  8
0
  6
BYLAYER
 62
  256
 10
-0.7472225073423715
 20
0.9816756212067048
 11
-0.7514389189411759
 21
0.9704344333081281
  0
LINE
  5
178
  8
0
  6
BYLAYER
 62
  256
 10
-0.7514389189411759
 20
0.9704344333081281
 11
-0.7556371022267285
 21
0.9592404962552337
  0
LINE
  5
179
  8
0
  6
BYLAYER
 62
  256
 10
-0.7556371022267285
 20
0.9592404962552337
 11
-0.7598164969338086
 21
0.9480935930093892
  0
LINE
  5
17A
  8
0
  6
BYLAYER
 62
  256
 10
-0.7598164969338086
 20
0.9480935930093892
 11
-0.7639765427970815
 21
0.9369935065319623
  0
LINE
  5
17B
  8
0
  6
BYLAYER
 62
  256
 10
-0.7639765427970815
 20
0.9369935065319623
 11
-0.7681166795509853
 21
0.9259400197838659
  0
LINE
  5
17C
  8
0
  6
BYLAYER
 62
  256
 10
-0.7681166795509853
 20
0.9259400197838659
 11
-0.7722363469305265
 21
0.91493291572624
  0
LINE
  5
17D
  8
0
  6
BYLAYER
 62
  256
 10
-0.7722363469305265
 20
0.91493291572624
 11
-0.7763349846702567
 21
0.9039719773202251
  0
LINE
  5
17E
  8
0
  6
BYLAYER
 62
  256
 10
-0.7763349846702567
 20
0.9039719773202251
 11
-0.7804120325049553
 21
0.8930569875269612
  0
LINE
  5
17F
  8
0
  6
BYLAYER
 62
  256
 10
-0.7804120325049553
 20
0.8930569875269612
 11
-0.7844669301694012
 21
0.8821877293071338
  0
LINE
  5
180
  8
0
  6
BYLAYER
 62
  256
 10
-0.7844669301694012
 20
0.8821877293071338
 11
-0.7884991173982598
 21
0.8713639856223381
  0
LINE
  5
181
  8
0
  6
BYLAYER
 62
  256
 10
-0.7884991173982598
 20
0.8713639856223381
 11
-0.792508033926083
 21
0.8605855394337141
  0
LINE
  5
182
  8
0
  6
BYLAYER
 62
  256
 10
-0.792508033926083
 20
0.8605855394337141
 11
-0.7964931194876499
 21
0.8498521737024021
  0
LINE
  5
183
  8
0
  6
BYLAYER
 62
  256
 10
-0.7964931194876499
 20
0.8498521737024021
 11
-0.8004538138178532
 21
0.8391636713888602
  0
LINE
  5
184
  8
0
  6
BYLAYER
 62
  256
 10
-0.8004538138178532
 20
0.8391636713888602
 11
-0.8043895566512447
 21
0.8285198154549107
  0
LINE
  5
185
  8
0
  6
BYLAYER
 62
  256
 10
-0.8043895566512447
 20
0.8285198154549107
 11
-0.8082997877224898
 21
0.8179203888614666
  0
LINE
  5
186
  8
0
  6
BYLAYER
 62
  256
 10
-0.8082997877224898
 20
0.8179203888614666
 11
-0.8121839467663676
 21
0.8073651745694406
  0
LINE
  5
187
  8
0
  6
BYLAYER
 62
  256
 10
-0.8121839467663676
 20
0.8073651745694406
 11
-0.816041473517771
 21
0.7968539555402003
  0
LINE
  5
188
  8
0
  6
BYLAYER
 62
  256
 10
-0.816041473517771
 20
0.7968539555402003
 11
-0.8198718077109106
 21
0.7863865147351135
  0
LINE
  5
189
  8
0
  6
BYLAYER
 62
  256
 10
-0.8198718077109106
 20
0.7863865147351135
 11
-0.8236743890810203
 21
0.775962635114638
  0
LINE
  5
18A
  8
0
  6
BYLAYER
 62
  256
 10
-0.8236743890810203
 20
0.775962635114638
 11
-0.8274486573625381
 21
0.7655820996401417
  0
LINE
  5
18B
  8
0
  6
BYLAYER
 62
  256
 10
-0.8274486573625381
 20
0.7655820996401417
 11
-0.8311940522903569
 21
0.7552446912727646
  0
LINE
  5
18C
  8
0
  6
BYLAYER
 62
  256
 10
-0.8311940522903569
 20
0.7552446912727646
 11
-0.8349100135989147
 21
0.7449501929736471
  0
LINE
  5
18D
  8
0
  6
BYLAYER
 62
  256
 10
-0.8349100135989147
 20
0.7449501929736471
 11
-0.8385959810231043
 21
0.7346983877039293
  0
LINE
  5
18E
  8
0
  6
BYLAYER
 62
  256
 10
-0.8385959810231043
 20
0.7346983877039293
 11
-0.8422513942974774
 21
0.7244890584247514
  0
LINE
  5
18F
  8
0
  6
BYLAYER
 62
  256
 10
-0.8422513942974774
 20
0.7244890584247514
 11
-0.8458756931570406
 21
0.7143219880972538
  0
LINE
  5
190
  8
0
  6
BYLAYER
 62
  256
 10
-0.8458756931570406
 20
0.7143219880972538
 11
-0.8494683173362318
 21
0.7041969596823492
  0
LINE
  5
191
  8
0
  6
BYLAYER
 62
  256
 10
-0.8494683173362318
 20
0.7041969596823492
 11
-0.853028706569944
 21
0.6941137561409505
  0
LINE
  5
192
  8
0
  6
BYLAYER
 62
  256
 10
-0.853028706569944
 20
0.6941137561409505
 11
-0.8565563005927288
 21
0.6840721604348801
  0
LINE
  5
193
  8
0
  6
BYLAYER
 62
  256
 10
-0.8565563005927288
 20
0.6840721604348801
 11
-0.8600505391393654
 21
0.674071955524596
  0
LINE
  5
194
  8
0
  6
BYLAYER
 62
  256
 10
-0.8600505391393654
 20
0.674071955524596
 11
-0.8635108619446328
 21
0.6641129243716932
  0
LINE
  5
195
  8
0
  6
BYLAYER
 62
  256
 10
-0.8635108619446328
 20
0.6641129243716932
 11
-0.8669367087431965
 21
0.6541948499370847
  0
LINE
  5
196
  8
0
  6
BYLAYER
 62
  256
 10
-0.8669367087431965
 20
0.6541948499370847
 11
-0.8703275192694946
 21
0.6443175151816831
  0
LINE
  5
197
  8
0
  6
BYLAYER
 62
  256
 10
-0.8703275192694946
 20
0.6443175151816831
 11
-0.8736827332587609
 21
0.6344807030668562
  0
LINE
  5
198
  8
0
  6
BYLAYER
 62
  256
 10
-0.8736827332587609
 20
0.6344807030668562
 11
-0.8770017904453198
 21
0.6246841965537442
  0
LINE
  5
199
  8
0
  6
BYLAYER
 62
  256
 10
-0.8770017904453198
 20
0.6246841965537442
 11
-0.8802841305638367
 21
0.6149277786030325
  0
LINE
  5
19A
  8
0
  6
BYLAYER
 62
  256
 10
-0.8802841305638367
 20
0.6149277786030325
 11
-0.8835291933494318
 21
0.6052112321763161
  0
LINE
  5
19B
  8
0
  6
BYLAYER
 62
  256
 10
-0.8835291933494318
 20
0.6052112321763161
 11
-0.8867364185364295
 21
0.5955343402345079
  0
LINE
  5
19C
  8
0
  6
BYLAYER
 62
  256
 10
-0.8867364185364295
 20
0.5955343402345079
 11
-0.8899052458596088
 21
0.5858968857389755
  0
LINE
  5
19D
  8
0
  6
BYLAYER
 62
  256
 10
-0.8899052458596088
 20
0.5858968857389755
 11
-0.8930351150536353
 21
0.5762986516501769
  0
LINE
  5
19E
  8
0
  6
BYLAYER
 62
  256
 10
-0.8930351150536353
 20
0.5762986516501769
 11
-0.8961254658534017
 21
0.5667394209299346
  0
LINE
  5
19F
  8
0
  6
BYLAYER
 62
  256
 10
-0.8961254658534017
 20
0.5667394209299346
 11
-0.8991757379936871
 21
0.5572189765389339
  0
LINE
  5
1A0
  8
0
  6
BYLAYER
 62
  256
 10
-0.8991757379936871
 20
0.5572189765389339
 11
-0.9021853712090433
 21
0.5477371014385426
  0
LINE
  5
1A1
  8
0
  6
BYLAYER
 62
  256
 10
-0.9021853712090433
 20
0.5477371014385426
 11
-0.9051538052339083
 21
0.5382935785896734
  0
LINE
  5
1A2
  8
0
  6
BYLAYER
 62
  256
 10
-0.9051538052339083
 20
0.5382935785896734
 11
-0.9080804798034023
 21
0.528888190953694
  0
LINE
  5
1A3
  8
0
  6
BYLAYER
 62
  256
 10
-0.9080804798034023
 20
0.528888190953694
 11
-0.9109648346520771
 21
0.5195207214912898
  0
LINE
  5
1A4
  8
0
  6
BYLAYER
 62
  256
 10
-0.9109648346520771
 20
0.5195207214912898
 11
-0.9138063095147118
 21
0.5101909531640558
  0
LINE
  5
1A5
  8
0
  6
BYLAYER
 62
  256
 10
-0.9138063095147118
 20
0.5101909531640558
 11
-0.9166043441259717
 21
0.5008986689326775
  0
LINE
  5
1A6
  8
0
  6
BYLAYER
 62
  256
 10
-0.9166043441259717
 20
0.5008986689326775
 11
-0.9193583782205224
 21
0.4916436517587499
  0
LINE
  5
1A7
  8
0
  6
BYLAYER
 62
  256
 10
-0.9193583782205224
 20
0.4916436517587499
 11
-0.9220678515331429
 21
0.4824256846029584
  0
LINE
  5
1A8
  8
0
  6
BYLAYER
 62
  256
 10
-0.9220678515331429
 20
0.4824256846029584
 11
-0.9247322037983849
 21
0.4732445504264433
  0
LINE
  5
1A9
  8
0
  6
BYLAYER
 62
  256
 10
-0.9247322037983849
 20
0.4732445504264433
 11
-0.9273508747512551
 21
0.4641000321903448
  0
LINE
  5
1AA
  8
0
  6
BYLAYER
 62
  256
 10
-0.9273508747512551
 20
0.4641000321903448
 11
-0.9299233041260777
 21
0.4549919128562578
  0
LINE
  5
1AB
  8
0
  6
BYLAYER
 62
  256
 10
-0.9299233041260777
 20
0.4549919128562578
 11
-0.9324489316579729
 21
0.4459199753846406
  0
LINE
  5
1AC
  8
0
  6
BYLAYER
 62
  256
 10
-0.9324489316579729
 20
0.4459199753846406
 11
-0.9349271970812651
 21
0.4368840027370879
  0
LINE
  5
1AD
  8
0
  6
BYLAYER
 62
  256
 10
-0.9349271970812651
 20
0.4368840027370879
 11
-0.9373575401309608
 21
0.4278837778742854
  0
LINE
  5
1AE
  8
0
  6
BYLAYER
 62
  256
 10
-0.9373575401309608
 20
0.4278837778742854
 11
-0.9397394005416118
 21
0.4189190837573733
  0
LINE
  5
1AF
  8
0
  6
BYLAYER
 62
  256
 10
-0.9397394005416118
 20
0.4189190837573733
 11
-0.942072218047997
 21
0.4099897033479465
  0
LINE
  5
1B0
  8
0
  6
BYLAYER
 62
  256
 10
-0.942072218047997
 20
0.4099897033479465
 11
-0.944355432384782
 21
0.4010954196069179
  0
LINE
  5
1B1
  8
0
  6
BYLAYER
 62
  256
 10
-0.944355432384782
 20
0.4010954196069179
 11
-0.9465884832868596
 21
0.3922360154947455
  0
LINE
  5
1B2
  8
0
  6
BYLAYER
 62
  256
 10
-0.9465884832868596
 20
0.3922360154947455
 11
-0.9487708104884405
 21
0.3834112739737066
  0
LINE
  5
1B3
  8
0
  6
BYLAYER
 62
  256
 10
-0.9487708104884405
 20
0.3834112739737066
 11
-0.9509018537248721
 21
0.3746209780040317
  0
LINE
  5
1B4
  8
0
  6
BYLAYER
 62
  256
 10
-0.9509018537248721
 20
0.3746209780040317
 11
-0.9529810527303653
 21
0.3658649105468612
  0
LINE
  5
1B5
  8
0
  6
BYLAYER
 62
  256
 10
-0.9529810527303653
 20
0.3658649105468612
 11
-0.9550078472398127
 21
0.3571428545640174
  0
LINE
  5
1B6
  8
0
  6
BYLAYER
 62
  256
 10
-0.9550078472398127
 20
0.3571428545640174
 11
-0.9569816769881072
 21
0.348454593015731
  0
LINE
  5
1B7
  8
0
  6
BYLAYER
 62
  256
 10
-0.9569816769881072
 20
0.348454593015731
 11
-0.9589019817095732
 21
0.3397999088638244
  0
LINE
  5
1B8
  8
0
  6
BYLAYER
 62
  256
 10
-0.9589019817095732
 20
0.3397999088638244
 11
-0.9607682011392171
 21
0.331178585068983
  0
LINE
  5
1B9
  8
0
  6
BYLAYER
 62
  256
 10
-0.9607682011392171
 20
0.331178585068983
 11
-0.9625797750115908
 21
0.3225904045925745
  0
LINE
  5
1BA
  8
0
  6
BYLAYER
 62
  256
 10
-0.9625797750115908
 20
0.3225904045925745
 11
-0.9643361430617006
 21
0.3140351503952843
  0
LINE
  5
1BB
  8
0
  6
BYLAYER
 62
  256
 10
-0.9643361430617006
 20
0.3140351503952843
 11
-0.9660367450237572
 21
0.3055126054387074
  0
LINE
  5
1BC
  8
0
  6
BYLAYER
 62
  256
 10
-0.9660367450237572
 20
0.3055126054387074
 11
-0.9676810206329947
 21
0.2970225526837567
  0
LINE
  5
1BD
  8
0
  6
BYLAYER
 62
  256
 10
-0.9676810206329947
 20
0.2970225526837567
 11
-0.9692684096236235
 21
0.2885647750913449
  0
LINE
  5
1BE
  8
0
  6
BYLAYER
 62
  256
 10
-0.9692684096236235
 20
0.2885647750913449
 11
-0.9707983517307639
 21
0.2801390556230672
  0
LINE
  5
1BF
  8
0
  6
BYLAYER
 62
  256
 10
-0.9707983517307639
 20
0.2801390556230672
 11
-0.972270286688854
 21
0.2717451772398363
  0
LINE
  5
1C0
  8
0
  6
BYLAYER
 62
  256
 10
-0.972270286688854
 20
0.2717451772398363
 11
-0.9736836542329002
 21
0.2633829229023377
  0
LINE
  5
1C1
  8
0
  6
BYLAYER
 62
  256
 10
-0.9736836542329002
 20
0.2633829229023377
 11
-0.9750378940971132
 21
0.2550520755721664
  0
LINE
  5
1C2
  8
0
  6
BYLAYER
 62
  256
 10
-0.9750378940971132
 20
0.2550520755721664
 11
-0.9763324460167269
 21
0.2467524182106899
  0
LINE
  5
1C3
  8
0
  6
BYLAYER
 62
  256
 10
-0.9763324460167269
 20
0.2467524182106899
 11
-0.9775667497261793
 21
0.2384837337779118
  0
LINE
  5
1C4
  8
0
  6
BYLAYER
 62
  256
 10
-0.9775667497261793
 20
0.2384837337779118
 11
-0.9787402449601359
 21
0.2302458052363363
  0
LINE
  5
1C5
  8
0
  6
BYLAYER
 62
  256
 10
-0.9787402449601359
 20
0.2302458052363363
 11
-0.9798523714534895
 21
0.2220384155461943
  0
LINE
  5
1C6
  8
0
  6
BYLAYER
 62
  256
 10
-0.9798523714534895
 20
0.2220384155461943
 11
-0.9809025689409054
 21
0.213861347668626
  0
LINE
  5
1C7
  8
0
  6
BYLAYER
 62
  256
 10
-0.9809025689409054
 20
0.213861347668626
 11
-0.9818902771569356
 21
0.2057143845649989
  0
LINE
  5
1C8
  8
0
  6
BYLAYER
 62
  256
 10
-0.9818902771569356
 20
0.2057143845649989
 11
-0.9828149358364726
 21
0.1975973091964534
  0
LINE
  5
1C9
  8
0
  6
BYLAYER
 62
  256
 10
-0.9828149358364726
 20
0.1975973091964534
 11
-0.9836759847141821
 21
0.1895099045241295
  0
LINE
  5
1CA
  8
0
  6
BYLAYER
 62
  256
 10
-0.9836759847141821
 20
0.1895099045241295
 11
-0.9844728635246156
 21
0.1814519535087129
  0
LINE
  5
1CB
  8
0
  6
BYLAYER
 62
  256
 10
-0.9844728635246156
 20
0.1814519535087129
 11
-0.9852050120027798
 21
0.1734232391117985
  0
LINE
  5
1CC
  8
0
  6
BYLAYER
 62
  256
 10
-0.9852050120027798
 20
0.1734232391117985
 11
-0.9858718698832263
 21
0.1654235442942991
  0
LINE
  5
1CD
  8
0
  6
BYLAYER
 62
  256
 10
-0.9858718698832263
 20
0.1654235442942991
 11
-0.9864728769006206
 21
0.1574526520173549
  0
LINE
  5
1CE
  8
0
  6
BYLAYER
 62
  256
 10
-0.9864728769006206
 20
0.1574526520173549
 11
-0.9870074727896281
 21
0.1495103452418789
  0
LINE
  5
1CF
  8
0
  6
BYLAYER
 62
  256
 10
-0.9870074727896281
 20
0.1495103452418789
 11
-0.9874750972849142
 21
0.141596406929466
  0
LINE
  5
1D0
  8
0
  6
BYLAYER
 62
  256
 10
-0.9874750972849142
 20
0.141596406929466
 11
-0.9878751901214855
 21
0.1337106200408016
  0
LINE
  5
1D1
  8
0
  6
BYLAYER
 62
  256
 10
-0.9878751901214855
 20
0.1337106200408016
 11
-0.9882071910340073
 21
0.1258527675372534
  0
LINE
  5
1D2
  8
0
  6
BYLAYER
 62
  256
 10
-0.9882071910340073
 20
0.1258527675372534
 11
-0.9884705397568041
 21
0.1180226323797342
  0
LINE
  5
1D3
  8
0
  6
BYLAYER
 62
  256
 10
-0.9884705397568041
 20
0.1180226323797342
 11
-0.988664676024996
 21
0.1102199975289295
  0
LINE
  5
1D4
  8
0
  6
BYLAYER
 62
  256
 10
-0.988664676024996
 20
0.1102199975289295
 11
-0.988789039573021
 21
0.1024446459471164
  0
LINE
  5
1D5
  8
0
  6
BYLAYER
 62
  256
 10
-0.988789039573021
 20
0.1024446459471164
 11
-0.988843070135772
 21
0.09469636059475306
  0
LINE
  5
1D6
  8
0
  6
BYLAYER
 62
  256
 10
-0.988843070135772
 20
0.09469636059475306
 11
-0.9888262074480281
 21
0.08697492443275223
  0
LINE
  5
1D7
  8
0
  6
BYLAYER
 62
  256
 10
-0.9888262074480281
 20
0.08697492443275223
 11
-0.9887378912439999
 21
0.07928012042225419
  0
LINE
  5
1D8
  8
0
  6
BYLAYER
 62
  256
 10
-0.9887378912439999
 20
0.07928012042225419
 11
-0.9885775612590351
 21
0.07161173152485389
  0
LINE
  5
1D9
  8
0
  6
BYLAYER
 62
  256
 10
-0.9885775612590351
 20
0.07161173152485389
 11
-0.9883446572274579
 21
0.06396954070123684
  0
LINE
  5
1DA
  8
0
  6
BYLAYER
 62
  256
 10
-0.9883446572274579
 20
0.06396954070123684
 11
-0.9880386188840475
 21
0.05635333091231587
  0
LINE
  5
1DB
  8
0
  6
BYLAYER
 62
  256
 10
-0.9880386188840475
 20
0.05635333091231587
 11
-0.9876588859636968
 21
0.04876288511991334
  0
LINE
  5
1DC
  8
0
  6
BYLAYER
 62
  256
 10
-0.9876588859636968
 20
0.04876288511991334
 11
-0.98720489820073
 21
0.04119798628448734
  0
LINE
  5
1DD
  8
0
  6
BYLAYER
 62
  256
 10
-0.98720489820073
 20
0.04119798628448734
 11
-0.9866760953302673
 21
0.03365841736740549
  0
LINE
  5
1DE
  8
0
  6
BYLAYER
 62
  256
 10
-0.9866760953302673
 20
0.03365841736740549
 11
-0.9860719170868606
 21
0.02614396133003538
  0
LINE
  5
1DF
  8
0
  6
BYLAYER
 62
  256
 10
-0.9860719170868606
 20
0.02614396133003538
 11
-0.9853918032051752
 21
0.01865440113306249
  0
LINE
  5
1E0
  8
0
  6
BYLAYER
 62
  256
 10
-0.9853918032051752
 20
0.01865440113306249
 11
-0.9846351934198765
 21
0.01118951973785443
  0
LINE
  5
1E1
  8
0
  6
BYLAYER
 62
  256
 10
-0.9846351934198765
 20
0.01118951973785443
 11
-0.9838015274658574
 21
0.003749100105324032
  0
LINE
  5
1E2
  8
0
  6
BYLAYER
 62
  256
 10
-0.9838015274658574
 20
0.003749100105324032
 11
-0.9828902450776695
 21
-0.003667074803615833
  0
LINE
  5
1E3
  8
0
  6
BYLAYER
 62
  256
 10
-0.9828902450776695
 20
-0.003667074803615833
 11
-0.9819007859900921
 21
-0.01105922202714282
  0
LINE
  5
1E4
  8
0
  6
BYLAYER
 62
  256
 10
-0.9819007859900921
 20
-0.01105922202714282
 11
-0.9808325899376769
 21
-0.01842755860457146
  0
LINE
  5
1E5
  8
0
  6
BYLAYER
 62
  256
 10
-0.9808325899376769
 20
-0.01842755860457146
 11
-0.9796850966554302
 21
-0.02577230157476151
  0
LINE
  5
1E6
  8
0
  6
BYLAYER
 62
  256
 10
-0.9796850966554302
 20
-0.02577230157476151
 11
-0.9784577458776766
 21
-0.03309366797657276
  0
LINE
  5
1E7
  8
0
  6
BYLAYER
 62
  256
 10
-0.9784577458776766
 20
-0.03309366797657276
 11
-0.9771499773395362
 21
-0.04039187484931972
  0
LINE
  5
1E8
  8
0
  6
BYLAYER
 62
  256
 10
-0.9771499773395362
 20
-0.04039187484931972
 11
-0.9757612307755608
 21
-0.04766713923095267
  0
LINE
  5
1E9
  8
0
  6
BYLAYER
 62
  256
 10
-0.9757612307755608
 20
-0.04766713923095267
 11
-0.9742909459201883
 21
-0.05491967816124083
  0
LINE
  5
1EA
  8
0
  6
BYLAYER
 62
  256
 10
-0.9742909459201883
 20
-0.05491967816124083
 11
-0.972738562508539
 21
-0.06214970867858932
  0
LINE
  5
1EB
  8
0
  6
BYLAYER
 62
  256
 10
-0.972738562508539
 20
-0.06214970867858932
 11
-0.9711035202751646
 21
-0.06935744782208536
  0
LINE
  5
1EC
  8
0
  6
BYLAYER
 62
  256
 10
-0.9711035202751646
 20
-0.06935744782208536
 11
-0.9693852589546168
 21
-0.07654311263036107
  0
LINE
  5
1ED
  8
0
  6
BYLAYER
 62
  256
 10
-0.9693852589546168
 20
-0.07654311263036107
 11
-0.9675832182819022
 21
-0.08370692014273112
  0
LINE
  5
1EE
  8
0
  6
BYLAYER
 62
  256
 10
-0.9675832182819022
 20
-0.08370692014273112
 11
-0.9656968379915725
 21
-0.09084908739805547
  0
LINE
  5
1EF
  8
0
  6
BYLAYER
 62
  256
 10
-0.9656968379915725
 20
-0.09084908739805547
 11
-0.9637255578180657
 21
-0.09796983143451143
  0
LINE
  5
1F0
  8
0
  6
BYLAYER
 62
  256
 10
-0.9637255578180657
 20
-0.09796983143451143
 11
-0.9616688174967294
 21
-0.1050693692918686
  0
LINE
  5
1F1
  8
0
  6
BYLAYER
 62
  256
 10
-0.9616688174967294
 20
-0.1050693692918686
 11
-0.9595260567617743
 21
-0.1121479180085316
  0
LINE
  5
1F2
  8
0
  6
BYLAYER
 62
  256
 10
-0.9595260567617743
 20
-0.1121479180085316
 11
-0.9572967153478658
 21
-0.1192056946233607
  0
LINE
  5
1F3
  8
0
  6
BYLAYER
 62
  256
 10
-0.9572967153478658
 20
-0.1192056946233607
 11
-0.954980232990124
 21
-0.12624291617567
  0
LINE
  5
1F4
  8
0
  6
BYLAYER
 62
  256
 10
-0.954980232990124
 20
-0.12624291617567
 11
-0.9525760494227598
 21
-0.1332597997038648
  0
LINE
  5
1F5
  8
0
  6
BYLAYER
 62
  256
 10
-0.9525760494227598
 20
-0.1332597997038648
 11
-0.9500836043810068
 21
-0.1402565622470319
  0
LINE
  5
1F6
  8
0
  6
BYLAYER
 62
  256
 10
-0.9500836043810068
 20
-0.1402565622470319
 11
-0.9475023375993032
 21
-0.1472334208440316
  0
LINE
  5
1F7
  8
0
  6
BYLAYER
 62
  256
 10
-0.9475023375993032
 20
-0.1472334208440316
 11
-0.9448316888122008
 21
-0.1541905925339506
  0
LINE
  5
1F8
  8
0
  6
BYLAYER
 62
  256
 10
-0.9448316888122008
 20
-0.1541905925339506
 11
-0.942071097754706
 21
-0.1611282943554215
  0
LINE
  5
1F9
  8
0
  6
BYLAYER
 62
  256
 10
-0.942071097754706
 20
-0.1611282943554215
 11
-0.9392200041613705
 21
-0.1680467433473041
  0
LINE
  5
1FA
  8
0
  6
BYLAYER
 62
  256
 10
-0.9392200041613705
 20
-0.1680467433473041
 11
-0.9362778477669735
 21
-0.1749461565486853
  0
LINE
  5
1FB
  8
0
  6
BYLAYER
 62
  256
 10
-0.9362778477669735
 20
-0.1749461565486853
 11
-0.9332440683059531
 21
-0.1818267509984253
  0
LINE
  5
1FC
  8
0
  6
BYLAYER
 62
  256
 10
-0.9332440683059531
 20
-0.1818267509984253
 11
-0.9301181055134293
 21
-0.1886887437349287
  0
LINE
  5
1FD
  8
0
  6
BYLAYER
 62
  256
 10
-0.9301181055134293
 20
-0.1886887437349287
 11
-0.9268993991238403
 21
-0.195532351797965
  0
LINE
  5
1FE
  8
0
  6
BYLAYER
 62
  256
 10
-0.9268993991238403
 20
-0.195532351797965
 11
-0.9235873888720789
 21
-0.2023577922257118
  0
LINE
  5
1FF
  8
0
  6
BYLAYER
 62
  256
 10
-0.9235873888720789
 20
-0.2023577922257118
 11
-0.9201815144926968
 21
-0.2091652820577111
  0
LINE
  5
200
  8
0
  6
BYLAYER
 62
  256
 10
-0.9201815144926968
 20
-0.2091652820577111
 11
-0.9166812157205868
 21
-0.2159550383321402
  0
LINE
  5
201
  8
0
  6
BYLAYER
 62
  256
 10
-0.9166812157205868
 20
-0.2159550383321402
 11
-0.9130859322900733
 21
-0.2227272780878594
  0
LINE
  5
202
  8
0
  6
BYLAYER
 62
  256
 10
-0.9130859322900733
 20
-0.2227272780878594
 11
-0.9093951039363901
 21
-0.2294822183644101
  0
LINE
  5
203
  8
0
  6
BYLAYER
 62
  256
 10
-0.9093951039363901
 20
-0.2294822183644101
 11
-0.9056081703939753
 21
-0.2362200762006523
  0
LINE
  5
204
  8
0
  6
BYLAYER
 62
  256
 10
-0.9056081703939753
 20
-0.2362200762006523
 11
-0.9017245713973807
 21
-0.2429410686349912
  0
LINE
  5
205
  8
0
  6
BYLAYER
 62
  256
 10
-0.9017245713973807
 20
-0.2429410686349912
 11
-0.8977437466816127
 21
-0.2496454127062862
  0
LINE
  5
206
  8
0
  6
BYLAYER
 62
  256
 10
-0.8977437466816127
 20
-0.2496454127062862
 11
-0.8936651359811094
 21
-0.2563333254536246
  0
LINE
  5
207
  8
0
  6
BYLAYER
 62
  256
 10
-0.8936651359811094
 20
-0.2563333254536246
 11
-0.8894881790308773
 21
-0.2630050239160938
  0
LINE
  5
208
  8
0
  6
BYLAYER
 62
  256
 10
-0.8894881790308773
 20
-0.2630050239160938
 11
-0.8852123155653544
 21
-0.2696607251325531
  0
LINE
  5
209
  8
0
  6
BYLAYER
 62
  256
 10
-0.8852123155653544
 20
-0.2696607251325531
 11
-0.8808369853194336
 21
-0.2763006461414079
  0
LINE
  5
20A
  8
0
  6
BYLAYER
 62
  256
 10
-0.8808369853194336
 20
-0.2763006461414079
 11
-0.8763616280277802
 21
-0.2829250039822001
  0
LINE
  5
20B
  8
0
  6
BYLAYER
 62
  256
 10
-0.8763616280277802
 20
-0.2829250039822001
 11
-0.871785683424946
 21
-0.2895340156933344
  0
LINE
  5
20C
  8
0
  6
BYLAYER
 62
  256
 10
-0.871785683424946
 20
-0.2895340156933344
 11
-0.8671085912458238
 21
-0.2961278983138982
  0
LINE
  5
20D
  8
0
  6
BYLAYER
 62
  256
 10
-0.8671085912458238
 20
-0.2961278983138982
 11
-0.8623297912251928
 21
-0.3027068688827512
  0
LINE
  5
20E
  8
0
  6
BYLAYER
 62
  256
 10
-0.8623297912251928
 20
-0.3027068688827512
 11
-0.857448723097491
 21
-0.3092711444385259
  0
LINE
  5
20F
  8
0
  6
BYLAYER
 62
  256
 10
-0.857448723097491
 20
-0.3092711444385259
 11
-0.8524648265976111
 21
-0.3158209420207641
  0
LINE
  5
210
  8
0
  6
BYLAYER
 62
  256
 10
-0.8524648265976111
 20
-0.3158209420207641
 11
-0.8473775414602187
 21
-0.3223564786676434
  0
LINE
  5
211
  8
0
  6
BYLAYER
 62
  256
 10
-0.8473775414602187
 20
-0.3223564786676434
 11
-0.8421863074203202
 21
-0.328877971418251
  0
LINE
  5
212
  8
0
  6
BYLAYER
 62
  256
 10
-0.8421863074203202
 20
-0.328877971418251
 11
-0.8368905642118989
 21
-0.3353856373116741
  0
LINE
  5
213
  8
0
  6
BYLAYER
 62
  256
 10
-0.8368905642118989
 20
-0.3353856373116741
 11
-0.8314897515703024
 21
-0.3418796933867724
  0
LINE
  5
214
  8
0
  6
BYLAYER
 62
  256
 10
-0.8314897515703024
 20
-0.3418796933867724
 11
-0.8259833092300823
 21
-0.3483603566824058
  0
LINE
  5
215
  8
0
  6
BYLAYER
 62
  256
 10
-0.8259833092300823
 20
-0.3483603566824058
 11
-0.8203706769257906
 21
-0.354827844237434
  0
LINE
  5
216
  8
0
  6
BYLAYER
 62
  256
 10
-0.8203706769257906
 20
-0.354827844237434
 11
-0.8146512943923199
 21
-0.3612823730904893
  0
LINE
  5
217
  8
0
  6
BYLAYER
 62
  256
 10
-0.8146512943923199
 20
-0.3612823730904893
 11
-0.808824601364222
 21
-0.3677241602808863
  0
LINE
  5
218
  8
0
  6
BYLAYER
 62
  256
 10
-0.808824601364222
 20
-0.3677241602808863
 11
-0.8028900375763897
 21
-0.3741534228472573
  0
LINE
  5
219
  8
0
  6
BYLAYER
 62
  256
 10
-0.8028900375763897
 20
-0.3741534228472573
 11
-0.7968470427634884
 21
-0.3805703778289171
  0
LINE
  5
21A
  8
0
  6
BYLAYER
 62
  256
 10
-0.7968470427634884
 20
-0.3805703778289171
 11
-0.7906950566598425
 21
-0.3869752422635884
  0
LINE
  5
21B
  8
0
  6
BYLAYER
 62
  256
 10
-0.7906950566598425
 20
-0.3869752422635884
 11
-0.7844335190009133
 21
-0.3933682331917225
  0
LINE
  5
21C
  8
0
  6
BYLAYER
 62
  256
 10
-0.7844335190009133
 20
-0.3933682331917225
 11
-0.7780618695207977
 21
-0.3997495676510425
  0
LINE
  5
21D
  8
0
  6
BYLAYER
 62
  256
 10
-0.7780618695207977
 20
-0.3997495676510425
 11
-0.7715795479543885
 21
-0.4061194626810902
  0
LINE
  5
21E
  8
0
  6
BYLAYER
 62
  256
 10
-0.7715795479543885
 20
-0.4061194626810902
 11
-0.7649859940364649
 21
-0.412478135320498
  0
LINE
  5
21F
  8
0
  6
BYLAYER
 62
  256
 10
-0.7649859940364649
 20
-0.412478135320498
 11
-0.7582806475016923
 21
-0.4188258026078984
  0
LINE
  5
220
  8
0
  6
BYLAYER
 62
  256
 10
-0.7582806475016923
 20
-0.4188258026078984
 11
-0.7514629480847361
 21
-0.4251626815823784
  0
LINE
  5
221
  8
0
  6
BYLAYER
 62
  256
 10
-0.7514629480847361
 20
-0.4251626815823784
 11
-0.7445323355202618
 21
-0.4314889892834798
  0
LINE
  5
222
  8
0
  6
BYLAYER
 62
  256
 10
-0.7445323355202618
 20
-0.4314889892834798
 11
-0.7374882495430484
 21
-0.4378049427491533
  0
LINE
  5
223
  8
0
  6
BYLAYER
 62
  256
 10
-0.7374882495430484
 20
-0.4378049427491533
 11
-0.7303301298879887
 21
-0.4441107590187131
  0
LINE
  5
224
  8
0
  6
BYLAYER
 62
  256
 10
-0.7303301298879887
 20
-0.4441107590187131
 11
-0.7230574162894072
 21
-0.4504066551307915
  0
LINE
  5
225
  8
0
  6
BYLAYER
 62
  256
 10
-0.7230574162894072
 20
-0.4504066551307915
 11
-0.7156695484823103
 21
-0.4566928481247032
  0
LINE
  5
226
  8
0
  6
BYLAYER
 62
  256
 10
-0.7156695484823103
 20
-0.4566928481247032
 11
-0.7081659662013635
 21
-0.4629695550388532
  0
LINE
  5
227
  8
0
  6
BYLAYER
 62
  256
 10
-0.7081659662013635
 20
-0.4629695550388532
 11
-0.7005461091812322
 21
-0.4692369929123287
  0
LINE
  5
228
  8
0
  6
BYLAYER
 62
  256
 10
-0.7005461091812322
 20
-0.4692369929123287
 11
-0.6928094171563544
 21
-0.4754953787839896
  0
LINE
  5
229
  8
0
  6
BYLAYER
 62
  256
 10
-0.6928094171563544
 20
-0.4754953787839896
 11
-0.6849553298619639
 21
-0.48174492969315
  0
LINE
  5
22A
  8
0
  6
BYLAYER
 62
  256
 10
-0.6849553298619639
 20
-0.48174492969315
 11
-0.6769832870323853
 21
-0.4879858626782153
  0
LINE
  5
22B
  8
0
  6
BYLAYER
 62
  256
 10
-0.6769832870323853
 20
-0.4879858626782153
 11
-0.6688927284026249
 21
-0.4942183947782723
  0
LINE
  5
22C
  8
0
  6
BYLAYER
 62
  256
 10
-0.6688927284026249
 20
-0.4942183947782723
 11
-0.6606830937068935
 21
-0.5004427430319538
  0
LINE
  5
22D
  8
0
  6
BYLAYER
 62
  256
 10
-0.6606830937068935
 20
-0.5004427430319538
 11
-0.6523538226806522
 21
-0.5066591244781193
  0
LINE
  5
22E
  8
0
  6
BYLAYER
 62
  256
 10
-0.6523538226806522
 20
-0.5066591244781193
 11
-0.6439043550577708
 21
-0.5128677561563109
  0
LINE
  5
22F
  8
0
  6
BYLAYER
 62
  256
 10
-0.6439043550577708
 20
-0.5128677561563109
 11
-0.635334130573483
 21
-0.519068855104706
  0
LINE
  5
230
  8
0
  6
BYLAYER
 62
  256
 10
-0.635334130573483
 20
-0.519068855104706
 11
-0.626642588962568
 21
-0.525262638362392
  0
LINE
  5
231
  8
0
  6
BYLAYER
 62
  256
 10
-0.626642588962568
 20
-0.525262638362392
 11
-0.6178291699593501
 21
-0.5314493229682284
  0
LINE
  5
232
  8
0
  6
BYLAYER
 62
  256
 10
-0.6178291699593501
 20
-0.5314493229682284
 11
-0.6088933132989496
 21
-0.53762912596153
  0
LINE
  5
233
  8
0
  6
BYLAYER
 62
  256
 10
-0.6088933132989496
 20
-0.53762912596153
 11
-0.5998344587156907
 21
-0.5438022643807017
  0
LINE
  5
234
  8
0
  6
BYLAYER
 62
  256
 10
-0.1000000000000227
 20
0.2828427124750306
 11
-0.1000000000000227
 21
2.000000000000909
  0
LINE
  5
235
  8
0
  6
BYLAYER
 62
  256
 10
-0.1000000000000227
 20
2.000000000000909
 11
0.09999999999990905
 21
2.000000000000909
  0
LINE
  5
236
  8
0
  6
BYLAYER
 62
  256
 10
0.09999999999990905
 20
2.000000000000909
 11
0.09999999999990905
 21
0.2828427124750306
  0
ENDSEC
  0
EOF
